<ttFont>
    <TTGlyph name=".001" xMin="27" yMin="-160" xMax="431" yMax="476">
      <contour>
        <pt x="80" y="-118" on="1"/>
        <pt x="147" y="-118" on="0"/>
        <pt x="250" y="-75" on="0"/>
        <pt x="322" y="-5" on="0"/>
        <pt x="366" y="84" on="0"/>
        <pt x="374" y="130" on="1"/>
        <pt x="372" y="131" on="1"/>
        <pt x="346" y="99" on="0"/>
        <pt x="266" y="69" on="0"/>
        <pt x="221" y="69" on="1"/>
        <pt x="175" y="69" on="0"/>
        <pt x="103" y="99" on="0"/>
        <pt x="53" y="152" on="0"/>
        <pt x="27" y="225" on="0"/>
        <pt x="27" y="267" on="1"/>
        <pt x="27" y="315" on="0"/>
        <pt x="59" y="392" on="0"/>
        <pt x="114" y="446" on="0"/>
        <pt x="187" y="476" on="0"/>
        <pt x="229" y="476" on="1"/>
        <pt x="272" y="476" on="0"/>
        <pt x="346" y="444" on="0"/>
        <pt x="400" y="380" on="0"/>
        <pt x="431" y="282" on="0"/>
        <pt x="431" y="215" on="1"/>
        <pt x="431" y="138" on="0"/>
        <pt x="388" y="1" on="0"/>
        <pt x="302" y="-101" on="0"/>
        <pt x="174" y="-160" on="0"/>
        <pt x="90" y="-160" on="1"/>
        <pt x="79" y="-160" on="0"/>
        <pt x="55" y="-158" on="0"/>
        <pt x="44" y="-156" on="1"/>
        <pt x="40" y="-115" on="1"/>
        <pt x="49" y="-117" on="0"/>
        <pt x="67" y="-118" on="0"/>
      </contour>
      <contour>
        <pt x="379" y="239" on="1"/>
        <pt x="379" y="275" on="0"/>
        <pt x="361" y="345" on="0"/>
        <pt x="324" y="400" on="0"/>
        <pt x="266" y="434" on="0"/>
        <pt x="227" y="434" on="1"/>
        <pt x="195" y="434" on="0"/>
        <pt x="141" y="410" on="0"/>
        <pt x="102" y="366" on="0"/>
        <pt x="81" y="307" on="0"/>
        <pt x="81" y="271" on="1"/>
        <pt x="81" y="200" on="0"/>
        <pt x="159" y="115" on="0"/>
        <pt x="225" y="115" on="1"/>
        <pt x="276" y="115" on="0"/>
        <pt x="344" y="153" on="0"/>
        <pt x="358" y="172" on="1"/>
        <pt x="368" y="186" on="0"/>
        <pt x="379" y="217" on="0"/>
      </contour>
    </TTGlyph>
    <TTGlyph name=".004" xMin="68" yMin="-160" xMax="435" yMax="470">
      <contour>
        <pt x="383" y="470" on="1"/>
        <pt x="435" y="470" on="1"/>
        <pt x="435" y="0" on="1"/>
        <pt x="398" y="0" on="1"/>
        <pt x="390" y="59" on="1"/>
        <pt x="388" y="59" on="1"/>
        <pt x="364" y="33" on="0"/>
        <pt x="283" y="-8" on="0"/>
        <pt x="229" y="-8" on="1"/>
        <pt x="156" y="-8" on="0"/>
        <pt x="116" y="26" on="1"/>
        <pt x="120" y="-43" on="1"/>
        <pt x="120" y="-160" on="1"/>
        <pt x="68" y="-160" on="1"/>
        <pt x="68" y="470" on="1"/>
        <pt x="120" y="470" on="1"/>
        <pt x="120" y="161" on="1"/>
        <pt x="120" y="124" on="0"/>
        <pt x="138" y="75" on="0"/>
        <pt x="170" y="46" on="0"/>
        <pt x="215" y="34" on="0"/>
        <pt x="241" y="34" on="1"/>
        <pt x="286" y="34" on="0"/>
        <pt x="363" y="76" on="0"/>
        <pt x="383" y="105" on="1"/>
      </contour>
    </TTGlyph>
    <TTGlyph name=".notdef" xMin="0" yMin="0" xMax="480" yMax="700">
      <contour>
        <pt x="0" y="700" on="1"/>
        <pt x="480" y="700" on="1"/>
        <pt x="480" y="0" on="1"/>
        <pt x="0" y="0" on="1"/>
      </contour>
      <contour>
        <pt x="420" y="660" on="1"/>
        <pt x="60" y="660" on="1"/>
        <pt x="240" y="385" on="1"/>
      </contour>
      <contour>
        <pt x="440" y="85" on="1"/>
        <pt x="440" y="615" on="1"/>
        <pt x="265" y="350" on="1"/>
      </contour>
      <contour>
        <pt x="420" y="40" on="1"/>
        <pt x="240" y="315" on="1"/>
        <pt x="60" y="40" on="1"/>
      </contour>
      <contour>
        <pt x="40" y="85" on="1"/>
        <pt x="215" y="350" on="1"/>
        <pt x="40" y="615" on="1"/>
      </contour>
    </TTGlyph>
    <TTGlyph name=".notdef#1" xMin="-190" yMin="627" xMax="9" yMax="849">
      <contour>
        <pt x="-93" y="724" on="1"/>
        <pt x="-93" y="737" on="0"/>
        <pt x="-78" y="753" on="0"/>
        <pt x="-65" y="753" on="1"/>
        <pt x="-53" y="753" on="0"/>
        <pt x="-37" y="737" on="0"/>
        <pt x="-37" y="724" on="1"/>
        <pt x="-37" y="710" on="0"/>
        <pt x="-53" y="693" on="0"/>
        <pt x="-65" y="693" on="1"/>
        <pt x="-93" y="693" on="0"/>
      </contour>
      <contour>
        <pt x="-147" y="627" on="1"/>
        <pt x="-147" y="632" on="1"/>
        <pt x="-164" y="651" on="0"/>
        <pt x="-190" y="709" on="0"/>
        <pt x="-190" y="741" on="1"/>
        <pt x="-190" y="767" on="0"/>
        <pt x="-172" y="807" on="0"/>
        <pt x="-140" y="835" on="0"/>
        <pt x="-100" y="849" on="0"/>
        <pt x="-77" y="849" on="1"/>
        <pt x="-52" y="849" on="0"/>
        <pt x="-5" y="836" on="0"/>
        <pt x="9" y="827" on="1"/>
        <pt x="-2" y="791" on="1"/>
        <pt x="-18" y="799" on="0"/>
        <pt x="-51" y="809" on="0"/>
        <pt x="-71" y="809" on="1"/>
        <pt x="-104" y="809" on="0"/>
        <pt x="-144" y="774" on="0"/>
        <pt x="-144" y="733" on="1"/>
        <pt x="-144" y="704" on="0"/>
        <pt x="-122" y="652" on="0"/>
        <pt x="-105" y="630" on="1"/>
      </contour>
    </TTGlyph>
    <TTGlyph name=".notdef#2" xMin="-200" yMin="627" xMax="8" yMax="859">
      <contour>
        <pt x="8" y="753" on="1"/>
        <pt x="8" y="712" on="0"/>
        <pt x="-30" y="681" on="0"/>
        <pt x="-54" y="681" on="1"/>
        <pt x="-82" y="681" on="0"/>
        <pt x="-120" y="714" on="0"/>
        <pt x="-120" y="753" on="1"/>
        <pt x="-96" y="753" on="1"/>
        <pt x="-95" y="727" on="0"/>
        <pt x="-74" y="706" on="0"/>
        <pt x="-56" y="706" on="1"/>
        <pt x="-16" y="706" on="0"/>
        <pt x="-16" y="753" on="1"/>
      </contour>
      <contour>
        <pt x="-74" y="751" on="1"/>
        <pt x="-74" y="772" on="0"/>
        <pt x="-56" y="772" on="1"/>
        <pt x="-48" y="772" on="0"/>
        <pt x="-38" y="760" on="0"/>
        <pt x="-38" y="751" on="1"/>
        <pt x="-38" y="740" on="0"/>
        <pt x="-48" y="730" on="0"/>
        <pt x="-56" y="730" on="1"/>
        <pt x="-74" y="730" on="0"/>
      </contour>
      <contour>
        <pt x="-147" y="627" on="1"/>
        <pt x="-147" y="632" on="1"/>
        <pt x="-166" y="652" on="0"/>
        <pt x="-200" y="712" on="0"/>
        <pt x="-200" y="751" on="1"/>
        <pt x="-200" y="803" on="0"/>
        <pt x="-127" y="859" on="0"/>
        <pt x="-67" y="859" on="1"/>
        <pt x="-2" y="859" on="1"/>
        <pt x="-2" y="819" on="1"/>
        <pt x="-61" y="819" on="1"/>
        <pt x="-109" y="819" on="0"/>
        <pt x="-154" y="784" on="0"/>
        <pt x="-154" y="743" on="1"/>
        <pt x="-154" y="707" on="0"/>
        <pt x="-125" y="656" on="0"/>
        <pt x="-105" y="630" on="1"/>
      </contour>
    </TTGlyph>
    <TTGlyph name="A" xMin="26" yMin="0" xMax="557" yMax="630">
      <contour>
        <pt x="267" y="630" on="1"/>
        <pt x="319" y="630" on="1"/>
        <pt x="557" y="0" on="1"/>
        <pt x="501" y="0" on="1"/>
        <pt x="432" y="186" on="1"/>
        <pt x="150" y="186" on="1"/>
        <pt x="81" y="0" on="1"/>
        <pt x="26" y="0" on="1"/>
      </contour>
      <contour>
        <pt x="166" y="228" on="1"/>
        <pt x="415" y="228" on="1"/>
        <pt x="336" y="444" on="1"/>
        <pt x="334" y="450" on="0"/>
        <pt x="324" y="480" on="0"/>
        <pt x="312" y="518" on="0"/>
        <pt x="299" y="560" on="0"/>
        <pt x="294" y="578" on="1"/>
        <pt x="292" y="578" on="1"/>
        <pt x="287" y="560" on="0"/>
        <pt x="274" y="520" on="0"/>
        <pt x="261" y="483" on="0"/>
        <pt x="250" y="453" on="0"/>
        <pt x="247" y="444" on="1"/>
      </contour>
    </TTGlyph>
    <TTGlyph name="AE" xMin="16" yMin="0" xMax="723" yMax="630">
      <contour>
        <pt x="16" y="0" on="1"/>
        <pt x="340" y="630" on="1"/>
        <pt x="720" y="630" on="1"/>
        <pt x="720" y="588" on="1"/>
        <pt x="422" y="588" on="1"/>
        <pt x="422" y="345" on="1"/>
        <pt x="694" y="345" on="1"/>
        <pt x="694" y="303" on="1"/>
        <pt x="422" y="303" on="1"/>
        <pt x="422" y="42" on="1"/>
        <pt x="723" y="42" on="1"/>
        <pt x="723" y="0" on="1"/>
        <pt x="370" y="0" on="1"/>
        <pt x="370" y="193" on="1"/>
        <pt x="168" y="193" on="1"/>
        <pt x="71" y="0" on="1"/>
      </contour>
      <contour>
        <pt x="370" y="593" on="1"/>
        <pt x="189" y="235" on="1"/>
        <pt x="370" y="235" on="1"/>
      </contour>
    </TTGlyph>
    <TTGlyph name="AEacute" xMin="16" yMin="0" xMax="723" yMax="834">
      <contour>
        <pt x="16" y="0" on="1"/>
        <pt x="340" y="630" on="1"/>
        <pt x="720" y="630" on="1"/>
        <pt x="720" y="588" on="1"/>
        <pt x="422" y="588" on="1"/>
        <pt x="422" y="345" on="1"/>
        <pt x="694" y="345" on="1"/>
        <pt x="694" y="303" on="1"/>
        <pt x="422" y="303" on="1"/>
        <pt x="422" y="42" on="1"/>
        <pt x="723" y="42" on="1"/>
        <pt x="723" y="0" on="1"/>
        <pt x="370" y="0" on="1"/>
        <pt x="370" y="193" on="1"/>
        <pt x="168" y="193" on="1"/>
        <pt x="71" y="0" on="1"/>
      </contour>
      <contour>
        <pt x="370" y="593" on="1"/>
        <pt x="189" y="235" on="1"/>
        <pt x="370" y="235" on="1"/>
      </contour>
      <contour>
        <pt x="391" y="710" on="1"/>
        <pt x="349" y="710" on="1"/>
        <pt x="439" y="834" on="1"/>
        <pt x="502" y="834" on="1"/>
      </contour>
    </TTGlyph>
    <TTGlyph name="Aacute" xMin="26" yMin="0" xMax="557" yMax="834">
      <contour>
        <pt x="311" y="710" on="1"/>
        <pt x="269" y="710" on="1"/>
        <pt x="359" y="834" on="1"/>
        <pt x="422" y="834" on="1"/>
      </contour>
      <contour>
        <pt x="267" y="630" on="1"/>
        <pt x="319" y="630" on="1"/>
        <pt x="557" y="0" on="1"/>
        <pt x="501" y="0" on="1"/>
        <pt x="432" y="186" on="1"/>
        <pt x="150" y="186" on="1"/>
        <pt x="81" y="0" on="1"/>
        <pt x="26" y="0" on="1"/>
      </contour>
      <contour>
        <pt x="166" y="228" on="1"/>
        <pt x="415" y="228" on="1"/>
        <pt x="336" y="444" on="1"/>
        <pt x="334" y="450" on="0"/>
        <pt x="324" y="480" on="0"/>
        <pt x="312" y="518" on="0"/>
        <pt x="299" y="560" on="0"/>
        <pt x="294" y="578" on="1"/>
        <pt x="292" y="578" on="1"/>
        <pt x="287" y="560" on="0"/>
        <pt x="274" y="520" on="0"/>
        <pt x="261" y="483" on="0"/>
        <pt x="250" y="453" on="0"/>
        <pt x="247" y="444" on="1"/>
      </contour>
    </TTGlyph>
    <TTGlyph name="Abreve" xMin="26" yMin="0" xMax="557" yMax="834">
      <contour>
        <pt x="206" y="834" on="1"/>
        <pt x="207" y="796" on="0"/>
        <pt x="247" y="750" on="0"/>
        <pt x="294" y="750" on="1"/>
        <pt x="333" y="750" on="0"/>
        <pt x="378" y="794" on="0"/>
        <pt x="379" y="834" on="1"/>
        <pt x="427" y="834" on="1"/>
        <pt x="427" y="780" on="0"/>
        <pt x="359" y="710" on="0"/>
        <pt x="294" y="710" on="1"/>
        <pt x="258" y="710" on="0"/>
        <pt x="207" y="730" on="0"/>
        <pt x="174" y="765" on="0"/>
        <pt x="158" y="810" on="0"/>
        <pt x="158" y="834" on="1"/>
      </contour>
      <contour>
        <pt x="267" y="630" on="1"/>
        <pt x="319" y="630" on="1"/>
        <pt x="557" y="0" on="1"/>
        <pt x="501" y="0" on="1"/>
        <pt x="432" y="186" on="1"/>
        <pt x="150" y="186" on="1"/>
        <pt x="81" y="0" on="1"/>
        <pt x="26" y="0" on="1"/>
      </contour>
      <contour>
        <pt x="166" y="228" on="1"/>
        <pt x="415" y="228" on="1"/>
        <pt x="336" y="444" on="1"/>
        <pt x="334" y="450" on="0"/>
        <pt x="324" y="480" on="0"/>
        <pt x="312" y="518" on="0"/>
        <pt x="299" y="560" on="0"/>
        <pt x="294" y="578" on="1"/>
        <pt x="292" y="578" on="1"/>
        <pt x="287" y="560" on="0"/>
        <pt x="274" y="520" on="0"/>
        <pt x="261" y="483" on="0"/>
        <pt x="250" y="453" on="0"/>
        <pt x="247" y="444" on="1"/>
      </contour>
    </TTGlyph>
    <TTGlyph name="Acircumflex" xMin="26" yMin="0" xMax="557" yMax="844">
      <contour>
        <pt x="270" y="844" on="1"/>
        <pt x="319" y="844" on="1"/>
        <pt x="444" y="710" on="1"/>
        <pt x="384" y="710" on="1"/>
        <pt x="294" y="809" on="1"/>
        <pt x="204" y="710" on="1"/>
        <pt x="148" y="710" on="1"/>
      </contour>
      <contour>
        <pt x="267" y="630" on="1"/>
        <pt x="319" y="630" on="1"/>
        <pt x="557" y="0" on="1"/>
        <pt x="501" y="0" on="1"/>
        <pt x="432" y="186" on="1"/>
        <pt x="150" y="186" on="1"/>
        <pt x="81" y="0" on="1"/>
        <pt x="26" y="0" on="1"/>
      </contour>
      <contour>
        <pt x="166" y="228" on="1"/>
        <pt x="415" y="228" on="1"/>
        <pt x="336" y="444" on="1"/>
        <pt x="334" y="450" on="0"/>
        <pt x="324" y="480" on="0"/>
        <pt x="312" y="518" on="0"/>
        <pt x="299" y="560" on="0"/>
        <pt x="294" y="578" on="1"/>
        <pt x="292" y="578" on="1"/>
        <pt x="287" y="560" on="0"/>
        <pt x="274" y="520" on="0"/>
        <pt x="261" y="483" on="0"/>
        <pt x="250" y="453" on="0"/>
        <pt x="247" y="444" on="1"/>
      </contour>
    </TTGlyph>
    <TTGlyph name="Acute" xMin="20" yMin="710" xMax="173" yMax="834">
      <contour>
        <pt x="62" y="710" on="1"/>
        <pt x="20" y="710" on="1"/>
        <pt x="110" y="834" on="1"/>
        <pt x="173" y="834" on="1"/>
      </contour>
    </TTGlyph>
    <TTGlyph name="Adieresis" xMin="26" yMin="0" xMax="557" yMax="810">
      <contour>
        <pt x="169" y="766" on="1"/>
        <pt x="169" y="786" on="0"/>
        <pt x="192" y="810" on="0"/>
        <pt x="209" y="810" on="1"/>
        <pt x="226" y="810" on="0"/>
        <pt x="249" y="786" on="0"/>
        <pt x="249" y="766" on="1"/>
        <pt x="249" y="745" on="0"/>
        <pt x="226" y="722" on="0"/>
        <pt x="209" y="722" on="1"/>
        <pt x="192" y="722" on="0"/>
        <pt x="169" y="745" on="0"/>
      </contour>
      <contour>
        <pt x="339" y="766" on="1"/>
        <pt x="339" y="786" on="0"/>
        <pt x="362" y="810" on="0"/>
        <pt x="379" y="810" on="1"/>
        <pt x="396" y="810" on="0"/>
        <pt x="419" y="786" on="0"/>
        <pt x="419" y="766" on="1"/>
        <pt x="419" y="745" on="0"/>
        <pt x="396" y="722" on="0"/>
        <pt x="379" y="722" on="1"/>
        <pt x="362" y="722" on="0"/>
        <pt x="339" y="745" on="0"/>
      </contour>
      <contour>
        <pt x="267" y="630" on="1"/>
        <pt x="319" y="630" on="1"/>
        <pt x="557" y="0" on="1"/>
        <pt x="501" y="0" on="1"/>
        <pt x="432" y="186" on="1"/>
        <pt x="150" y="186" on="1"/>
        <pt x="81" y="0" on="1"/>
        <pt x="26" y="0" on="1"/>
      </contour>
      <contour>
        <pt x="166" y="228" on="1"/>
        <pt x="415" y="228" on="1"/>
        <pt x="336" y="444" on="1"/>
        <pt x="334" y="450" on="0"/>
        <pt x="324" y="480" on="0"/>
        <pt x="312" y="518" on="0"/>
        <pt x="299" y="560" on="0"/>
        <pt x="294" y="578" on="1"/>
        <pt x="292" y="578" on="1"/>
        <pt x="287" y="560" on="0"/>
        <pt x="274" y="520" on="0"/>
        <pt x="261" y="483" on="0"/>
        <pt x="250" y="453" on="0"/>
        <pt x="247" y="444" on="1"/>
      </contour>
    </TTGlyph>
    <TTGlyph name="Agrave" xMin="26" yMin="0" xMax="557" yMax="834">
      <contour>
        <pt x="171" y="834" on="1"/>
        <pt x="234" y="834" on="1"/>
        <pt x="324" y="710" on="1"/>
        <pt x="282" y="710" on="1"/>
      </contour>
      <contour>
        <pt x="267" y="630" on="1"/>
        <pt x="319" y="630" on="1"/>
        <pt x="557" y="0" on="1"/>
        <pt x="501" y="0" on="1"/>
        <pt x="432" y="186" on="1"/>
        <pt x="150" y="186" on="1"/>
        <pt x="81" y="0" on="1"/>
        <pt x="26" y="0" on="1"/>
      </contour>
      <contour>
        <pt x="166" y="228" on="1"/>
        <pt x="415" y="228" on="1"/>
        <pt x="336" y="444" on="1"/>
        <pt x="334" y="450" on="0"/>
        <pt x="324" y="480" on="0"/>
        <pt x="312" y="518" on="0"/>
        <pt x="299" y="560" on="0"/>
        <pt x="294" y="578" on="1"/>
        <pt x="292" y="578" on="1"/>
        <pt x="287" y="560" on="0"/>
        <pt x="274" y="520" on="0"/>
        <pt x="261" y="483" on="0"/>
        <pt x="250" y="453" on="0"/>
        <pt x="247" y="444" on="1"/>
      </contour>
    </TTGlyph>
    <TTGlyph name="Amacron" xMin="26" yMin="0" xMax="557" yMax="772">
      <contour>
        <pt x="417" y="772" on="1"/>
        <pt x="417" y="730" on="1"/>
        <pt x="172" y="730" on="1"/>
        <pt x="172" y="772" on="1"/>
      </contour>
      <contour>
        <pt x="267" y="630" on="1"/>
        <pt x="319" y="630" on="1"/>
        <pt x="557" y="0" on="1"/>
        <pt x="501" y="0" on="1"/>
        <pt x="432" y="186" on="1"/>
        <pt x="150" y="186" on="1"/>
        <pt x="81" y="0" on="1"/>
        <pt x="26" y="0" on="1"/>
      </contour>
      <contour>
        <pt x="166" y="228" on="1"/>
        <pt x="415" y="228" on="1"/>
        <pt x="336" y="444" on="1"/>
        <pt x="334" y="450" on="0"/>
        <pt x="324" y="480" on="0"/>
        <pt x="312" y="518" on="0"/>
        <pt x="299" y="560" on="0"/>
        <pt x="294" y="578" on="1"/>
        <pt x="292" y="578" on="1"/>
        <pt x="287" y="560" on="0"/>
        <pt x="274" y="520" on="0"/>
        <pt x="261" y="483" on="0"/>
        <pt x="250" y="453" on="0"/>
        <pt x="247" y="444" on="1"/>
      </contour>
    </TTGlyph>
    <TTGlyph name="Aogonek" xMin="26" yMin="-206" xMax="601" yMax="630">
      <contour>
        <pt x="267" y="630" on="1"/>
        <pt x="319" y="630" on="1"/>
        <pt x="557" y="0" on="1"/>
        <pt x="463" y="-45" on="0"/>
        <pt x="463" y="-106" on="1"/>
        <pt x="463" y="-135" on="0"/>
        <pt x="501" y="-166" on="0"/>
        <pt x="536" y="-166" on="1"/>
        <pt x="553" y="-166" on="0"/>
        <pt x="582" y="-159" on="0"/>
        <pt x="592" y="-154" on="1"/>
        <pt x="601" y="-185" on="1"/>
        <pt x="566" y="-206" on="0"/>
        <pt x="521" y="-206" on="1"/>
        <pt x="475" y="-206" on="0"/>
        <pt x="414" y="-156" on="0"/>
        <pt x="414" y="-109" on="1"/>
        <pt x="414" y="-71" on="0"/>
        <pt x="467" y="-14" on="0"/>
        <pt x="501" y="0" on="1"/>
        <pt x="432" y="186" on="1"/>
        <pt x="150" y="186" on="1"/>
        <pt x="81" y="0" on="1"/>
        <pt x="26" y="0" on="1"/>
      </contour>
      <contour>
        <pt x="166" y="228" on="1"/>
        <pt x="415" y="228" on="1"/>
        <pt x="336" y="444" on="1"/>
        <pt x="334" y="450" on="0"/>
        <pt x="324" y="480" on="0"/>
        <pt x="312" y="518" on="0"/>
        <pt x="299" y="560" on="0"/>
        <pt x="294" y="578" on="1"/>
        <pt x="292" y="578" on="1"/>
        <pt x="287" y="560" on="0"/>
        <pt x="274" y="520" on="0"/>
        <pt x="261" y="483" on="0"/>
        <pt x="250" y="453" on="0"/>
        <pt x="247" y="444" on="1"/>
      </contour>
    </TTGlyph>
    <TTGlyph name="Aring" xMin="26" yMin="0" xMax="557" yMax="843">
      <contour>
        <pt x="201" y="760" on="1"/>
        <pt x="201" y="802" on="0"/>
        <pt x="256" y="843" on="0"/>
        <pt x="294" y="843" on="1"/>
        <pt x="332" y="843" on="0"/>
        <pt x="387" y="802" on="0"/>
        <pt x="387" y="760" on="1"/>
        <pt x="387" y="718" on="0"/>
        <pt x="331" y="677" on="0"/>
        <pt x="294" y="677" on="1"/>
        <pt x="256" y="677" on="0"/>
        <pt x="201" y="720" on="0"/>
      </contour>
      <contour>
        <pt x="241" y="760" on="1"/>
        <pt x="241" y="734" on="0"/>
        <pt x="269" y="705" on="0"/>
        <pt x="294" y="705" on="1"/>
        <pt x="319" y="705" on="0"/>
        <pt x="347" y="734" on="0"/>
        <pt x="347" y="760" on="1"/>
        <pt x="347" y="786" on="0"/>
        <pt x="318" y="815" on="0"/>
        <pt x="294" y="815" on="1"/>
        <pt x="270" y="815" on="0"/>
        <pt x="241" y="786" on="0"/>
      </contour>
      <contour>
        <pt x="267" y="630" on="1"/>
        <pt x="319" y="630" on="1"/>
        <pt x="557" y="0" on="1"/>
        <pt x="501" y="0" on="1"/>
        <pt x="432" y="186" on="1"/>
        <pt x="150" y="186" on="1"/>
        <pt x="81" y="0" on="1"/>
        <pt x="26" y="0" on="1"/>
      </contour>
      <contour>
        <pt x="166" y="228" on="1"/>
        <pt x="415" y="228" on="1"/>
        <pt x="336" y="444" on="1"/>
        <pt x="334" y="450" on="0"/>
        <pt x="324" y="480" on="0"/>
        <pt x="312" y="518" on="0"/>
        <pt x="299" y="560" on="0"/>
        <pt x="294" y="578" on="1"/>
        <pt x="292" y="578" on="1"/>
        <pt x="287" y="560" on="0"/>
        <pt x="274" y="520" on="0"/>
        <pt x="261" y="483" on="0"/>
        <pt x="250" y="453" on="0"/>
        <pt x="247" y="444" on="1"/>
      </contour>
    </TTGlyph>
    <TTGlyph name="Asmall" xMin="1" yMin="0" xMax="409" yMax="470">
      <contour>
        <pt x="182" y="470" on="1"/>
        <pt x="231" y="470" on="1"/>
        <pt x="409" y="0" on="1"/>
        <pt x="357" y="0" on="1"/>
        <pt x="307" y="132" on="1"/>
        <pt x="101" y="132" on="1"/>
        <pt x="52" y="0" on="1"/>
        <pt x="1" y="0" on="1"/>
      </contour>
      <contour>
        <pt x="207" y="411" on="1"/>
        <pt x="205" y="411" on="1"/>
        <pt x="197" y="388" on="0"/>
        <pt x="182" y="347" on="0"/>
        <pt x="177" y="333" on="1"/>
        <pt x="116" y="171" on="1"/>
        <pt x="293" y="171" on="1"/>
        <pt x="233" y="333" on="1"/>
        <pt x="229" y="343" on="0"/>
        <pt x="213" y="390" on="0"/>
      </contour>
    </TTGlyph>
    <TTGlyph name="Atilde" xMin="26" yMin="0" xMax="557" yMax="818">
      <contour>
        <pt x="148" y="715" on="1"/>
        <pt x="148" y="757" on="0"/>
        <pt x="189" y="815" on="0"/>
        <pt x="235" y="815" on="1"/>
        <pt x="257" y="815" on="0"/>
        <pt x="289" y="798" on="0"/>
        <pt x="317" y="778" on="0"/>
        <pt x="345" y="761" on="0"/>
        <pt x="362" y="761" on="1"/>
        <pt x="388" y="761" on="0"/>
        <pt x="409" y="793" on="0"/>
        <pt x="411" y="818" on="1"/>
        <pt x="451" y="818" on="1"/>
        <pt x="451" y="799" on="0"/>
        <pt x="440" y="764" on="0"/>
        <pt x="419" y="737" on="0"/>
        <pt x="388" y="721" on="0"/>
        <pt x="367" y="721" on="1"/>
        <pt x="344" y="721" on="0"/>
        <pt x="308" y="738" on="0"/>
        <pt x="278" y="758" on="0"/>
        <pt x="251" y="775" on="0"/>
        <pt x="238" y="775" on="1"/>
        <pt x="212" y="775" on="0"/>
        <pt x="190" y="739" on="0"/>
        <pt x="188" y="715" on="1"/>
      </contour>
      <contour>
        <pt x="267" y="630" on="1"/>
        <pt x="319" y="630" on="1"/>
        <pt x="557" y="0" on="1"/>
        <pt x="501" y="0" on="1"/>
        <pt x="432" y="186" on="1"/>
        <pt x="150" y="186" on="1"/>
        <pt x="81" y="0" on="1"/>
        <pt x="26" y="0" on="1"/>
      </contour>
      <contour>
        <pt x="166" y="228" on="1"/>
        <pt x="415" y="228" on="1"/>
        <pt x="336" y="444" on="1"/>
        <pt x="334" y="450" on="0"/>
        <pt x="324" y="480" on="0"/>
        <pt x="312" y="518" on="0"/>
        <pt x="299" y="560" on="0"/>
        <pt x="294" y="578" on="1"/>
        <pt x="292" y="578" on="1"/>
        <pt x="287" y="560" on="0"/>
        <pt x="274" y="520" on="0"/>
        <pt x="261" y="483" on="0"/>
        <pt x="250" y="453" on="0"/>
        <pt x="247" y="444" on="1"/>
      </contour>
    </TTGlyph>
    <TTGlyph name="B" xMin="80" yMin="0" xMax="447" yMax="630">
      <contour>
        <pt x="230" y="630" on="1"/>
        <pt x="324" y="630" on="0"/>
        <pt x="428" y="550" on="0"/>
        <pt x="428" y="472" on="1"/>
        <pt x="428" y="414" on="0"/>
        <pt x="363" y="348" on="0"/>
        <pt x="314" y="335" on="1"/>
        <pt x="342" y="330" on="0"/>
        <pt x="390" y="305" on="0"/>
        <pt x="426" y="265" on="0"/>
        <pt x="447" y="210" on="0"/>
        <pt x="447" y="176" on="1"/>
        <pt x="447" y="137" on="0"/>
        <pt x="415" y="72" on="0"/>
        <pt x="355" y="26" on="0"/>
        <pt x="270" y="0" on="0"/>
        <pt x="218" y="0" on="1"/>
        <pt x="80" y="0" on="1"/>
        <pt x="80" y="630" on="1"/>
      </contour>
      <contour>
        <pt x="132" y="354" on="1"/>
        <pt x="210" y="354" on="1"/>
        <pt x="242" y="354" on="0"/>
        <pt x="302" y="365" on="0"/>
        <pt x="347" y="392" on="0"/>
        <pt x="374" y="436" on="0"/>
        <pt x="374" y="469" on="1"/>
        <pt x="374" y="533" on="0"/>
        <pt x="288" y="588" on="0"/>
        <pt x="216" y="588" on="1"/>
        <pt x="132" y="588" on="1"/>
      </contour>
      <contour>
        <pt x="132" y="42" on="1"/>
        <pt x="208" y="42" on="1"/>
        <pt x="245" y="42" on="0"/>
        <pt x="312" y="57" on="0"/>
        <pt x="362" y="92" on="0"/>
        <pt x="391" y="146" on="0"/>
        <pt x="391" y="185" on="1"/>
        <pt x="391" y="222" on="0"/>
        <pt x="362" y="271" on="0"/>
        <pt x="312" y="300" on="0"/>
        <pt x="247" y="312" on="0"/>
        <pt x="211" y="312" on="1"/>
        <pt x="132" y="312" on="1"/>
      </contour>
    </TTGlyph>
    <TTGlyph name="Breve" xMin="15" yMin="710" xMax="284" yMax="834">
      <contour>
        <pt x="63" y="834" on="1"/>
        <pt x="64" y="796" on="0"/>
        <pt x="104" y="750" on="0"/>
        <pt x="151" y="750" on="1"/>
        <pt x="190" y="750" on="0"/>
        <pt x="235" y="794" on="0"/>
        <pt x="236" y="834" on="1"/>
        <pt x="284" y="834" on="1"/>
        <pt x="284" y="780" on="0"/>
        <pt x="216" y="710" on="0"/>
        <pt x="151" y="710" on="1"/>
        <pt x="115" y="710" on="0"/>
        <pt x="64" y="730" on="0"/>
        <pt x="31" y="765" on="0"/>
        <pt x="15" y="810" on="0"/>
        <pt x="15" y="834" on="1"/>
      </contour>
    </TTGlyph>
    <TTGlyph name="Bsmall" xMin="68" yMin="0" xMax="385" yMax="470">
      <contour>
        <pt x="221" y="470" on="1"/>
        <pt x="290" y="470" on="0"/>
        <pt x="366" y="406" on="0"/>
        <pt x="366" y="354" on="1"/>
        <pt x="366" y="316" on="0"/>
        <pt x="320" y="263" on="0"/>
        <pt x="284" y="251" on="1"/>
        <pt x="330" y="242" on="0"/>
        <pt x="385" y="185" on="0"/>
        <pt x="385" y="137" on="1"/>
        <pt x="385" y="109" on="0"/>
        <pt x="364" y="59" on="0"/>
        <pt x="323" y="22" on="0"/>
        <pt x="261" y="0" on="0"/>
        <pt x="220" y="0" on="1"/>
        <pt x="68" y="0" on="1"/>
        <pt x="68" y="470" on="1"/>
      </contour>
      <contour>
        <pt x="116" y="264" on="1"/>
        <pt x="208" y="264" on="1"/>
        <pt x="262" y="264" on="0"/>
        <pt x="316" y="311" on="0"/>
        <pt x="316" y="349" on="1"/>
        <pt x="316" y="389" on="0"/>
        <pt x="262" y="432" on="0"/>
        <pt x="200" y="432" on="1"/>
        <pt x="116" y="432" on="1"/>
      </contour>
      <contour>
        <pt x="116" y="38" on="1"/>
        <pt x="199" y="38" on="1"/>
        <pt x="262" y="38" on="0"/>
        <pt x="335" y="84" on="0"/>
        <pt x="335" y="140" on="1"/>
        <pt x="335" y="156" on="0"/>
        <pt x="322" y="188" on="0"/>
        <pt x="294" y="212" on="0"/>
        <pt x="251" y="227" on="0"/>
        <pt x="220" y="227" on="1"/>
        <pt x="116" y="227" on="1"/>
      </contour>
    </TTGlyph>
    <TTGlyph name="C" xMin="35" yMin="-8" xMax="496" yMax="638">
      <contour>
        <pt x="341" y="34" on="1"/>
        <pt x="389" y="34" on="0"/>
        <pt x="455" y="52" on="0"/>
        <pt x="481" y="66" on="1"/>
        <pt x="493" y="24" on="1"/>
        <pt x="463" y="9" on="0"/>
        <pt x="388" y="-8" on="0"/>
        <pt x="334" y="-8" on="1"/>
        <pt x="272" y="-8" on="0"/>
        <pt x="163" y="34" on="0"/>
        <pt x="82" y="115" on="0"/>
        <pt x="35" y="235" on="0"/>
        <pt x="35" y="314" on="1"/>
        <pt x="35" y="391" on="0"/>
        <pt x="80" y="512" on="0"/>
        <pt x="159" y="595" on="0"/>
        <pt x="268" y="638" on="0"/>
        <pt x="332" y="638" on="1"/>
        <pt x="390" y="638" on="0"/>
        <pt x="464" y="619" on="0"/>
        <pt x="496" y="602" on="1"/>
        <pt x="484" y="563" on="1"/>
        <pt x="451" y="580" on="0"/>
        <pt x="384" y="596" on="0"/>
        <pt x="343" y="596" on="1"/>
        <pt x="293" y="596" on="0"/>
        <pt x="202" y="564" on="0"/>
        <pt x="131" y="495" on="0"/>
        <pt x="89" y="388" on="0"/>
        <pt x="89" y="313" on="1"/>
        <pt x="89" y="235" on="0"/>
        <pt x="134" y="128" on="0"/>
        <pt x="206" y="63" on="0"/>
        <pt x="296" y="34" on="0"/>
      </contour>
    </TTGlyph>
    <TTGlyph name="Cacute" xMin="35" yMin="-8" xMax="496" yMax="834">
      <contour>
        <pt x="341" y="34" on="1"/>
        <pt x="389" y="34" on="0"/>
        <pt x="455" y="52" on="0"/>
        <pt x="481" y="66" on="1"/>
        <pt x="493" y="24" on="1"/>
        <pt x="463" y="9" on="0"/>
        <pt x="388" y="-8" on="0"/>
        <pt x="334" y="-8" on="1"/>
        <pt x="272" y="-8" on="0"/>
        <pt x="163" y="34" on="0"/>
        <pt x="82" y="115" on="0"/>
        <pt x="35" y="235" on="0"/>
        <pt x="35" y="314" on="1"/>
        <pt x="35" y="391" on="0"/>
        <pt x="80" y="512" on="0"/>
        <pt x="159" y="595" on="0"/>
        <pt x="268" y="638" on="0"/>
        <pt x="332" y="638" on="1"/>
        <pt x="390" y="638" on="0"/>
        <pt x="464" y="619" on="0"/>
        <pt x="496" y="602" on="1"/>
        <pt x="484" y="563" on="1"/>
        <pt x="451" y="580" on="0"/>
        <pt x="384" y="596" on="0"/>
        <pt x="343" y="596" on="1"/>
        <pt x="293" y="596" on="0"/>
        <pt x="202" y="564" on="0"/>
        <pt x="131" y="495" on="0"/>
        <pt x="89" y="388" on="0"/>
        <pt x="89" y="313" on="1"/>
        <pt x="89" y="235" on="0"/>
        <pt x="134" y="128" on="0"/>
        <pt x="206" y="63" on="0"/>
        <pt x="296" y="34" on="0"/>
      </contour>
      <contour>
        <pt x="291" y="710" on="1"/>
        <pt x="249" y="710" on="1"/>
        <pt x="339" y="834" on="1"/>
        <pt x="402" y="834" on="1"/>
      </contour>
    </TTGlyph>
    <TTGlyph name="Caron" xMin="20" yMin="710" xMax="316" yMax="844">
      <contour>
        <pt x="20" y="844" on="1"/>
        <pt x="76" y="844" on="1"/>
        <pt x="166" y="745" on="1"/>
        <pt x="256" y="844" on="1"/>
        <pt x="316" y="844" on="1"/>
        <pt x="191" y="710" on="1"/>
        <pt x="142" y="710" on="1"/>
      </contour>
    </TTGlyph>
    <TTGlyph name="Ccaron" xMin="35" yMin="-8" xMax="496" yMax="845">
      <contour>
        <pt x="341" y="34" on="1"/>
        <pt x="389" y="34" on="0"/>
        <pt x="455" y="52" on="0"/>
        <pt x="481" y="66" on="1"/>
        <pt x="493" y="24" on="1"/>
        <pt x="463" y="9" on="0"/>
        <pt x="388" y="-8" on="0"/>
        <pt x="334" y="-8" on="1"/>
        <pt x="272" y="-8" on="0"/>
        <pt x="163" y="34" on="0"/>
        <pt x="82" y="115" on="0"/>
        <pt x="35" y="235" on="0"/>
        <pt x="35" y="314" on="1"/>
        <pt x="35" y="391" on="0"/>
        <pt x="80" y="512" on="0"/>
        <pt x="159" y="595" on="0"/>
        <pt x="268" y="638" on="0"/>
        <pt x="332" y="638" on="1"/>
        <pt x="390" y="638" on="0"/>
        <pt x="464" y="619" on="0"/>
        <pt x="496" y="602" on="1"/>
        <pt x="484" y="563" on="1"/>
        <pt x="451" y="580" on="0"/>
        <pt x="384" y="596" on="0"/>
        <pt x="343" y="596" on="1"/>
        <pt x="293" y="596" on="0"/>
        <pt x="202" y="564" on="0"/>
        <pt x="131" y="495" on="0"/>
        <pt x="89" y="388" on="0"/>
        <pt x="89" y="313" on="1"/>
        <pt x="89" y="235" on="0"/>
        <pt x="134" y="128" on="0"/>
        <pt x="206" y="63" on="0"/>
        <pt x="296" y="34" on="0"/>
      </contour>
      <contour>
        <pt x="186" y="845" on="1"/>
        <pt x="242" y="845" on="1"/>
        <pt x="332" y="746" on="1"/>
        <pt x="422" y="845" on="1"/>
        <pt x="482" y="845" on="1"/>
        <pt x="357" y="711" on="1"/>
        <pt x="308" y="711" on="1"/>
      </contour>
    </TTGlyph>
    <TTGlyph name="Ccedilla" xMin="35" yMin="-214" xMax="496" yMax="638">
      <contour>
        <pt x="341" y="34" on="1"/>
        <pt x="389" y="34" on="0"/>
        <pt x="455" y="52" on="0"/>
        <pt x="481" y="66" on="1"/>
        <pt x="493" y="24" on="1"/>
        <pt x="464" y="10" on="0"/>
        <pt x="394" y="-7" on="0"/>
        <pt x="344" y="-8" on="1"/>
        <pt x="327" y="-47" on="1"/>
        <pt x="355" y="-47" on="0"/>
        <pt x="396" y="-60" on="0"/>
        <pt x="422" y="-82" on="0"/>
        <pt x="435" y="-110" on="0"/>
        <pt x="435" y="-125" on="1"/>
        <pt x="435" y="-167" on="0"/>
        <pt x="366" y="-214" on="0"/>
        <pt x="314" y="-214" on="1"/>
        <pt x="291" y="-214" on="0"/>
        <pt x="252" y="-207" on="0"/>
        <pt x="240" y="-202" on="1"/>
        <pt x="249" y="-170" on="1"/>
        <pt x="262" y="-174" on="0"/>
        <pt x="293" y="-179" on="0"/>
        <pt x="307" y="-179" on="1"/>
        <pt x="347" y="-179" on="0"/>
        <pt x="385" y="-150" on="0"/>
        <pt x="385" y="-127" on="1"/>
        <pt x="385" y="-117" on="0"/>
        <pt x="377" y="-99" on="0"/>
        <pt x="353" y="-86" on="0"/>
        <pt x="309" y="-78" on="0"/>
        <pt x="274" y="-78" on="1"/>
        <pt x="307" y="-7" on="1"/>
        <pt x="250" y="-3" on="0"/>
        <pt x="150" y="42" on="0"/>
        <pt x="77" y="123" on="0"/>
        <pt x="35" y="239" on="0"/>
        <pt x="35" y="314" on="1"/>
        <pt x="35" y="391" on="0"/>
        <pt x="80" y="512" on="0"/>
        <pt x="159" y="595" on="0"/>
        <pt x="268" y="638" on="0"/>
        <pt x="332" y="638" on="1"/>
        <pt x="390" y="638" on="0"/>
        <pt x="464" y="619" on="0"/>
        <pt x="496" y="602" on="1"/>
        <pt x="484" y="563" on="1"/>
        <pt x="451" y="580" on="0"/>
        <pt x="384" y="596" on="0"/>
        <pt x="343" y="596" on="1"/>
        <pt x="293" y="596" on="0"/>
        <pt x="202" y="564" on="0"/>
        <pt x="131" y="495" on="0"/>
        <pt x="89" y="388" on="0"/>
        <pt x="89" y="313" on="1"/>
        <pt x="89" y="235" on="0"/>
        <pt x="134" y="128" on="0"/>
        <pt x="206" y="63" on="0"/>
        <pt x="296" y="34" on="0"/>
      </contour>
    </TTGlyph>
    <TTGlyph name="Ccircumflex" xMin="35" yMin="-8" xMax="496" yMax="844">
      <contour>
        <pt x="341" y="34" on="1"/>
        <pt x="389" y="34" on="0"/>
        <pt x="455" y="52" on="0"/>
        <pt x="481" y="66" on="1"/>
        <pt x="493" y="24" on="1"/>
        <pt x="463" y="9" on="0"/>
        <pt x="388" y="-8" on="0"/>
        <pt x="334" y="-8" on="1"/>
        <pt x="272" y="-8" on="0"/>
        <pt x="163" y="34" on="0"/>
        <pt x="82" y="115" on="0"/>
        <pt x="35" y="235" on="0"/>
        <pt x="35" y="314" on="1"/>
        <pt x="35" y="391" on="0"/>
        <pt x="80" y="512" on="0"/>
        <pt x="159" y="595" on="0"/>
        <pt x="268" y="638" on="0"/>
        <pt x="332" y="638" on="1"/>
        <pt x="390" y="638" on="0"/>
        <pt x="464" y="619" on="0"/>
        <pt x="496" y="602" on="1"/>
        <pt x="484" y="563" on="1"/>
        <pt x="451" y="580" on="0"/>
        <pt x="384" y="596" on="0"/>
        <pt x="343" y="596" on="1"/>
        <pt x="293" y="596" on="0"/>
        <pt x="202" y="564" on="0"/>
        <pt x="131" y="495" on="0"/>
        <pt x="89" y="388" on="0"/>
        <pt x="89" y="313" on="1"/>
        <pt x="89" y="235" on="0"/>
        <pt x="134" y="128" on="0"/>
        <pt x="206" y="63" on="0"/>
        <pt x="296" y="34" on="0"/>
      </contour>
      <contour>
        <pt x="309" y="844" on="1"/>
        <pt x="358" y="844" on="1"/>
        <pt x="483" y="710" on="1"/>
        <pt x="423" y="710" on="1"/>
        <pt x="333" y="809" on="1"/>
        <pt x="243" y="710" on="1"/>
        <pt x="187" y="710" on="1"/>
      </contour>
    </TTGlyph>
    <TTGlyph name="Cdotaccent" xMin="35" yMin="-8" xMax="496" yMax="822">
      <contour>
        <pt x="341" y="34" on="1"/>
        <pt x="389" y="34" on="0"/>
        <pt x="455" y="52" on="0"/>
        <pt x="481" y="66" on="1"/>
        <pt x="493" y="24" on="1"/>
        <pt x="463" y="9" on="0"/>
        <pt x="388" y="-8" on="0"/>
        <pt x="334" y="-8" on="1"/>
        <pt x="272" y="-8" on="0"/>
        <pt x="163" y="34" on="0"/>
        <pt x="82" y="115" on="0"/>
        <pt x="35" y="235" on="0"/>
        <pt x="35" y="314" on="1"/>
        <pt x="35" y="391" on="0"/>
        <pt x="80" y="512" on="0"/>
        <pt x="159" y="595" on="0"/>
        <pt x="268" y="638" on="0"/>
        <pt x="332" y="638" on="1"/>
        <pt x="390" y="638" on="0"/>
        <pt x="464" y="619" on="0"/>
        <pt x="496" y="602" on="1"/>
        <pt x="484" y="563" on="1"/>
        <pt x="451" y="580" on="0"/>
        <pt x="384" y="596" on="0"/>
        <pt x="343" y="596" on="1"/>
        <pt x="293" y="596" on="0"/>
        <pt x="202" y="564" on="0"/>
        <pt x="131" y="495" on="0"/>
        <pt x="89" y="388" on="0"/>
        <pt x="89" y="313" on="1"/>
        <pt x="89" y="235" on="0"/>
        <pt x="134" y="128" on="0"/>
        <pt x="206" y="63" on="0"/>
        <pt x="296" y="34" on="0"/>
      </contour>
      <contour>
        <pt x="292" y="778" on="1"/>
        <pt x="292" y="798" on="0"/>
        <pt x="315" y="822" on="0"/>
        <pt x="332" y="822" on="1"/>
        <pt x="349" y="822" on="0"/>
        <pt x="372" y="798" on="0"/>
        <pt x="372" y="778" on="1"/>
        <pt x="372" y="757" on="0"/>
        <pt x="349" y="734" on="0"/>
        <pt x="332" y="734" on="1"/>
        <pt x="315" y="734" on="0"/>
        <pt x="292" y="757" on="0"/>
      </contour>
    </TTGlyph>
    <TTGlyph name="Cedilla" xMin="41" yMin="-214" xMax="236" yMax="0">
      <contour>
        <pt x="112" y="0" on="1"/>
        <pt x="149" y="0" on="1"/>
        <pt x="128" y="-47" on="1"/>
        <pt x="156" y="-47" on="0"/>
        <pt x="197" y="-60" on="0"/>
        <pt x="223" y="-82" on="0"/>
        <pt x="236" y="-110" on="0"/>
        <pt x="236" y="-125" on="1"/>
        <pt x="236" y="-167" on="0"/>
        <pt x="167" y="-214" on="0"/>
        <pt x="115" y="-214" on="1"/>
        <pt x="92" y="-214" on="0"/>
        <pt x="53" y="-207" on="0"/>
        <pt x="41" y="-202" on="1"/>
        <pt x="50" y="-170" on="1"/>
        <pt x="63" y="-174" on="0"/>
        <pt x="94" y="-179" on="0"/>
        <pt x="108" y="-179" on="1"/>
        <pt x="148" y="-179" on="0"/>
        <pt x="186" y="-150" on="0"/>
        <pt x="186" y="-127" on="1"/>
        <pt x="186" y="-117" on="0"/>
        <pt x="178" y="-99" on="0"/>
        <pt x="154" y="-86" on="0"/>
        <pt x="110" y="-78" on="0"/>
        <pt x="75" y="-78" on="1"/>
      </contour>
    </TTGlyph>
    <TTGlyph name="Circumflex" xMin="20" yMin="710" xMax="316" yMax="844">
      <contour>
        <pt x="142" y="844" on="1"/>
        <pt x="191" y="844" on="1"/>
        <pt x="316" y="710" on="1"/>
        <pt x="256" y="710" on="1"/>
        <pt x="166" y="809" on="1"/>
        <pt x="76" y="710" on="1"/>
        <pt x="20" y="710" on="1"/>
      </contour>
    </TTGlyph>
    <TTGlyph name="Csmall" xMin="38" yMin="-8" xMax="392" yMax="476">
      <contour>
        <pt x="274" y="28" on="1"/>
        <pt x="306" y="28" on="0"/>
        <pt x="358" y="42" on="0"/>
        <pt x="381" y="53" on="1"/>
        <pt x="392" y="19" on="1"/>
        <pt x="365" y="5" on="0"/>
        <pt x="306" y="-8" on="0"/>
        <pt x="268" y="-8" on="1"/>
        <pt x="221" y="-8" on="0"/>
        <pt x="138" y="22" on="0"/>
        <pt x="75" y="82" on="0"/>
        <pt x="38" y="173" on="0"/>
        <pt x="38" y="234" on="1"/>
        <pt x="38" y="290" on="0"/>
        <pt x="72" y="380" on="0"/>
        <pt x="134" y="443" on="0"/>
        <pt x="217" y="476" on="0"/>
        <pt x="267" y="476" on="1"/>
        <pt x="300" y="476" on="0"/>
        <pt x="362" y="464" on="0"/>
        <pt x="390" y="451" on="1"/>
        <pt x="378" y="414" on="1"/>
        <pt x="354" y="426" on="0"/>
        <pt x="299" y="436" on="0"/>
        <pt x="273" y="436" on="1"/>
        <pt x="232" y="436" on="0"/>
        <pt x="164" y="408" on="0"/>
        <pt x="115" y="356" on="0"/>
        <pt x="88" y="282" on="0"/>
        <pt x="88" y="237" on="1"/>
        <pt x="88" y="177" on="0"/>
        <pt x="121" y="97" on="0"/>
        <pt x="174" y="49" on="0"/>
        <pt x="240" y="28" on="0"/>
      </contour>
    </TTGlyph>
    <TTGlyph name="D" xMin="80" yMin="0" xMax="556" yMax="630">
      <contour>
        <pt x="265" y="630" on="1"/>
        <pt x="327" y="630" on="0"/>
        <pt x="434" y="592" on="0"/>
        <pt x="512" y="517" on="0"/>
        <pt x="556" y="404" on="0"/>
        <pt x="556" y="329" on="1"/>
        <pt x="556" y="238" on="0"/>
        <pt x="504" y="112" on="0"/>
        <pt x="414" y="34" on="0"/>
        <pt x="296" y="0" on="0"/>
        <pt x="230" y="0" on="1"/>
        <pt x="80" y="0" on="1"/>
        <pt x="80" y="630" on="1"/>
      </contour>
      <contour>
        <pt x="132" y="42" on="1"/>
        <pt x="221" y="42" on="1"/>
        <pt x="273" y="42" on="0"/>
        <pt x="373" y="67" on="0"/>
        <pt x="453" y="132" on="0"/>
        <pt x="502" y="243" on="0"/>
        <pt x="502" y="329" on="1"/>
        <pt x="502" y="390" on="0"/>
        <pt x="465" y="486" on="0"/>
        <pt x="397" y="553" on="0"/>
        <pt x="304" y="588" on="0"/>
        <pt x="247" y="588" on="1"/>
        <pt x="132" y="588" on="1"/>
      </contour>
    </TTGlyph>
    <TTGlyph name="Dcaron" xMin="80" yMin="0" xMax="556" yMax="844">
      <contour>
        <pt x="265" y="630" on="1"/>
        <pt x="327" y="630" on="0"/>
        <pt x="434" y="592" on="0"/>
        <pt x="512" y="517" on="0"/>
        <pt x="556" y="404" on="0"/>
        <pt x="556" y="329" on="1"/>
        <pt x="556" y="238" on="0"/>
        <pt x="504" y="112" on="0"/>
        <pt x="414" y="34" on="0"/>
        <pt x="296" y="0" on="0"/>
        <pt x="230" y="0" on="1"/>
        <pt x="80" y="0" on="1"/>
        <pt x="80" y="630" on="1"/>
      </contour>
      <contour>
        <pt x="132" y="42" on="1"/>
        <pt x="221" y="42" on="1"/>
        <pt x="273" y="42" on="0"/>
        <pt x="373" y="67" on="0"/>
        <pt x="453" y="132" on="0"/>
        <pt x="502" y="243" on="0"/>
        <pt x="502" y="329" on="1"/>
        <pt x="502" y="390" on="0"/>
        <pt x="465" y="486" on="0"/>
        <pt x="397" y="553" on="0"/>
        <pt x="304" y="588" on="0"/>
        <pt x="247" y="588" on="1"/>
        <pt x="132" y="588" on="1"/>
      </contour>
      <contour>
        <pt x="111" y="844" on="1"/>
        <pt x="167" y="844" on="1"/>
        <pt x="257" y="745" on="1"/>
        <pt x="347" y="844" on="1"/>
        <pt x="407" y="844" on="1"/>
        <pt x="282" y="710" on="1"/>
        <pt x="233" y="710" on="1"/>
      </contour>
    </TTGlyph>
    <TTGlyph name="Dcroat" xMin="30" yMin="0" xMax="586" yMax="630">
      <contour>
        <pt x="295" y="630" on="1"/>
        <pt x="357" y="630" on="0"/>
        <pt x="464" y="592" on="0"/>
        <pt x="542" y="517" on="0"/>
        <pt x="586" y="404" on="0"/>
        <pt x="586" y="329" on="1"/>
        <pt x="586" y="238" on="0"/>
        <pt x="534" y="112" on="0"/>
        <pt x="444" y="34" on="0"/>
        <pt x="326" y="0" on="0"/>
        <pt x="260" y="0" on="1"/>
        <pt x="110" y="0" on="1"/>
        <pt x="110" y="308" on="1"/>
        <pt x="30" y="308" on="1"/>
        <pt x="30" y="350" on="1"/>
        <pt x="110" y="350" on="1"/>
        <pt x="110" y="630" on="1"/>
      </contour>
      <contour>
        <pt x="330" y="350" on="1"/>
        <pt x="330" y="308" on="1"/>
        <pt x="162" y="308" on="1"/>
        <pt x="162" y="42" on="1"/>
        <pt x="251" y="42" on="1"/>
        <pt x="303" y="42" on="0"/>
        <pt x="403" y="67" on="0"/>
        <pt x="483" y="132" on="0"/>
        <pt x="532" y="243" on="0"/>
        <pt x="532" y="329" on="1"/>
        <pt x="532" y="390" on="0"/>
        <pt x="495" y="486" on="0"/>
        <pt x="427" y="553" on="0"/>
        <pt x="334" y="588" on="0"/>
        <pt x="277" y="588" on="1"/>
        <pt x="162" y="588" on="1"/>
        <pt x="162" y="350" on="1"/>
      </contour>
    </TTGlyph>
    <TTGlyph name="Dieresis" xMin="30" yMin="722" xMax="280" yMax="810">
      <contour>
        <pt x="30" y="766" on="1"/>
        <pt x="30" y="786" on="0"/>
        <pt x="53" y="810" on="0"/>
        <pt x="70" y="810" on="1"/>
        <pt x="87" y="810" on="0"/>
        <pt x="110" y="786" on="0"/>
        <pt x="110" y="766" on="1"/>
        <pt x="110" y="745" on="0"/>
        <pt x="87" y="722" on="0"/>
        <pt x="70" y="722" on="1"/>
        <pt x="53" y="722" on="0"/>
        <pt x="30" y="745" on="0"/>
      </contour>
      <contour>
        <pt x="200" y="766" on="1"/>
        <pt x="200" y="786" on="0"/>
        <pt x="223" y="810" on="0"/>
        <pt x="240" y="810" on="1"/>
        <pt x="257" y="810" on="0"/>
        <pt x="280" y="786" on="0"/>
        <pt x="280" y="766" on="1"/>
        <pt x="280" y="745" on="0"/>
        <pt x="257" y="722" on="0"/>
        <pt x="240" y="722" on="1"/>
        <pt x="223" y="722" on="0"/>
        <pt x="200" y="745" on="0"/>
      </contour>
    </TTGlyph>
    <TTGlyph name="DieresisAcute" xMin="30" yMin="710" xMax="370" yMax="844">
      <contour>
        <pt x="30" y="775" on="1"/>
        <pt x="30" y="795" on="0"/>
        <pt x="53" y="819" on="0"/>
        <pt x="70" y="819" on="1"/>
        <pt x="87" y="819" on="0"/>
        <pt x="110" y="795" on="0"/>
        <pt x="110" y="775" on="1"/>
        <pt x="110" y="754" on="0"/>
        <pt x="87" y="731" on="0"/>
        <pt x="70" y="731" on="1"/>
        <pt x="53" y="731" on="0"/>
        <pt x="30" y="754" on="0"/>
      </contour>
      <contour>
        <pt x="290" y="775" on="1"/>
        <pt x="290" y="795" on="0"/>
        <pt x="313" y="819" on="0"/>
        <pt x="330" y="819" on="1"/>
        <pt x="347" y="819" on="0"/>
        <pt x="370" y="795" on="0"/>
        <pt x="370" y="775" on="1"/>
        <pt x="370" y="754" on="0"/>
        <pt x="346" y="731" on="0"/>
        <pt x="330" y="731" on="1"/>
        <pt x="313" y="731" on="0"/>
        <pt x="290" y="754" on="0"/>
      </contour>
      <contour>
        <pt x="173" y="710" on="1"/>
        <pt x="131" y="710" on="1"/>
        <pt x="211" y="844" on="1"/>
        <pt x="274" y="844" on="1"/>
      </contour>
    </TTGlyph>
    <TTGlyph name="DieresisGrave" xMin="30" yMin="710" xMax="370" yMax="844">
      <contour>
        <pt x="370" y="775" on="1"/>
        <pt x="370" y="795" on="0"/>
        <pt x="347" y="819" on="0"/>
        <pt x="330" y="819" on="1"/>
        <pt x="313" y="819" on="0"/>
        <pt x="290" y="795" on="0"/>
        <pt x="290" y="775" on="1"/>
        <pt x="290" y="754" on="0"/>
        <pt x="313" y="731" on="0"/>
        <pt x="330" y="731" on="1"/>
        <pt x="347" y="731" on="0"/>
        <pt x="370" y="754" on="0"/>
      </contour>
      <contour>
        <pt x="110" y="775" on="1"/>
        <pt x="110" y="795" on="0"/>
        <pt x="87" y="819" on="0"/>
        <pt x="70" y="819" on="1"/>
        <pt x="53" y="819" on="0"/>
        <pt x="30" y="795" on="0"/>
        <pt x="30" y="775" on="1"/>
        <pt x="30" y="754" on="0"/>
        <pt x="54" y="731" on="0"/>
        <pt x="70" y="731" on="1"/>
        <pt x="87" y="731" on="0"/>
        <pt x="110" y="754" on="0"/>
      </contour>
      <contour>
        <pt x="126" y="844" on="1"/>
        <pt x="189" y="844" on="1"/>
        <pt x="269" y="710" on="1"/>
        <pt x="227" y="710" on="1"/>
      </contour>
    </TTGlyph>
    <TTGlyph name="Dotaccent" xMin="29" yMin="723" xMax="109" yMax="811">
      <contour>
        <pt x="29" y="767" on="1"/>
        <pt x="29" y="787" on="0"/>
        <pt x="52" y="811" on="0"/>
        <pt x="69" y="811" on="1"/>
        <pt x="86" y="811" on="0"/>
        <pt x="109" y="787" on="0"/>
        <pt x="109" y="767" on="1"/>
        <pt x="109" y="746" on="0"/>
        <pt x="86" y="723" on="0"/>
        <pt x="69" y="723" on="1"/>
        <pt x="52" y="723" on="0"/>
        <pt x="29" y="746" on="0"/>
      </contour>
    </TTGlyph>
    <TTGlyph name="Dsmall" xMin="68" yMin="0" xMax="438" yMax="470">
      <contour>
        <pt x="191" y="470" on="1"/>
        <pt x="239" y="470" on="0"/>
        <pt x="328" y="446" on="0"/>
        <pt x="397" y="392" on="0"/>
        <pt x="438" y="307" on="0"/>
        <pt x="438" y="246" on="1"/>
        <pt x="438" y="182" on="0"/>
        <pt x="399" y="89" on="0"/>
        <pt x="331" y="29" on="0"/>
        <pt x="238" y="0" on="0"/>
        <pt x="185" y="0" on="1"/>
        <pt x="68" y="0" on="1"/>
        <pt x="68" y="470" on="1"/>
      </contour>
      <contour>
        <pt x="116" y="38" on="1"/>
        <pt x="165" y="38" on="1"/>
        <pt x="199" y="38" on="0"/>
        <pt x="278" y="52" on="0"/>
        <pt x="344" y="95" on="0"/>
        <pt x="388" y="176" on="0"/>
        <pt x="388" y="243" on="1"/>
        <pt x="388" y="432" on="0"/>
        <pt x="165" y="432" on="1"/>
        <pt x="116" y="432" on="1"/>
      </contour>
    </TTGlyph>
    <TTGlyph name="E" xMin="80" yMin="0" xMax="443" yMax="630">
      <contour>
        <pt x="80" y="630" on="1"/>
        <pt x="440" y="630" on="1"/>
        <pt x="440" y="588" on="1"/>
        <pt x="132" y="588" on="1"/>
        <pt x="132" y="345" on="1"/>
        <pt x="414" y="345" on="1"/>
        <pt x="414" y="303" on="1"/>
        <pt x="132" y="303" on="1"/>
        <pt x="132" y="42" on="1"/>
        <pt x="443" y="42" on="1"/>
        <pt x="443" y="0" on="1"/>
        <pt x="80" y="0" on="1"/>
      </contour>
    </TTGlyph>
    <TTGlyph name="Eacute" xMin="80" yMin="0" xMax="443" yMax="834">
      <contour>
        <pt x="80" y="630" on="1"/>
        <pt x="440" y="630" on="1"/>
        <pt x="440" y="588" on="1"/>
        <pt x="132" y="588" on="1"/>
        <pt x="132" y="345" on="1"/>
        <pt x="414" y="345" on="1"/>
        <pt x="414" y="303" on="1"/>
        <pt x="132" y="303" on="1"/>
        <pt x="132" y="42" on="1"/>
        <pt x="443" y="42" on="1"/>
        <pt x="443" y="0" on="1"/>
        <pt x="80" y="0" on="1"/>
      </contour>
      <contour>
        <pt x="241" y="710" on="1"/>
        <pt x="199" y="710" on="1"/>
        <pt x="289" y="834" on="1"/>
        <pt x="352" y="834" on="1"/>
      </contour>
    </TTGlyph>
    <TTGlyph name="Ebreve" xMin="80" yMin="0" xMax="443" yMax="834">
      <contour>
        <pt x="80" y="630" on="1"/>
        <pt x="440" y="630" on="1"/>
        <pt x="440" y="588" on="1"/>
        <pt x="132" y="588" on="1"/>
        <pt x="132" y="345" on="1"/>
        <pt x="414" y="345" on="1"/>
        <pt x="414" y="303" on="1"/>
        <pt x="132" y="303" on="1"/>
        <pt x="132" y="42" on="1"/>
        <pt x="443" y="42" on="1"/>
        <pt x="443" y="0" on="1"/>
        <pt x="80" y="0" on="1"/>
      </contour>
      <contour>
        <pt x="176" y="834" on="1"/>
        <pt x="177" y="796" on="0"/>
        <pt x="217" y="750" on="0"/>
        <pt x="264" y="750" on="1"/>
        <pt x="303" y="750" on="0"/>
        <pt x="348" y="794" on="0"/>
        <pt x="349" y="834" on="1"/>
        <pt x="397" y="834" on="1"/>
        <pt x="397" y="780" on="0"/>
        <pt x="329" y="710" on="0"/>
        <pt x="264" y="710" on="1"/>
        <pt x="228" y="710" on="0"/>
        <pt x="177" y="730" on="0"/>
        <pt x="144" y="765" on="0"/>
        <pt x="128" y="810" on="0"/>
        <pt x="128" y="834" on="1"/>
      </contour>
    </TTGlyph>
    <TTGlyph name="Ecaron" xMin="80" yMin="0" xMax="443" yMax="845">
      <contour>
        <pt x="80" y="630" on="1"/>
        <pt x="440" y="630" on="1"/>
        <pt x="440" y="588" on="1"/>
        <pt x="132" y="588" on="1"/>
        <pt x="132" y="345" on="1"/>
        <pt x="414" y="345" on="1"/>
        <pt x="414" y="303" on="1"/>
        <pt x="132" y="303" on="1"/>
        <pt x="132" y="42" on="1"/>
        <pt x="443" y="42" on="1"/>
        <pt x="443" y="0" on="1"/>
        <pt x="80" y="0" on="1"/>
      </contour>
      <contour>
        <pt x="118" y="845" on="1"/>
        <pt x="174" y="845" on="1"/>
        <pt x="264" y="746" on="1"/>
        <pt x="354" y="845" on="1"/>
        <pt x="414" y="845" on="1"/>
        <pt x="289" y="711" on="1"/>
        <pt x="240" y="711" on="1"/>
      </contour>
    </TTGlyph>
    <TTGlyph name="Ecircumflex" xMin="80" yMin="0" xMax="443" yMax="844">
      <contour>
        <pt x="80" y="630" on="1"/>
        <pt x="440" y="630" on="1"/>
        <pt x="440" y="588" on="1"/>
        <pt x="132" y="588" on="1"/>
        <pt x="132" y="345" on="1"/>
        <pt x="414" y="345" on="1"/>
        <pt x="414" y="303" on="1"/>
        <pt x="132" y="303" on="1"/>
        <pt x="132" y="42" on="1"/>
        <pt x="443" y="42" on="1"/>
        <pt x="443" y="0" on="1"/>
        <pt x="80" y="0" on="1"/>
      </contour>
      <contour>
        <pt x="240" y="844" on="1"/>
        <pt x="289" y="844" on="1"/>
        <pt x="414" y="710" on="1"/>
        <pt x="354" y="710" on="1"/>
        <pt x="264" y="809" on="1"/>
        <pt x="174" y="710" on="1"/>
        <pt x="118" y="710" on="1"/>
      </contour>
    </TTGlyph>
    <TTGlyph name="Edieresis" xMin="80" yMin="0" xMax="443" yMax="810">
      <contour>
        <pt x="80" y="630" on="1"/>
        <pt x="440" y="630" on="1"/>
        <pt x="440" y="588" on="1"/>
        <pt x="132" y="588" on="1"/>
        <pt x="132" y="345" on="1"/>
        <pt x="414" y="345" on="1"/>
        <pt x="414" y="303" on="1"/>
        <pt x="132" y="303" on="1"/>
        <pt x="132" y="42" on="1"/>
        <pt x="443" y="42" on="1"/>
        <pt x="443" y="0" on="1"/>
        <pt x="80" y="0" on="1"/>
      </contour>
      <contour>
        <pt x="139" y="766" on="1"/>
        <pt x="139" y="786" on="0"/>
        <pt x="162" y="810" on="0"/>
        <pt x="179" y="810" on="1"/>
        <pt x="196" y="810" on="0"/>
        <pt x="219" y="786" on="0"/>
        <pt x="219" y="766" on="1"/>
        <pt x="219" y="745" on="0"/>
        <pt x="196" y="722" on="0"/>
        <pt x="179" y="722" on="1"/>
        <pt x="162" y="722" on="0"/>
        <pt x="139" y="745" on="0"/>
      </contour>
      <contour>
        <pt x="309" y="766" on="1"/>
        <pt x="309" y="786" on="0"/>
        <pt x="332" y="810" on="0"/>
        <pt x="349" y="810" on="1"/>
        <pt x="366" y="810" on="0"/>
        <pt x="389" y="786" on="0"/>
        <pt x="389" y="766" on="1"/>
        <pt x="389" y="745" on="0"/>
        <pt x="366" y="722" on="0"/>
        <pt x="349" y="722" on="1"/>
        <pt x="332" y="722" on="0"/>
        <pt x="309" y="745" on="0"/>
      </contour>
    </TTGlyph>
    <TTGlyph name="Edotaccent" xMin="80" yMin="0" xMax="443" yMax="822">
      <contour>
        <pt x="80" y="630" on="1"/>
        <pt x="440" y="630" on="1"/>
        <pt x="440" y="588" on="1"/>
        <pt x="132" y="588" on="1"/>
        <pt x="132" y="345" on="1"/>
        <pt x="414" y="345" on="1"/>
        <pt x="414" y="303" on="1"/>
        <pt x="132" y="303" on="1"/>
        <pt x="132" y="42" on="1"/>
        <pt x="443" y="42" on="1"/>
        <pt x="443" y="0" on="1"/>
        <pt x="80" y="0" on="1"/>
      </contour>
      <contour>
        <pt x="224" y="778" on="1"/>
        <pt x="224" y="798" on="0"/>
        <pt x="247" y="822" on="0"/>
        <pt x="264" y="822" on="1"/>
        <pt x="281" y="822" on="0"/>
        <pt x="304" y="798" on="0"/>
        <pt x="304" y="778" on="1"/>
        <pt x="304" y="757" on="0"/>
        <pt x="281" y="734" on="0"/>
        <pt x="264" y="734" on="1"/>
        <pt x="247" y="734" on="0"/>
        <pt x="224" y="757" on="0"/>
      </contour>
    </TTGlyph>
    <TTGlyph name="Egrave" xMin="80" yMin="0" xMax="443" yMax="834">
      <contour>
        <pt x="80" y="630" on="1"/>
        <pt x="440" y="630" on="1"/>
        <pt x="440" y="588" on="1"/>
        <pt x="132" y="588" on="1"/>
        <pt x="132" y="345" on="1"/>
        <pt x="414" y="345" on="1"/>
        <pt x="414" y="303" on="1"/>
        <pt x="132" y="303" on="1"/>
        <pt x="132" y="42" on="1"/>
        <pt x="443" y="42" on="1"/>
        <pt x="443" y="0" on="1"/>
        <pt x="80" y="0" on="1"/>
      </contour>
      <contour>
        <pt x="191" y="834" on="1"/>
        <pt x="254" y="834" on="1"/>
        <pt x="344" y="710" on="1"/>
        <pt x="302" y="710" on="1"/>
      </contour>
    </TTGlyph>
    <TTGlyph name="Emacron" xMin="80" yMin="0" xMax="443" yMax="772">
      <contour>
        <pt x="80" y="630" on="1"/>
        <pt x="440" y="630" on="1"/>
        <pt x="440" y="588" on="1"/>
        <pt x="132" y="588" on="1"/>
        <pt x="132" y="345" on="1"/>
        <pt x="414" y="345" on="1"/>
        <pt x="414" y="303" on="1"/>
        <pt x="132" y="303" on="1"/>
        <pt x="132" y="42" on="1"/>
        <pt x="443" y="42" on="1"/>
        <pt x="443" y="0" on="1"/>
        <pt x="80" y="0" on="1"/>
      </contour>
      <contour>
        <pt x="387" y="772" on="1"/>
        <pt x="387" y="730" on="1"/>
        <pt x="142" y="730" on="1"/>
        <pt x="142" y="772" on="1"/>
      </contour>
    </TTGlyph>
    <TTGlyph name="Eng" xMin="80" yMin="-215" xMax="543" yMax="630">
      <contour>
        <pt x="80" y="630" on="1"/>
        <pt x="130" y="630" on="1"/>
        <pt x="405" y="206" on="1"/>
        <pt x="428" y="172" on="0"/>
        <pt x="472" y="106" on="0"/>
        <pt x="493" y="72" on="1"/>
        <pt x="495" y="72" on="1"/>
        <pt x="493" y="110" on="0"/>
        <pt x="493" y="188" on="0"/>
        <pt x="493" y="226" on="1"/>
        <pt x="493" y="630" on="1"/>
        <pt x="543" y="630" on="1"/>
        <pt x="543" y="57" on="1"/>
        <pt x="543" y="2" on="0"/>
        <pt x="529" y="-82" on="0"/>
        <pt x="497" y="-146" on="0"/>
        <pt x="444" y="-195" on="0"/>
        <pt x="405" y="-215" on="1"/>
        <pt x="379" y="-174" on="1"/>
        <pt x="434" y="-141" on="0"/>
        <pt x="486" y="-62" on="0"/>
        <pt x="491" y="-7" on="1"/>
        <pt x="227" y="396" on="1"/>
        <pt x="201" y="437" on="0"/>
        <pt x="151" y="520" on="0"/>
        <pt x="129" y="562" on="1"/>
        <pt x="127" y="562" on="1"/>
        <pt x="130" y="469" on="0"/>
        <pt x="130" y="376" on="1"/>
        <pt x="130" y="0" on="1"/>
        <pt x="80" y="0" on="1"/>
      </contour>
    </TTGlyph>
    <TTGlyph name="Eogonek" xMin="80" yMin="-206" xMax="480" yMax="630">
      <contour>
        <pt x="443" y="0" on="1"/>
        <pt x="392" y="-17" on="0"/>
        <pt x="342" y="-74" on="0"/>
        <pt x="342" y="-106" on="1"/>
        <pt x="342" y="-135" on="0"/>
        <pt x="380" y="-166" on="0"/>
        <pt x="415" y="-166" on="1"/>
        <pt x="432" y="-166" on="0"/>
        <pt x="461" y="-159" on="0"/>
        <pt x="471" y="-154" on="1"/>
        <pt x="480" y="-185" on="1"/>
        <pt x="445" y="-206" on="0"/>
        <pt x="400" y="-206" on="1"/>
        <pt x="354" y="-206" on="0"/>
        <pt x="293" y="-156" on="0"/>
        <pt x="293" y="-109" on="1"/>
        <pt x="293" y="-71" on="0"/>
        <pt x="338" y="-15" on="0"/>
        <pt x="373" y="-2" on="1"/>
        <pt x="373" y="0" on="1"/>
        <pt x="80" y="0" on="1"/>
        <pt x="80" y="630" on="1"/>
        <pt x="440" y="630" on="1"/>
        <pt x="440" y="588" on="1"/>
        <pt x="132" y="588" on="1"/>
        <pt x="132" y="345" on="1"/>
        <pt x="414" y="345" on="1"/>
        <pt x="414" y="303" on="1"/>
        <pt x="132" y="303" on="1"/>
        <pt x="132" y="42" on="1"/>
        <pt x="443" y="42" on="1"/>
      </contour>
    </TTGlyph>
    <TTGlyph name="Esmall" xMin="68" yMin="0" xMax="357" yMax="470">
      <contour>
        <pt x="68" y="470" on="1"/>
        <pt x="355" y="470" on="1"/>
        <pt x="355" y="432" on="1"/>
        <pt x="116" y="432" on="1"/>
        <pt x="116" y="262" on="1"/>
        <pt x="338" y="262" on="1"/>
        <pt x="338" y="225" on="1"/>
        <pt x="116" y="225" on="1"/>
        <pt x="116" y="38" on="1"/>
        <pt x="357" y="38" on="1"/>
        <pt x="357" y="0" on="1"/>
        <pt x="68" y="0" on="1"/>
      </contour>
    </TTGlyph>
    <TTGlyph name="Eth" xMin="30" yMin="0" xMax="586" yMax="630">
      <contour>
        <pt x="295" y="630" on="1"/>
        <pt x="357" y="630" on="0"/>
        <pt x="464" y="592" on="0"/>
        <pt x="542" y="517" on="0"/>
        <pt x="586" y="404" on="0"/>
        <pt x="586" y="329" on="1"/>
        <pt x="586" y="238" on="0"/>
        <pt x="534" y="112" on="0"/>
        <pt x="444" y="34" on="0"/>
        <pt x="326" y="0" on="0"/>
        <pt x="260" y="0" on="1"/>
        <pt x="110" y="0" on="1"/>
        <pt x="110" y="308" on="1"/>
        <pt x="30" y="308" on="1"/>
        <pt x="30" y="350" on="1"/>
        <pt x="110" y="350" on="1"/>
        <pt x="110" y="630" on="1"/>
      </contour>
      <contour>
        <pt x="330" y="350" on="1"/>
        <pt x="330" y="308" on="1"/>
        <pt x="162" y="308" on="1"/>
        <pt x="162" y="42" on="1"/>
        <pt x="251" y="42" on="1"/>
        <pt x="303" y="42" on="0"/>
        <pt x="403" y="67" on="0"/>
        <pt x="483" y="132" on="0"/>
        <pt x="532" y="243" on="0"/>
        <pt x="532" y="329" on="1"/>
        <pt x="532" y="390" on="0"/>
        <pt x="495" y="486" on="0"/>
        <pt x="427" y="553" on="0"/>
        <pt x="334" y="588" on="0"/>
        <pt x="277" y="588" on="1"/>
        <pt x="162" y="588" on="1"/>
        <pt x="162" y="350" on="1"/>
      </contour>
    </TTGlyph>
    <TTGlyph name="Euro" xMin="5" yMin="-8" xMax="521" yMax="638">
      <contour>
        <pt x="366" y="34" on="1"/>
        <pt x="414" y="34" on="0"/>
        <pt x="480" y="52" on="0"/>
        <pt x="506" y="66" on="1"/>
        <pt x="518" y="24" on="1"/>
        <pt x="488" y="9" on="0"/>
        <pt x="413" y="-8" on="0"/>
        <pt x="359" y="-8" on="1"/>
        <pt x="305" y="-8" on="0"/>
        <pt x="211" y="23" on="0"/>
        <pt x="137" y="84" on="0"/>
        <pt x="86" y="174" on="0"/>
        <pt x="76" y="234" on="1"/>
        <pt x="5" y="234" on="1"/>
        <pt x="5" y="274" on="1"/>
        <pt x="72" y="274" on="1"/>
        <pt x="70" y="288" on="0"/>
        <pt x="70" y="306" on="0"/>
        <pt x="70" y="317" on="1"/>
        <pt x="70" y="345" on="1"/>
        <pt x="5" y="345" on="1"/>
        <pt x="5" y="385" on="1"/>
        <pt x="75" y="385" on="1"/>
        <pt x="84" y="446" on="0"/>
        <pt x="132" y="540" on="0"/>
        <pt x="205" y="604" on="0"/>
        <pt x="301" y="638" on="0"/>
        <pt x="357" y="638" on="1"/>
        <pt x="415" y="638" on="0"/>
        <pt x="489" y="619" on="0"/>
        <pt x="521" y="602" on="1"/>
        <pt x="509" y="563" on="1"/>
        <pt x="476" y="580" on="0"/>
        <pt x="409" y="596" on="0"/>
        <pt x="368" y="596" on="1"/>
        <pt x="325" y="596" on="0"/>
        <pt x="246" y="572" on="0"/>
        <pt x="183" y="520" on="0"/>
        <pt x="138" y="440" on="0"/>
        <pt x="129" y="385" on="1"/>
        <pt x="446" y="385" on="1"/>
        <pt x="446" y="345" on="1"/>
        <pt x="124" y="345" on="1"/>
        <pt x="124" y="318" on="1"/>
        <pt x="124" y="307" on="0"/>
        <pt x="125" y="282" on="0"/>
        <pt x="126" y="274" on="1"/>
        <pt x="446" y="274" on="1"/>
        <pt x="446" y="234" on="1"/>
        <pt x="131" y="234" on="1"/>
        <pt x="141" y="179" on="0"/>
        <pt x="188" y="103" on="0"/>
        <pt x="252" y="55" on="0"/>
        <pt x="327" y="34" on="0"/>
      </contour>
    </TTGlyph>
    <TTGlyph name="F" xMin="80" yMin="0" xMax="430" yMax="630">
      <contour>
        <pt x="430" y="630" on="1"/>
        <pt x="430" y="588" on="1"/>
        <pt x="132" y="588" on="1"/>
        <pt x="132" y="336" on="1"/>
        <pt x="408" y="336" on="1"/>
        <pt x="408" y="295" on="1"/>
        <pt x="132" y="295" on="1"/>
        <pt x="132" y="0" on="1"/>
        <pt x="80" y="0" on="1"/>
        <pt x="80" y="630" on="1"/>
      </contour>
    </TTGlyph>
    <TTGlyph name="Fsmall" xMin="68" yMin="0" xMax="336" yMax="470">
      <contour>
        <pt x="336" y="470" on="1"/>
        <pt x="336" y="432" on="1"/>
        <pt x="116" y="432" on="1"/>
        <pt x="116" y="255" on="1"/>
        <pt x="318" y="255" on="1"/>
        <pt x="318" y="217" on="1"/>
        <pt x="116" y="217" on="1"/>
        <pt x="116" y="0" on="1"/>
        <pt x="68" y="0" on="1"/>
        <pt x="68" y="470" on="1"/>
      </contour>
    </TTGlyph>
    <TTGlyph name="G" xMin="45" yMin="-8" xMax="522" yMax="638">
      <contour>
        <pt x="348" y="638" on="1"/>
        <pt x="400" y="638" on="0"/>
        <pt x="481" y="622" on="0"/>
        <pt x="517" y="602" on="1"/>
        <pt x="504" y="560" on="1"/>
        <pt x="469" y="577" on="0"/>
        <pt x="397" y="596" on="0"/>
        <pt x="359" y="596" on="1"/>
        <pt x="308" y="596" on="0"/>
        <pt x="213" y="566" on="0"/>
        <pt x="140" y="499" on="0"/>
        <pt x="97" y="392" on="0"/>
        <pt x="97" y="314" on="1"/>
        <pt x="97" y="247" on="0"/>
        <pt x="138" y="143" on="0"/>
        <pt x="208" y="71" on="0"/>
        <pt x="304" y="34" on="0"/>
        <pt x="359" y="34" on="1"/>
        <pt x="398" y="34" on="0"/>
        <pt x="457" y="45" on="0"/>
        <pt x="470" y="52" on="1"/>
        <pt x="470" y="276" on="1"/>
        <pt x="335" y="276" on="1"/>
        <pt x="335" y="317" on="1"/>
        <pt x="522" y="317" on="1"/>
        <pt x="522" y="23" on="1"/>
        <pt x="489" y="9" on="0"/>
        <pt x="411" y="-8" on="0"/>
        <pt x="354" y="-8" on="1"/>
        <pt x="291" y="-8" on="0"/>
        <pt x="179" y="34" on="0"/>
        <pt x="94" y="115" on="0"/>
        <pt x="45" y="235" on="0"/>
        <pt x="45" y="314" on="1"/>
        <pt x="45" y="393" on="0"/>
        <pt x="91" y="515" on="0"/>
        <pt x="172" y="596" on="0"/>
        <pt x="283" y="638" on="0"/>
      </contour>
    </TTGlyph>
    <TTGlyph name="Gbreve" xMin="45" yMin="-8" xMax="522" yMax="846">
      <contour>
        <pt x="348" y="638" on="1"/>
        <pt x="400" y="638" on="0"/>
        <pt x="481" y="622" on="0"/>
        <pt x="517" y="602" on="1"/>
        <pt x="504" y="560" on="1"/>
        <pt x="469" y="577" on="0"/>
        <pt x="397" y="596" on="0"/>
        <pt x="359" y="596" on="1"/>
        <pt x="308" y="596" on="0"/>
        <pt x="213" y="566" on="0"/>
        <pt x="140" y="499" on="0"/>
        <pt x="97" y="392" on="0"/>
        <pt x="97" y="314" on="1"/>
        <pt x="97" y="247" on="0"/>
        <pt x="138" y="143" on="0"/>
        <pt x="208" y="71" on="0"/>
        <pt x="304" y="34" on="0"/>
        <pt x="359" y="34" on="1"/>
        <pt x="398" y="34" on="0"/>
        <pt x="457" y="45" on="0"/>
        <pt x="470" y="52" on="1"/>
        <pt x="470" y="276" on="1"/>
        <pt x="335" y="276" on="1"/>
        <pt x="335" y="317" on="1"/>
        <pt x="522" y="317" on="1"/>
        <pt x="522" y="23" on="1"/>
        <pt x="489" y="9" on="0"/>
        <pt x="411" y="-8" on="0"/>
        <pt x="354" y="-8" on="1"/>
        <pt x="291" y="-8" on="0"/>
        <pt x="179" y="34" on="0"/>
        <pt x="94" y="115" on="0"/>
        <pt x="45" y="235" on="0"/>
        <pt x="45" y="314" on="1"/>
        <pt x="45" y="393" on="0"/>
        <pt x="91" y="515" on="0"/>
        <pt x="172" y="596" on="0"/>
        <pt x="283" y="638" on="0"/>
      </contour>
      <contour>
        <pt x="261" y="846" on="1"/>
        <pt x="262" y="808" on="0"/>
        <pt x="302" y="762" on="0"/>
        <pt x="349" y="762" on="1"/>
        <pt x="388" y="762" on="0"/>
        <pt x="433" y="806" on="0"/>
        <pt x="434" y="846" on="1"/>
        <pt x="482" y="846" on="1"/>
        <pt x="482" y="792" on="0"/>
        <pt x="414" y="722" on="0"/>
        <pt x="349" y="722" on="1"/>
        <pt x="313" y="722" on="0"/>
        <pt x="262" y="742" on="0"/>
        <pt x="229" y="777" on="0"/>
        <pt x="213" y="822" on="0"/>
        <pt x="213" y="846" on="1"/>
      </contour>
    </TTGlyph>
    <TTGlyph name="Gcircumflex" xMin="45" yMin="-8" xMax="522" yMax="844">
      <contour>
        <pt x="348" y="638" on="1"/>
        <pt x="400" y="638" on="0"/>
        <pt x="481" y="622" on="0"/>
        <pt x="517" y="602" on="1"/>
        <pt x="504" y="560" on="1"/>
        <pt x="469" y="577" on="0"/>
        <pt x="397" y="596" on="0"/>
        <pt x="359" y="596" on="1"/>
        <pt x="308" y="596" on="0"/>
        <pt x="213" y="566" on="0"/>
        <pt x="140" y="499" on="0"/>
        <pt x="97" y="392" on="0"/>
        <pt x="97" y="314" on="1"/>
        <pt x="97" y="247" on="0"/>
        <pt x="138" y="143" on="0"/>
        <pt x="208" y="71" on="0"/>
        <pt x="304" y="34" on="0"/>
        <pt x="359" y="34" on="1"/>
        <pt x="398" y="34" on="0"/>
        <pt x="457" y="45" on="0"/>
        <pt x="470" y="52" on="1"/>
        <pt x="470" y="276" on="1"/>
        <pt x="335" y="276" on="1"/>
        <pt x="335" y="317" on="1"/>
        <pt x="522" y="317" on="1"/>
        <pt x="522" y="23" on="1"/>
        <pt x="489" y="9" on="0"/>
        <pt x="411" y="-8" on="0"/>
        <pt x="354" y="-8" on="1"/>
        <pt x="291" y="-8" on="0"/>
        <pt x="179" y="34" on="0"/>
        <pt x="94" y="115" on="0"/>
        <pt x="45" y="235" on="0"/>
        <pt x="45" y="314" on="1"/>
        <pt x="45" y="393" on="0"/>
        <pt x="91" y="515" on="0"/>
        <pt x="172" y="596" on="0"/>
        <pt x="283" y="638" on="0"/>
      </contour>
      <contour>
        <pt x="324" y="844" on="1"/>
        <pt x="373" y="844" on="1"/>
        <pt x="498" y="710" on="1"/>
        <pt x="438" y="710" on="1"/>
        <pt x="348" y="809" on="1"/>
        <pt x="258" y="710" on="1"/>
        <pt x="202" y="710" on="1"/>
      </contour>
    </TTGlyph>
    <TTGlyph name="Gcommaaccent" xMin="45" yMin="-303" xMax="522" yMax="638">
      <contour>
        <pt x="348" y="638" on="1"/>
        <pt x="400" y="638" on="0"/>
        <pt x="481" y="622" on="0"/>
        <pt x="517" y="602" on="1"/>
        <pt x="504" y="560" on="1"/>
        <pt x="469" y="577" on="0"/>
        <pt x="397" y="596" on="0"/>
        <pt x="359" y="596" on="1"/>
        <pt x="308" y="596" on="0"/>
        <pt x="213" y="566" on="0"/>
        <pt x="140" y="499" on="0"/>
        <pt x="97" y="392" on="0"/>
        <pt x="97" y="314" on="1"/>
        <pt x="97" y="247" on="0"/>
        <pt x="138" y="143" on="0"/>
        <pt x="208" y="71" on="0"/>
        <pt x="304" y="34" on="0"/>
        <pt x="359" y="34" on="1"/>
        <pt x="398" y="34" on="0"/>
        <pt x="457" y="45" on="0"/>
        <pt x="470" y="52" on="1"/>
        <pt x="470" y="276" on="1"/>
        <pt x="335" y="276" on="1"/>
        <pt x="335" y="317" on="1"/>
        <pt x="522" y="317" on="1"/>
        <pt x="522" y="23" on="1"/>
        <pt x="489" y="9" on="0"/>
        <pt x="411" y="-8" on="0"/>
        <pt x="354" y="-8" on="1"/>
        <pt x="291" y="-8" on="0"/>
        <pt x="179" y="34" on="0"/>
        <pt x="94" y="115" on="0"/>
        <pt x="45" y="235" on="0"/>
        <pt x="45" y="314" on="1"/>
        <pt x="45" y="393" on="0"/>
        <pt x="91" y="515" on="0"/>
        <pt x="172" y="596" on="0"/>
        <pt x="283" y="638" on="0"/>
      </contour>
      <contour>
        <pt x="348" y="-186" on="1"/>
        <pt x="331" y="-183" on="0"/>
        <pt x="308" y="-159" on="0"/>
        <pt x="308" y="-138" on="1"/>
        <pt x="308" y="-120" on="0"/>
        <pt x="331" y="-96" on="0"/>
        <pt x="349" y="-96" on="1"/>
        <pt x="365" y="-96" on="0"/>
        <pt x="397" y="-123" on="0"/>
        <pt x="397" y="-162" on="1"/>
        <pt x="397" y="-185" on="0"/>
        <pt x="381" y="-227" on="0"/>
        <pt x="354" y="-264" on="0"/>
        <pt x="319" y="-293" on="0"/>
        <pt x="300" y="-303" on="1"/>
        <pt x="280" y="-275" on="1"/>
        <pt x="310" y="-260" on="0"/>
        <pt x="348" y="-212" on="0"/>
        <pt x="353" y="-187" on="1"/>
      </contour>
    </TTGlyph>
    <TTGlyph name="Gdotaccent" xMin="45" yMin="-8" xMax="522" yMax="822">
      <contour>
        <pt x="348" y="638" on="1"/>
        <pt x="400" y="638" on="0"/>
        <pt x="481" y="622" on="0"/>
        <pt x="517" y="602" on="1"/>
        <pt x="504" y="560" on="1"/>
        <pt x="469" y="577" on="0"/>
        <pt x="397" y="596" on="0"/>
        <pt x="359" y="596" on="1"/>
        <pt x="308" y="596" on="0"/>
        <pt x="213" y="566" on="0"/>
        <pt x="140" y="499" on="0"/>
        <pt x="97" y="392" on="0"/>
        <pt x="97" y="314" on="1"/>
        <pt x="97" y="247" on="0"/>
        <pt x="138" y="143" on="0"/>
        <pt x="208" y="71" on="0"/>
        <pt x="304" y="34" on="0"/>
        <pt x="359" y="34" on="1"/>
        <pt x="398" y="34" on="0"/>
        <pt x="457" y="45" on="0"/>
        <pt x="470" y="52" on="1"/>
        <pt x="470" y="276" on="1"/>
        <pt x="335" y="276" on="1"/>
        <pt x="335" y="317" on="1"/>
        <pt x="522" y="317" on="1"/>
        <pt x="522" y="23" on="1"/>
        <pt x="489" y="9" on="0"/>
        <pt x="411" y="-8" on="0"/>
        <pt x="354" y="-8" on="1"/>
        <pt x="291" y="-8" on="0"/>
        <pt x="179" y="34" on="0"/>
        <pt x="94" y="115" on="0"/>
        <pt x="45" y="235" on="0"/>
        <pt x="45" y="314" on="1"/>
        <pt x="45" y="393" on="0"/>
        <pt x="91" y="515" on="0"/>
        <pt x="172" y="596" on="0"/>
        <pt x="283" y="638" on="0"/>
      </contour>
      <contour>
        <pt x="310" y="778" on="1"/>
        <pt x="310" y="798" on="0"/>
        <pt x="333" y="822" on="0"/>
        <pt x="350" y="822" on="1"/>
        <pt x="367" y="822" on="0"/>
        <pt x="390" y="798" on="0"/>
        <pt x="390" y="778" on="1"/>
        <pt x="390" y="757" on="0"/>
        <pt x="367" y="734" on="0"/>
        <pt x="350" y="734" on="1"/>
        <pt x="333" y="734" on="0"/>
        <pt x="310" y="757" on="0"/>
      </contour>
    </TTGlyph>
    <TTGlyph name="Grave" xMin="27" yMin="710" xMax="180" yMax="834">
      <contour>
        <pt x="27" y="834" on="1"/>
        <pt x="90" y="834" on="1"/>
        <pt x="180" y="710" on="1"/>
        <pt x="138" y="710" on="1"/>
      </contour>
    </TTGlyph>
    <TTGlyph name="Gsmall" xMin="39" yMin="-8" xMax="424" yMax="476">
      <contour>
        <pt x="287" y="30" on="1"/>
        <pt x="311" y="30" on="0"/>
        <pt x="364" y="38" on="0"/>
        <pt x="381" y="46" on="1"/>
        <pt x="381" y="205" on="1"/>
        <pt x="265" y="205" on="1"/>
        <pt x="265" y="240" on="1"/>
        <pt x="424" y="240" on="1"/>
        <pt x="424" y="20" on="1"/>
        <pt x="395" y="6" on="0"/>
        <pt x="323" y="-8" on="0"/>
        <pt x="284" y="-8" on="1"/>
        <pt x="233" y="-8" on="0"/>
        <pt x="144" y="22" on="0"/>
        <pt x="78" y="82" on="0"/>
        <pt x="39" y="173" on="0"/>
        <pt x="39" y="234" on="1"/>
        <pt x="39" y="290" on="0"/>
        <pt x="75" y="380" on="0"/>
        <pt x="139" y="443" on="0"/>
        <pt x="228" y="476" on="0"/>
        <pt x="282" y="476" on="1"/>
        <pt x="313" y="476" on="0"/>
        <pt x="378" y="468" on="0"/>
        <pt x="407" y="455" on="1"/>
        <pt x="396" y="418" on="1"/>
        <pt x="370" y="428" on="0"/>
        <pt x="320" y="437" on="0"/>
        <pt x="287" y="437" on="1"/>
        <pt x="196" y="437" on="0"/>
        <pt x="89" y="333" on="0"/>
        <pt x="89" y="237" on="1"/>
        <pt x="89" y="177" on="0"/>
        <pt x="123" y="98" on="0"/>
        <pt x="178" y="50" on="0"/>
        <pt x="249" y="30" on="0"/>
      </contour>
    </TTGlyph>
    <TTGlyph name="H" xMin="80" yMin="0" xMax="523" yMax="630">
      <contour>
        <pt x="80" y="0" on="1"/>
        <pt x="80" y="630" on="1"/>
        <pt x="132" y="630" on="1"/>
        <pt x="132" y="347" on="1"/>
        <pt x="471" y="347" on="1"/>
        <pt x="471" y="630" on="1"/>
        <pt x="523" y="630" on="1"/>
        <pt x="523" y="0" on="1"/>
        <pt x="471" y="0" on="1"/>
        <pt x="471" y="305" on="1"/>
        <pt x="132" y="305" on="1"/>
        <pt x="132" y="0" on="1"/>
      </contour>
    </TTGlyph>
    <TTGlyph name="Hbar" xMin="20" yMin="0" xMax="623" yMax="630">
      <contour>
        <pt x="623" y="530" on="1"/>
        <pt x="623" y="488" on="1"/>
        <pt x="543" y="488" on="1"/>
        <pt x="543" y="0" on="1"/>
        <pt x="491" y="0" on="1"/>
        <pt x="491" y="305" on="1"/>
        <pt x="152" y="305" on="1"/>
        <pt x="152" y="0" on="1"/>
        <pt x="100" y="0" on="1"/>
        <pt x="100" y="488" on="1"/>
        <pt x="20" y="488" on="1"/>
        <pt x="20" y="530" on="1"/>
        <pt x="100" y="530" on="1"/>
        <pt x="100" y="630" on="1"/>
        <pt x="152" y="630" on="1"/>
        <pt x="152" y="530" on="1"/>
        <pt x="491" y="530" on="1"/>
        <pt x="491" y="630" on="1"/>
        <pt x="543" y="630" on="1"/>
        <pt x="543" y="530" on="1"/>
      </contour>
      <contour>
        <pt x="491" y="347" on="1"/>
        <pt x="491" y="488" on="1"/>
        <pt x="152" y="488" on="1"/>
        <pt x="152" y="347" on="1"/>
      </contour>
    </TTGlyph>
    <TTGlyph name="Hcircumflex" xMin="80" yMin="0" xMax="523" yMax="844">
      <contour>
        <pt x="80" y="0" on="1"/>
        <pt x="80" y="630" on="1"/>
        <pt x="132" y="630" on="1"/>
        <pt x="132" y="347" on="1"/>
        <pt x="471" y="347" on="1"/>
        <pt x="471" y="630" on="1"/>
        <pt x="523" y="630" on="1"/>
        <pt x="523" y="0" on="1"/>
        <pt x="471" y="0" on="1"/>
        <pt x="471" y="305" on="1"/>
        <pt x="132" y="305" on="1"/>
        <pt x="132" y="0" on="1"/>
      </contour>
      <contour>
        <pt x="277" y="844" on="1"/>
        <pt x="326" y="844" on="1"/>
        <pt x="451" y="710" on="1"/>
        <pt x="391" y="710" on="1"/>
        <pt x="301" y="809" on="1"/>
        <pt x="211" y="710" on="1"/>
        <pt x="155" y="710" on="1"/>
      </contour>
    </TTGlyph>
    <TTGlyph name="Hsmall" xMin="68" yMin="0" xMax="404" yMax="470">
      <contour>
        <pt x="68" y="0" on="1"/>
        <pt x="68" y="470" on="1"/>
        <pt x="116" y="470" on="1"/>
        <pt x="116" y="266" on="1"/>
        <pt x="356" y="266" on="1"/>
        <pt x="356" y="470" on="1"/>
        <pt x="404" y="470" on="1"/>
        <pt x="404" y="0" on="1"/>
        <pt x="356" y="0" on="1"/>
        <pt x="356" y="228" on="1"/>
        <pt x="116" y="228" on="1"/>
        <pt x="116" y="0" on="1"/>
      </contour>
    </TTGlyph>
    <TTGlyph name="Hungarumlaut" xMin="20" yMin="710" xMax="343" yMax="834">
      <contour>
        <pt x="190" y="710" on="1"/>
        <pt x="280" y="834" on="1"/>
        <pt x="343" y="834" on="1"/>
        <pt x="232" y="710" on="1"/>
      </contour>
      <contour>
        <pt x="20" y="710" on="1"/>
        <pt x="110" y="834" on="1"/>
        <pt x="173" y="834" on="1"/>
        <pt x="62" y="710" on="1"/>
      </contour>
    </TTGlyph>
    <TTGlyph name="I" xMin="80" yMin="0" xMax="132" yMax="630">
      <contour>
        <pt x="132" y="630" on="1"/>
        <pt x="132" y="0" on="1"/>
        <pt x="80" y="0" on="1"/>
        <pt x="80" y="630" on="1"/>
      </contour>
    </TTGlyph>
    <TTGlyph name="IJ" xMin="80" yMin="-135" xMax="376" yMax="630">
      <contour>
        <pt x="132" y="630" on="1"/>
        <pt x="132" y="0" on="1"/>
        <pt x="80" y="0" on="1"/>
        <pt x="80" y="630" on="1"/>
      </contour>
      <contour>
        <pt x="376" y="630" on="1"/>
        <pt x="376" y="104" on="1"/>
        <pt x="376" y="42" on="0"/>
        <pt x="362" y="-32" on="0"/>
        <pt x="343" y="-61" on="1"/>
        <pt x="329" y="-82" on="0"/>
        <pt x="292" y="-110" on="0"/>
        <pt x="250" y="-127" on="0"/>
        <pt x="205" y="-135" on="0"/>
        <pt x="184" y="-135" on="1"/>
        <pt x="184" y="-98" on="1"/>
        <pt x="243" y="-97" on="0"/>
        <pt x="280" y="-66" on="1"/>
        <pt x="306" y="-43" on="0"/>
        <pt x="324" y="26" on="0"/>
        <pt x="324" y="69" on="1"/>
        <pt x="324" y="630" on="1"/>
      </contour>
    </TTGlyph>
    <TTGlyph name="I_01" xMin="-10" yMin="0" xMax="456" yMax="837">
      <contour>
        <pt x="90" y="592" on="1"/>
        <pt x="-10" y="592" on="1"/>
        <pt x="-10" y="630" on="1"/>
        <pt x="66" y="630" on="1"/>
        <pt x="55" y="642" on="0"/>
        <pt x="36" y="692" on="0"/>
        <pt x="36" y="720" on="1"/>
        <pt x="36" y="776" on="0"/>
        <pt x="110" y="837" on="0"/>
        <pt x="166" y="837" on="1"/>
        <pt x="217" y="837" on="0"/>
        <pt x="306" y="788" on="0"/>
        <pt x="378" y="719" on="0"/>
        <pt x="433" y="645" on="0"/>
        <pt x="451" y="620" on="1"/>
        <pt x="456" y="613" on="1"/>
        <pt x="426" y="594" on="1"/>
        <pt x="421" y="601" on="1"/>
        <pt x="400" y="631" on="0"/>
        <pt x="346" y="700" on="0"/>
        <pt x="283" y="758" on="0"/>
        <pt x="211" y="797" on="0"/>
        <pt x="172" y="797" on="1"/>
        <pt x="129" y="797" on="0"/>
        <pt x="86" y="751" on="0"/>
        <pt x="86" y="713" on="1"/>
        <pt x="86" y="693" on="0"/>
        <pt x="98" y="647" on="0"/>
        <pt x="111" y="630" on="1"/>
        <pt x="238" y="630" on="1"/>
        <pt x="238" y="592" on="1"/>
        <pt x="138" y="592" on="1"/>
        <pt x="138" y="0" on="1"/>
        <pt x="90" y="0" on="1"/>
      </contour>
    </TTGlyph>
    <TTGlyph name="I_02" xMin="-10" yMin="0" xMax="585" yMax="837">
      <contour>
        <pt x="90" y="592" on="1"/>
        <pt x="-10" y="592" on="1"/>
        <pt x="-10" y="630" on="1"/>
        <pt x="80" y="630" on="1"/>
        <pt x="75" y="640" on="0"/>
        <pt x="66" y="674" on="0"/>
        <pt x="66" y="691" on="1"/>
        <pt x="66" y="722" on="0"/>
        <pt x="90" y="776" on="0"/>
        <pt x="137" y="815" on="0"/>
        <pt x="206" y="837" on="0"/>
        <pt x="250" y="837" on="1"/>
        <pt x="316" y="837" on="0"/>
        <pt x="423" y="790" on="0"/>
        <pt x="506" y="723" on="0"/>
        <pt x="563" y="650" on="0"/>
        <pt x="580" y="624" on="1"/>
        <pt x="585" y="616" on="1"/>
        <pt x="552" y="594" on="1"/>
        <pt x="546" y="603" on="1"/>
        <pt x="524" y="636" on="0"/>
        <pt x="465" y="705" on="0"/>
        <pt x="391" y="761" on="0"/>
        <pt x="304" y="797" on="0"/>
        <pt x="253" y="797" on="1"/>
        <pt x="217" y="797" on="0"/>
        <pt x="166" y="779" on="0"/>
        <pt x="132" y="748" on="0"/>
        <pt x="116" y="706" on="0"/>
        <pt x="116" y="683" on="1"/>
        <pt x="116" y="671" on="0"/>
        <pt x="120" y="643" on="0"/>
        <pt x="126" y="630" on="1"/>
        <pt x="238" y="630" on="1"/>
        <pt x="238" y="592" on="1"/>
        <pt x="138" y="592" on="1"/>
        <pt x="138" y="0" on="1"/>
        <pt x="90" y="0" on="1"/>
      </contour>
    </TTGlyph>
    <TTGlyph name="I_03" xMin="-10" yMin="0" xMax="660" yMax="837">
      <contour>
        <pt x="90" y="592" on="1"/>
        <pt x="-10" y="592" on="1"/>
        <pt x="-10" y="630" on="1"/>
        <pt x="79" y="630" on="1"/>
        <pt x="72" y="640" on="0"/>
        <pt x="66" y="673" on="0"/>
        <pt x="66" y="687" on="1"/>
        <pt x="66" y="719" on="0"/>
        <pt x="95" y="774" on="0"/>
        <pt x="150" y="814" on="0"/>
        <pt x="229" y="837" on="0"/>
        <pt x="279" y="837" on="1"/>
        <pt x="352" y="837" on="0"/>
        <pt x="472" y="793" on="0"/>
        <pt x="565" y="728" on="0"/>
        <pt x="633" y="654" on="0"/>
        <pt x="655" y="623" on="1"/>
        <pt x="660" y="616" on="1"/>
        <pt x="627" y="594" on="1"/>
        <pt x="621" y="602" on="1"/>
        <pt x="596" y="635" on="0"/>
        <pt x="529" y="704" on="0"/>
        <pt x="444" y="761" on="0"/>
        <pt x="342" y="797" on="0"/>
        <pt x="282" y="797" on="1"/>
        <pt x="240" y="797" on="0"/>
        <pt x="177" y="778" on="0"/>
        <pt x="136" y="746" on="0"/>
        <pt x="116" y="704" on="0"/>
        <pt x="116" y="681" on="1"/>
        <pt x="116" y="669" on="0"/>
        <pt x="120" y="641" on="0"/>
        <pt x="125" y="630" on="1"/>
        <pt x="238" y="630" on="1"/>
        <pt x="238" y="592" on="1"/>
        <pt x="138" y="592" on="1"/>
        <pt x="138" y="0" on="1"/>
        <pt x="90" y="0" on="1"/>
      </contour>
    </TTGlyph>
    <TTGlyph name="I_04" xMin="-10" yMin="0" xMax="680" yMax="837">
      <contour>
        <pt x="90" y="592" on="1"/>
        <pt x="-10" y="592" on="1"/>
        <pt x="-10" y="630" on="1"/>
        <pt x="79" y="630" on="1"/>
        <pt x="72" y="640" on="0"/>
        <pt x="64" y="671" on="0"/>
        <pt x="64" y="685" on="1"/>
        <pt x="64" y="717" on="0"/>
        <pt x="92" y="773" on="0"/>
        <pt x="148" y="814" on="0"/>
        <pt x="233" y="837" on="0"/>
        <pt x="289" y="837" on="1"/>
        <pt x="366" y="837" on="0"/>
        <pt x="490" y="793" on="0"/>
        <pt x="586" y="729" on="0"/>
        <pt x="654" y="655" on="0"/>
        <pt x="674" y="625" on="1"/>
        <pt x="680" y="616" on="1"/>
        <pt x="648" y="594" on="1"/>
        <pt x="644" y="600" on="1"/>
        <pt x="624" y="629" on="0"/>
        <pt x="558" y="698" on="0"/>
        <pt x="468" y="757" on="0"/>
        <pt x="357" y="797" on="0"/>
        <pt x="292" y="797" on="1"/>
        <pt x="243" y="797" on="0"/>
        <pt x="175" y="777" on="0"/>
        <pt x="133" y="744" on="0"/>
        <pt x="114" y="700" on="0"/>
        <pt x="114" y="677" on="1"/>
        <pt x="114" y="651" on="0"/>
        <pt x="125" y="630" on="1"/>
        <pt x="238" y="630" on="1"/>
        <pt x="238" y="592" on="1"/>
        <pt x="138" y="592" on="1"/>
        <pt x="138" y="0" on="1"/>
        <pt x="90" y="0" on="1"/>
      </contour>
    </TTGlyph>
    <TTGlyph name="I_05" xMin="-10" yMin="0" xMax="719" yMax="837">
      <contour>
        <pt x="90" y="592" on="1"/>
        <pt x="-10" y="592" on="1"/>
        <pt x="-10" y="630" on="1"/>
        <pt x="79" y="630" on="1"/>
        <pt x="72" y="640" on="0"/>
        <pt x="66" y="670" on="0"/>
        <pt x="66" y="684" on="1"/>
        <pt x="66" y="716" on="0"/>
        <pt x="93" y="772" on="0"/>
        <pt x="148" y="813" on="0"/>
        <pt x="232" y="837" on="0"/>
        <pt x="288" y="837" on="1"/>
        <pt x="366" y="837" on="0"/>
        <pt x="500" y="791" on="0"/>
        <pt x="609" y="724" on="0"/>
        <pt x="690" y="651" on="0"/>
        <pt x="713" y="624" on="1"/>
        <pt x="719" y="617" on="1"/>
        <pt x="691" y="594" on="1"/>
        <pt x="683" y="602" on="1"/>
        <pt x="652" y="633" on="0"/>
        <pt x="571" y="701" on="0"/>
        <pt x="472" y="759" on="0"/>
        <pt x="357" y="797" on="0"/>
        <pt x="291" y="797" on="1"/>
        <pt x="242" y="797" on="0"/>
        <pt x="175" y="777" on="0"/>
        <pt x="134" y="744" on="0"/>
        <pt x="116" y="701" on="0"/>
        <pt x="116" y="678" on="1"/>
        <pt x="116" y="666" on="0"/>
        <pt x="121" y="641" on="0"/>
        <pt x="126" y="630" on="1"/>
        <pt x="238" y="630" on="1"/>
        <pt x="238" y="592" on="1"/>
        <pt x="138" y="592" on="1"/>
        <pt x="138" y="0" on="1"/>
        <pt x="90" y="0" on="1"/>
      </contour>
    </TTGlyph>
    <TTGlyph name="I_06" xMin="-10" yMin="0" xMax="742" yMax="837">
      <contour>
        <pt x="79" y="630" on="1"/>
        <pt x="64" y="653" on="0"/>
        <pt x="64" y="684" on="1"/>
        <pt x="64" y="716" on="0"/>
        <pt x="93" y="772" on="0"/>
        <pt x="152" y="813" on="0"/>
        <pt x="240" y="837" on="0"/>
        <pt x="299" y="837" on="1"/>
        <pt x="386" y="837" on="0"/>
        <pt x="529" y="793" on="0"/>
        <pt x="639" y="728" on="0"/>
        <pt x="716" y="654" on="0"/>
        <pt x="737" y="624" on="1"/>
        <pt x="742" y="617" on="1"/>
        <pt x="714" y="594" on="1"/>
        <pt x="707" y="602" on="1"/>
        <pt x="678" y="635" on="0"/>
        <pt x="602" y="704" on="0"/>
        <pt x="503" y="761" on="0"/>
        <pt x="379" y="797" on="0"/>
        <pt x="302" y="797" on="1"/>
        <pt x="251" y="797" on="0"/>
        <pt x="179" y="777" on="0"/>
        <pt x="134" y="744" on="0"/>
        <pt x="114" y="702" on="0"/>
        <pt x="114" y="680" on="1"/>
        <pt x="114" y="668" on="0"/>
        <pt x="119" y="641" on="0"/>
        <pt x="126" y="630" on="1"/>
        <pt x="238" y="630" on="1"/>
        <pt x="238" y="592" on="1"/>
        <pt x="138" y="592" on="1"/>
        <pt x="138" y="0" on="1"/>
        <pt x="90" y="0" on="1"/>
        <pt x="90" y="592" on="1"/>
        <pt x="-10" y="592" on="1"/>
        <pt x="-10" y="630" on="1"/>
      </contour>
    </TTGlyph>
    <TTGlyph name="I_07" xMin="-10" yMin="0" xMax="789" yMax="837">
      <contour>
        <pt x="79" y="630" on="1"/>
        <pt x="64" y="653" on="0"/>
        <pt x="64" y="684" on="1"/>
        <pt x="64" y="716" on="0"/>
        <pt x="94" y="772" on="0"/>
        <pt x="156" y="813" on="0"/>
        <pt x="247" y="837" on="0"/>
        <pt x="309" y="837" on="1"/>
        <pt x="400" y="837" on="0"/>
        <pt x="553" y="790" on="0"/>
        <pt x="674" y="724" on="0"/>
        <pt x="760" y="651" on="0"/>
        <pt x="783" y="624" on="1"/>
        <pt x="789" y="617" on="1"/>
        <pt x="759" y="594" on="1"/>
        <pt x="751" y="602" on="1"/>
        <pt x="718" y="634" on="0"/>
        <pt x="632" y="703" on="0"/>
        <pt x="523" y="760" on="0"/>
        <pt x="391" y="797" on="0"/>
        <pt x="312" y="797" on="1"/>
        <pt x="258" y="797" on="0"/>
        <pt x="183" y="777" on="0"/>
        <pt x="135" y="744" on="0"/>
        <pt x="114" y="702" on="0"/>
        <pt x="114" y="680" on="1"/>
        <pt x="114" y="668" on="0"/>
        <pt x="119" y="641" on="0"/>
        <pt x="126" y="630" on="1"/>
        <pt x="238" y="630" on="1"/>
        <pt x="238" y="592" on="1"/>
        <pt x="138" y="592" on="1"/>
        <pt x="138" y="0" on="1"/>
        <pt x="90" y="0" on="1"/>
        <pt x="90" y="592" on="1"/>
        <pt x="-10" y="592" on="1"/>
        <pt x="-10" y="630" on="1"/>
      </contour>
    </TTGlyph>
    <TTGlyph name="I_08" xMin="-10" yMin="0" xMax="819" yMax="837">
      <contour>
        <pt x="79" y="630" on="1"/>
        <pt x="64" y="653" on="0"/>
        <pt x="64" y="684" on="1"/>
        <pt x="64" y="716" on="0"/>
        <pt x="97" y="772" on="0"/>
        <pt x="163" y="813" on="0"/>
        <pt x="262" y="837" on="0"/>
        <pt x="329" y="837" on="1"/>
        <pt x="429" y="837" on="0"/>
        <pt x="586" y="792" on="0"/>
        <pt x="706" y="727" on="0"/>
        <pt x="788" y="653" on="0"/>
        <pt x="813" y="624" on="1"/>
        <pt x="819" y="617" on="1"/>
        <pt x="791" y="594" on="1"/>
        <pt x="783" y="602" on="1"/>
        <pt x="752" y="633" on="0"/>
        <pt x="672" y="702" on="0"/>
        <pt x="564" y="759" on="0"/>
        <pt x="424" y="797" on="0"/>
        <pt x="332" y="797" on="1"/>
        <pt x="273" y="797" on="0"/>
        <pt x="190" y="777" on="0"/>
        <pt x="138" y="744" on="0"/>
        <pt x="114" y="702" on="0"/>
        <pt x="114" y="680" on="1"/>
        <pt x="114" y="668" on="0"/>
        <pt x="119" y="641" on="0"/>
        <pt x="126" y="630" on="1"/>
        <pt x="238" y="630" on="1"/>
        <pt x="238" y="592" on="1"/>
        <pt x="138" y="592" on="1"/>
        <pt x="138" y="0" on="1"/>
        <pt x="90" y="0" on="1"/>
        <pt x="90" y="592" on="1"/>
        <pt x="-10" y="592" on="1"/>
        <pt x="-10" y="630" on="1"/>
      </contour>
    </TTGlyph>
    <TTGlyph name="I_09" xMin="-10" yMin="0" xMax="879" yMax="837">
      <contour>
        <pt x="79" y="630" on="1"/>
        <pt x="64" y="653" on="0"/>
        <pt x="64" y="684" on="1"/>
        <pt x="64" y="716" on="0"/>
        <pt x="98" y="772" on="0"/>
        <pt x="166" y="813" on="0"/>
        <pt x="270" y="837" on="0"/>
        <pt x="339" y="837" on="1"/>
        <pt x="441" y="837" on="0"/>
        <pt x="616" y="792" on="0"/>
        <pt x="753" y="726" on="0"/>
        <pt x="850" y="652" on="0"/>
        <pt x="874" y="623" on="1"/>
        <pt x="879" y="617" on="1"/>
        <pt x="851" y="594" on="1"/>
        <pt x="844" y="601" on="1"/>
        <pt x="810" y="635" on="0"/>
        <pt x="712" y="705" on="0"/>
        <pt x="586" y="762" on="0"/>
        <pt x="432" y="797" on="0"/>
        <pt x="342" y="797" on="1"/>
        <pt x="280" y="797" on="0"/>
        <pt x="193" y="777" on="0"/>
        <pt x="139" y="744" on="0"/>
        <pt x="114" y="702" on="0"/>
        <pt x="114" y="680" on="1"/>
        <pt x="114" y="668" on="0"/>
        <pt x="119" y="641" on="0"/>
        <pt x="126" y="630" on="1"/>
        <pt x="238" y="630" on="1"/>
        <pt x="238" y="592" on="1"/>
        <pt x="138" y="592" on="1"/>
        <pt x="138" y="0" on="1"/>
        <pt x="90" y="0" on="1"/>
        <pt x="90" y="592" on="1"/>
        <pt x="-10" y="592" on="1"/>
        <pt x="-10" y="630" on="1"/>
      </contour>
    </TTGlyph>
    <TTGlyph name="I_10" xMin="-10" yMin="0" xMax="909" yMax="837">
      <contour>
        <pt x="79" y="630" on="1"/>
        <pt x="64" y="653" on="0"/>
        <pt x="64" y="684" on="1"/>
        <pt x="64" y="716" on="0"/>
        <pt x="98" y="772" on="0"/>
        <pt x="166" y="813" on="0"/>
        <pt x="270" y="837" on="0"/>
        <pt x="339" y="837" on="1"/>
        <pt x="447" y="837" on="0"/>
        <pt x="630" y="791" on="0"/>
        <pt x="775" y="725" on="0"/>
        <pt x="877" y="652" on="0"/>
        <pt x="903" y="625" on="1"/>
        <pt x="909" y="619" on="1"/>
        <pt x="881" y="593" on="1"/>
        <pt x="873" y="600" on="1"/>
        <pt x="837" y="631" on="0"/>
        <pt x="734" y="700" on="0"/>
        <pt x="601" y="759" on="0"/>
        <pt x="438" y="797" on="0"/>
        <pt x="342" y="797" on="1"/>
        <pt x="280" y="797" on="0"/>
        <pt x="193" y="777" on="0"/>
        <pt x="139" y="744" on="0"/>
        <pt x="114" y="702" on="0"/>
        <pt x="114" y="680" on="1"/>
        <pt x="114" y="668" on="0"/>
        <pt x="119" y="641" on="0"/>
        <pt x="126" y="630" on="1"/>
        <pt x="238" y="630" on="1"/>
        <pt x="238" y="592" on="1"/>
        <pt x="138" y="592" on="1"/>
        <pt x="138" y="0" on="1"/>
        <pt x="90" y="0" on="1"/>
        <pt x="90" y="592" on="1"/>
        <pt x="-10" y="592" on="1"/>
        <pt x="-10" y="630" on="1"/>
      </contour>
    </TTGlyph>
    <TTGlyph name="I_11" xMin="-10" yMin="0" xMax="979" yMax="837">
      <contour>
        <pt x="79" y="630" on="1"/>
        <pt x="64" y="653" on="0"/>
        <pt x="64" y="684" on="1"/>
        <pt x="64" y="716" on="0"/>
        <pt x="100" y="772" on="0"/>
        <pt x="174" y="813" on="0"/>
        <pt x="284" y="837" on="0"/>
        <pt x="359" y="837" on="1"/>
        <pt x="476" y="837" on="0"/>
        <pt x="675" y="792" on="0"/>
        <pt x="832" y="727" on="0"/>
        <pt x="944" y="654" on="0"/>
        <pt x="973" y="625" on="1"/>
        <pt x="979" y="619" on="1"/>
        <pt x="951" y="592" on="1"/>
        <pt x="943" y="599" on="1"/>
        <pt x="905" y="631" on="0"/>
        <pt x="790" y="701" on="0"/>
        <pt x="642" y="759" on="0"/>
        <pt x="463" y="797" on="0"/>
        <pt x="362" y="797" on="1"/>
        <pt x="295" y="797" on="0"/>
        <pt x="201" y="777" on="0"/>
        <pt x="141" y="744" on="0"/>
        <pt x="114" y="702" on="0"/>
        <pt x="114" y="680" on="1"/>
        <pt x="114" y="668" on="0"/>
        <pt x="119" y="641" on="0"/>
        <pt x="126" y="630" on="1"/>
        <pt x="238" y="630" on="1"/>
        <pt x="238" y="592" on="1"/>
        <pt x="138" y="592" on="1"/>
        <pt x="138" y="0" on="1"/>
        <pt x="90" y="0" on="1"/>
        <pt x="90" y="592" on="1"/>
        <pt x="-10" y="592" on="1"/>
        <pt x="-10" y="630" on="1"/>
      </contour>
    </TTGlyph>
    <TTGlyph name="I_12" xMin="-10" yMin="0" xMax="1007" yMax="837">
      <contour>
        <pt x="79" y="630" on="1"/>
        <pt x="64" y="653" on="0"/>
        <pt x="64" y="684" on="1"/>
        <pt x="64" y="716" on="0"/>
        <pt x="100" y="772" on="0"/>
        <pt x="174" y="813" on="0"/>
        <pt x="284" y="837" on="0"/>
        <pt x="359" y="837" on="1"/>
        <pt x="482" y="837" on="0"/>
        <pt x="689" y="791" on="0"/>
        <pt x="852" y="726" on="0"/>
        <pt x="968" y="653" on="0"/>
        <pt x="1000" y="626" on="1"/>
        <pt x="1007" y="620" on="1"/>
        <pt x="982" y="594" on="1"/>
        <pt x="973" y="601" on="1"/>
        <pt x="931" y="634" on="0"/>
        <pt x="807" y="703" on="0"/>
        <pt x="651" y="760" on="0"/>
        <pt x="465" y="797" on="0"/>
        <pt x="362" y="797" on="1"/>
        <pt x="295" y="797" on="0"/>
        <pt x="201" y="777" on="0"/>
        <pt x="141" y="744" on="0"/>
        <pt x="114" y="702" on="0"/>
        <pt x="114" y="680" on="1"/>
        <pt x="114" y="668" on="0"/>
        <pt x="119" y="641" on="0"/>
        <pt x="126" y="630" on="1"/>
        <pt x="238" y="630" on="1"/>
        <pt x="238" y="592" on="1"/>
        <pt x="138" y="592" on="1"/>
        <pt x="138" y="0" on="1"/>
        <pt x="90" y="0" on="1"/>
        <pt x="90" y="592" on="1"/>
        <pt x="-10" y="592" on="1"/>
        <pt x="-10" y="630" on="1"/>
      </contour>
    </TTGlyph>
    <TTGlyph name="I_13" xMin="-10" yMin="0" xMax="1049" yMax="837">
      <contour>
        <pt x="79" y="630" on="1"/>
        <pt x="64" y="653" on="0"/>
        <pt x="64" y="684" on="1"/>
        <pt x="64" y="716" on="0"/>
        <pt x="101" y="772" on="0"/>
        <pt x="177" y="813" on="0"/>
        <pt x="292" y="837" on="0"/>
        <pt x="369" y="837" on="1"/>
        <pt x="497" y="837" on="0"/>
        <pt x="715" y="795" on="0"/>
        <pt x="887" y="732" on="0"/>
        <pt x="1010" y="658" on="0"/>
        <pt x="1043" y="625" on="1"/>
        <pt x="1049" y="619" on="1"/>
        <pt x="1022" y="594" on="1"/>
        <pt x="1014" y="601" on="1"/>
        <pt x="973" y="637" on="0"/>
        <pt x="847" y="707" on="0"/>
        <pt x="683" y="762" on="0"/>
        <pt x="485" y="797" on="0"/>
        <pt x="372" y="797" on="1"/>
        <pt x="302" y="797" on="0"/>
        <pt x="204" y="777" on="0"/>
        <pt x="142" y="744" on="0"/>
        <pt x="114" y="702" on="0"/>
        <pt x="114" y="680" on="1"/>
        <pt x="114" y="668" on="0"/>
        <pt x="119" y="641" on="0"/>
        <pt x="126" y="630" on="1"/>
        <pt x="238" y="630" on="1"/>
        <pt x="238" y="592" on="1"/>
        <pt x="138" y="592" on="1"/>
        <pt x="138" y="0" on="1"/>
        <pt x="90" y="0" on="1"/>
        <pt x="90" y="592" on="1"/>
        <pt x="-10" y="592" on="1"/>
        <pt x="-10" y="630" on="1"/>
      </contour>
    </TTGlyph>
    <TTGlyph name="I_14" xMin="-10" yMin="0" xMax="1111" yMax="837">
      <contour>
        <pt x="79" y="630" on="1"/>
        <pt x="64" y="653" on="0"/>
        <pt x="64" y="684" on="1"/>
        <pt x="64" y="716" on="0"/>
        <pt x="104" y="772" on="0"/>
        <pt x="184" y="813" on="0"/>
        <pt x="306" y="837" on="0"/>
        <pt x="389" y="837" on="1"/>
        <pt x="529" y="837" on="0"/>
        <pt x="757" y="796" on="0"/>
        <pt x="936" y="734" on="0"/>
        <pt x="1065" y="659" on="0"/>
        <pt x="1105" y="626" on="1"/>
        <pt x="1111" y="621" on="1"/>
        <pt x="1088" y="593" on="1"/>
        <pt x="1079" y="600" on="1"/>
        <pt x="1034" y="635" on="0"/>
        <pt x="901" y="706" on="0"/>
        <pt x="728" y="762" on="0"/>
        <pt x="516" y="797" on="0"/>
        <pt x="392" y="797" on="1"/>
        <pt x="317" y="797" on="0"/>
        <pt x="211" y="777" on="0"/>
        <pt x="145" y="744" on="0"/>
        <pt x="114" y="702" on="0"/>
        <pt x="114" y="680" on="1"/>
        <pt x="114" y="668" on="0"/>
        <pt x="119" y="641" on="0"/>
        <pt x="126" y="630" on="1"/>
        <pt x="238" y="630" on="1"/>
        <pt x="238" y="592" on="1"/>
        <pt x="138" y="592" on="1"/>
        <pt x="138" y="0" on="1"/>
        <pt x="90" y="0" on="1"/>
        <pt x="90" y="592" on="1"/>
        <pt x="-10" y="592" on="1"/>
        <pt x="-10" y="630" on="1"/>
      </contour>
    </TTGlyph>
    <TTGlyph name="I_15" xMin="-10" yMin="0" xMax="1149" yMax="837">
      <contour>
        <pt x="79" y="630" on="1"/>
        <pt x="66" y="650" on="0"/>
        <pt x="66" y="679" on="1"/>
        <pt x="66" y="711" on="0"/>
        <pt x="109" y="769" on="0"/>
        <pt x="196" y="812" on="0"/>
        <pt x="329" y="837" on="0"/>
        <pt x="419" y="837" on="1"/>
        <pt x="560" y="837" on="0"/>
        <pt x="787" y="800" on="0"/>
        <pt x="965" y="740" on="0"/>
        <pt x="1096" y="664" on="0"/>
        <pt x="1142" y="625" on="1"/>
        <pt x="1149" y="619" on="1"/>
        <pt x="1119" y="593" on="1"/>
        <pt x="1111" y="600" on="1"/>
        <pt x="1073" y="633" on="0"/>
        <pt x="949" y="702" on="0"/>
        <pt x="777" y="760" on="0"/>
        <pt x="556" y="797" on="0"/>
        <pt x="422" y="797" on="1"/>
        <pt x="339" y="797" on="0"/>
        <pt x="223" y="776" on="0"/>
        <pt x="149" y="741" on="0"/>
        <pt x="116" y="695" on="0"/>
        <pt x="116" y="671" on="1"/>
        <pt x="116" y="657" on="0"/>
        <pt x="121" y="640" on="0"/>
        <pt x="126" y="630" on="1"/>
        <pt x="238" y="630" on="1"/>
        <pt x="238" y="592" on="1"/>
        <pt x="138" y="592" on="1"/>
        <pt x="138" y="0" on="1"/>
        <pt x="90" y="0" on="1"/>
        <pt x="90" y="592" on="1"/>
        <pt x="-10" y="592" on="1"/>
        <pt x="-10" y="630" on="1"/>
      </contour>
    </TTGlyph>
    <TTGlyph name="I_16" xMin="-10" yMin="0" xMax="1216" yMax="837">
      <contour>
        <pt x="79" y="630" on="1"/>
        <pt x="66" y="650" on="0"/>
        <pt x="66" y="679" on="1"/>
        <pt x="66" y="711" on="0"/>
        <pt x="109" y="769" on="0"/>
        <pt x="196" y="812" on="0"/>
        <pt x="329" y="837" on="0"/>
        <pt x="419" y="837" on="1"/>
        <pt x="573" y="837" on="0"/>
        <pt x="828" y="798" on="0"/>
        <pt x="1026" y="736" on="0"/>
        <pt x="1167" y="661" on="0"/>
        <pt x="1209" y="625" on="1"/>
        <pt x="1216" y="619" on="1"/>
        <pt x="1189" y="592" on="1"/>
        <pt x="1180" y="599" on="1"/>
        <pt x="1137" y="633" on="0"/>
        <pt x="998" y="703" on="0"/>
        <pt x="808" y="760" on="0"/>
        <pt x="567" y="797" on="0"/>
        <pt x="422" y="797" on="1"/>
        <pt x="339" y="797" on="0"/>
        <pt x="223" y="776" on="0"/>
        <pt x="149" y="741" on="0"/>
        <pt x="116" y="695" on="0"/>
        <pt x="116" y="671" on="1"/>
        <pt x="116" y="657" on="0"/>
        <pt x="121" y="640" on="0"/>
        <pt x="126" y="630" on="1"/>
        <pt x="238" y="630" on="1"/>
        <pt x="238" y="592" on="1"/>
        <pt x="138" y="592" on="1"/>
        <pt x="138" y="0" on="1"/>
        <pt x="90" y="0" on="1"/>
        <pt x="90" y="592" on="1"/>
        <pt x="-10" y="592" on="1"/>
        <pt x="-10" y="630" on="1"/>
      </contour>
    </TTGlyph>
    <TTGlyph name="I_17" xMin="-10" yMin="0" xMax="1279" yMax="837">
      <contour>
        <pt x="79" y="630" on="1"/>
        <pt x="66" y="650" on="0"/>
        <pt x="66" y="679" on="1"/>
        <pt x="66" y="711" on="0"/>
        <pt x="111" y="769" on="0"/>
        <pt x="203" y="812" on="0"/>
        <pt x="343" y="837" on="0"/>
        <pt x="439" y="837" on="1"/>
        <pt x="601" y="837" on="0"/>
        <pt x="869" y="797" on="0"/>
        <pt x="1079" y="735" on="0"/>
        <pt x="1229" y="660" on="0"/>
        <pt x="1272" y="625" on="1"/>
        <pt x="1279" y="619" on="1"/>
        <pt x="1252" y="594" on="1"/>
        <pt x="1243" y="601" on="1"/>
        <pt x="1195" y="635" on="0"/>
        <pt x="1046" y="705" on="0"/>
        <pt x="846" y="761" on="0"/>
        <pt x="594" y="797" on="0"/>
        <pt x="442" y="797" on="1"/>
        <pt x="354" y="797" on="0"/>
        <pt x="230" y="776" on="0"/>
        <pt x="152" y="741" on="0"/>
        <pt x="116" y="695" on="0"/>
        <pt x="116" y="671" on="1"/>
        <pt x="116" y="657" on="0"/>
        <pt x="121" y="640" on="0"/>
        <pt x="126" y="630" on="1"/>
        <pt x="238" y="630" on="1"/>
        <pt x="238" y="592" on="1"/>
        <pt x="138" y="592" on="1"/>
        <pt x="138" y="0" on="1"/>
        <pt x="90" y="0" on="1"/>
        <pt x="90" y="592" on="1"/>
        <pt x="-10" y="592" on="1"/>
        <pt x="-10" y="630" on="1"/>
      </contour>
    </TTGlyph>
    <TTGlyph name="I_18" xMin="-10" yMin="0" xMax="1329" yMax="837">
      <contour>
        <pt x="79" y="630" on="1"/>
        <pt x="66" y="650" on="0"/>
        <pt x="66" y="679" on="1"/>
        <pt x="66" y="711" on="0"/>
        <pt x="113" y="769" on="0"/>
        <pt x="210" y="812" on="0"/>
        <pt x="358" y="837" on="0"/>
        <pt x="459" y="837" on="1"/>
        <pt x="627" y="837" on="0"/>
        <pt x="905" y="797" on="0"/>
        <pt x="1123" y="735" on="0"/>
        <pt x="1278" y="660" on="0"/>
        <pt x="1322" y="625" on="1"/>
        <pt x="1329" y="619" on="1"/>
        <pt x="1302" y="594" on="1"/>
        <pt x="1293" y="601" on="1"/>
        <pt x="1242" y="635" on="0"/>
        <pt x="1088" y="705" on="0"/>
        <pt x="881" y="761" on="0"/>
        <pt x="620" y="797" on="0"/>
        <pt x="462" y="797" on="1"/>
        <pt x="369" y="797" on="0"/>
        <pt x="237" y="776" on="0"/>
        <pt x="154" y="741" on="0"/>
        <pt x="116" y="695" on="0"/>
        <pt x="116" y="671" on="1"/>
        <pt x="116" y="657" on="0"/>
        <pt x="121" y="640" on="0"/>
        <pt x="126" y="630" on="1"/>
        <pt x="238" y="630" on="1"/>
        <pt x="238" y="592" on="1"/>
        <pt x="138" y="592" on="1"/>
        <pt x="138" y="0" on="1"/>
        <pt x="90" y="0" on="1"/>
        <pt x="90" y="592" on="1"/>
        <pt x="-10" y="592" on="1"/>
        <pt x="-10" y="630" on="1"/>
      </contour>
    </TTGlyph>
    <TTGlyph name="I_19" xMin="-10" yMin="0" xMax="1357" yMax="837">
      <contour>
        <pt x="79" y="630" on="1"/>
        <pt x="66" y="650" on="0"/>
        <pt x="66" y="679" on="1"/>
        <pt x="66" y="711" on="0"/>
        <pt x="115" y="769" on="0"/>
        <pt x="217" y="812" on="0"/>
        <pt x="373" y="837" on="0"/>
        <pt x="479" y="837" on="1"/>
        <pt x="648" y="837" on="0"/>
        <pt x="925" y="799" on="0"/>
        <pt x="1141" y="739" on="0"/>
        <pt x="1299" y="664" on="0"/>
        <pt x="1349" y="626" on="1"/>
        <pt x="1357" y="620" on="1"/>
        <pt x="1338" y="592" on="1"/>
        <pt x="1327" y="599" on="1"/>
        <pt x="1269" y="636" on="0"/>
        <pt x="1111" y="707" on="0"/>
        <pt x="902" y="763" on="0"/>
        <pt x="642" y="797" on="0"/>
        <pt x="482" y="797" on="1"/>
        <pt x="383" y="797" on="0"/>
        <pt x="244" y="776" on="0"/>
        <pt x="156" y="741" on="0"/>
        <pt x="116" y="695" on="0"/>
        <pt x="116" y="671" on="1"/>
        <pt x="116" y="657" on="0"/>
        <pt x="121" y="640" on="0"/>
        <pt x="126" y="630" on="1"/>
        <pt x="238" y="630" on="1"/>
        <pt x="238" y="592" on="1"/>
        <pt x="138" y="592" on="1"/>
        <pt x="138" y="0" on="1"/>
        <pt x="90" y="0" on="1"/>
        <pt x="90" y="592" on="1"/>
        <pt x="-10" y="592" on="1"/>
        <pt x="-10" y="630" on="1"/>
      </contour>
    </TTGlyph>
    <TTGlyph name="I_20" xMin="-10" yMin="0" xMax="1456" yMax="837">
      <contour>
        <pt x="79" y="630" on="1"/>
        <pt x="66" y="650" on="0"/>
        <pt x="66" y="679" on="1"/>
        <pt x="66" y="711" on="0"/>
        <pt x="118" y="769" on="0"/>
        <pt x="224" y="812" on="0"/>
        <pt x="388" y="837" on="0"/>
        <pt x="499" y="837" on="1"/>
        <pt x="683" y="837" on="0"/>
        <pt x="988" y="799" on="0"/>
        <pt x="1227" y="739" on="0"/>
        <pt x="1397" y="663" on="0"/>
        <pt x="1448" y="625" on="1"/>
        <pt x="1456" y="619" on="1"/>
        <pt x="1435" y="594" on="1"/>
        <pt x="1429" y="598" on="1"/>
        <pt x="1380" y="631" on="0"/>
        <pt x="1214" y="701" on="0"/>
        <pt x="981" y="759" on="0"/>
        <pt x="683" y="797" on="0"/>
        <pt x="502" y="797" on="1"/>
        <pt x="398" y="797" on="0"/>
        <pt x="252" y="776" on="0"/>
        <pt x="159" y="741" on="0"/>
        <pt x="116" y="695" on="0"/>
        <pt x="116" y="671" on="1"/>
        <pt x="116" y="657" on="0"/>
        <pt x="121" y="640" on="0"/>
        <pt x="126" y="630" on="1"/>
        <pt x="238" y="630" on="1"/>
        <pt x="238" y="592" on="1"/>
        <pt x="138" y="592" on="1"/>
        <pt x="138" y="0" on="1"/>
        <pt x="90" y="0" on="1"/>
        <pt x="90" y="592" on="1"/>
        <pt x="-10" y="592" on="1"/>
        <pt x="-10" y="630" on="1"/>
      </contour>
    </TTGlyph>
    <TTGlyph name="I_21" xMin="-10" yMin="0" xMax="1543" yMax="837">
      <contour>
        <pt x="79" y="630" on="1"/>
        <pt x="66" y="650" on="0"/>
        <pt x="66" y="679" on="1"/>
        <pt x="66" y="711" on="0"/>
        <pt x="119" y="769" on="0"/>
        <pt x="228" y="812" on="0"/>
        <pt x="395" y="837" on="0"/>
        <pt x="509" y="837" on="1"/>
        <pt x="708" y="837" on="0"/>
        <pt x="1040" y="798" on="0"/>
        <pt x="1300" y="737" on="0"/>
        <pt x="1484" y="662" on="0"/>
        <pt x="1536" y="625" on="1"/>
        <pt x="1543" y="620" on="1"/>
        <pt x="1520" y="593" on="1"/>
        <pt x="1511" y="599" on="1"/>
        <pt x="1458" y="634" on="0"/>
        <pt x="1275" y="704" on="0"/>
        <pt x="1022" y="761" on="0"/>
        <pt x="702" y="797" on="0"/>
        <pt x="512" y="797" on="1"/>
        <pt x="405" y="797" on="0"/>
        <pt x="255" y="776" on="0"/>
        <pt x="160" y="741" on="0"/>
        <pt x="116" y="695" on="0"/>
        <pt x="116" y="671" on="1"/>
        <pt x="116" y="657" on="0"/>
        <pt x="121" y="640" on="0"/>
        <pt x="126" y="630" on="1"/>
        <pt x="238" y="630" on="1"/>
        <pt x="238" y="592" on="1"/>
        <pt x="138" y="592" on="1"/>
        <pt x="138" y="0" on="1"/>
        <pt x="90" y="0" on="1"/>
        <pt x="90" y="592" on="1"/>
        <pt x="-10" y="592" on="1"/>
        <pt x="-10" y="630" on="1"/>
      </contour>
    </TTGlyph>
    <TTGlyph name="I_22" xMin="-10" yMin="0" xMax="1630" yMax="837">
      <contour>
        <pt x="79" y="630" on="1"/>
        <pt x="74" y="639" on="0"/>
        <pt x="68" y="659" on="0"/>
        <pt x="68" y="673" on="1"/>
        <pt x="68" y="705" on="0"/>
        <pt x="115" y="765" on="0"/>
        <pt x="225" y="810" on="0"/>
        <pt x="406" y="837" on="0"/>
        <pt x="539" y="837" on="1"/>
        <pt x="765" y="837" on="0"/>
        <pt x="1120" y="797" on="0"/>
        <pt x="1387" y="736" on="0"/>
        <pt x="1570" y="661" on="0"/>
        <pt x="1624" y="625" on="1"/>
        <pt x="1630" y="621" on="1"/>
        <pt x="1609" y="592" on="1"/>
        <pt x="1604" y="595" on="1"/>
        <pt x="1546" y="629" on="0"/>
        <pt x="1364" y="701" on="0"/>
        <pt x="1104" y="760" on="0"/>
        <pt x="761" y="797" on="0"/>
        <pt x="542" y="797" on="1"/>
        <pt x="420" y="797" on="0"/>
        <pt x="257" y="774" on="0"/>
        <pt x="159" y="737" on="0"/>
        <pt x="118" y="689" on="0"/>
        <pt x="118" y="665" on="1"/>
        <pt x="118" y="651" on="0"/>
        <pt x="122" y="636" on="0"/>
        <pt x="126" y="630" on="1"/>
        <pt x="238" y="630" on="1"/>
        <pt x="238" y="592" on="1"/>
        <pt x="138" y="592" on="1"/>
        <pt x="138" y="0" on="1"/>
        <pt x="90" y="0" on="1"/>
        <pt x="90" y="592" on="1"/>
        <pt x="-10" y="592" on="1"/>
        <pt x="-10" y="630" on="1"/>
      </contour>
    </TTGlyph>
    <TTGlyph name="I_23" xMin="-10" yMin="0" xMax="1977" yMax="837">
      <contour>
        <pt x="79" y="630" on="1"/>
        <pt x="74" y="639" on="0"/>
        <pt x="68" y="659" on="0"/>
        <pt x="68" y="673" on="1"/>
        <pt x="68" y="694" on="0"/>
        <pt x="85" y="736" on="0"/>
        <pt x="130" y="772" on="0"/>
        <pt x="208" y="803" on="0"/>
        <pt x="331" y="825" on="0"/>
        <pt x="503" y="837" on="0"/>
        <pt x="619" y="837" on="1"/>
        <pt x="897" y="837" on="0"/>
        <pt x="1348" y="803" on="0"/>
        <pt x="1689" y="746" on="0"/>
        <pt x="1915" y="670" on="0"/>
        <pt x="1968" y="628" on="1"/>
        <pt x="1977" y="621" on="1"/>
        <pt x="1958" y="595" on="1"/>
        <pt x="1949" y="601" on="1"/>
        <pt x="1889" y="641" on="0"/>
        <pt x="1655" y="713" on="0"/>
        <pt x="1318" y="766" on="0"/>
        <pt x="883" y="797" on="0"/>
        <pt x="622" y="797" on="1"/>
        <pt x="460" y="797" on="0"/>
        <pt x="262" y="774" on="0"/>
        <pt x="154" y="737" on="0"/>
        <pt x="118" y="689" on="0"/>
        <pt x="118" y="665" on="1"/>
        <pt x="118" y="651" on="0"/>
        <pt x="122" y="636" on="0"/>
        <pt x="126" y="630" on="1"/>
        <pt x="238" y="630" on="1"/>
        <pt x="238" y="592" on="1"/>
        <pt x="138" y="592" on="1"/>
        <pt x="138" y="0" on="1"/>
        <pt x="90" y="0" on="1"/>
        <pt x="90" y="592" on="1"/>
        <pt x="-10" y="592" on="1"/>
        <pt x="-10" y="630" on="1"/>
      </contour>
    </TTGlyph>
    <TTGlyph name="Iacute" xMin="80" yMin="0" xMax="233" yMax="834">
      <contour>
        <pt x="132" y="630" on="1"/>
        <pt x="132" y="0" on="1"/>
        <pt x="80" y="0" on="1"/>
        <pt x="80" y="630" on="1"/>
      </contour>
      <contour>
        <pt x="122" y="710" on="1"/>
        <pt x="80" y="710" on="1"/>
        <pt x="170" y="834" on="1"/>
        <pt x="233" y="834" on="1"/>
      </contour>
    </TTGlyph>
    <TTGlyph name="Ibreve" xMin="-30" yMin="0" xMax="239" yMax="834">
      <contour>
        <pt x="132" y="630" on="1"/>
        <pt x="132" y="0" on="1"/>
        <pt x="80" y="0" on="1"/>
        <pt x="80" y="630" on="1"/>
      </contour>
      <contour>
        <pt x="18" y="834" on="1"/>
        <pt x="19" y="796" on="0"/>
        <pt x="59" y="750" on="0"/>
        <pt x="106" y="750" on="1"/>
        <pt x="145" y="750" on="0"/>
        <pt x="190" y="794" on="0"/>
        <pt x="191" y="834" on="1"/>
        <pt x="239" y="834" on="1"/>
        <pt x="239" y="780" on="0"/>
        <pt x="171" y="710" on="0"/>
        <pt x="106" y="710" on="1"/>
        <pt x="70" y="710" on="0"/>
        <pt x="19" y="730" on="0"/>
        <pt x="-14" y="765" on="0"/>
        <pt x="-30" y="810" on="0"/>
        <pt x="-30" y="834" on="1"/>
      </contour>
    </TTGlyph>
    <TTGlyph name="Icircumflex" xMin="-38" yMin="0" xMax="258" yMax="844">
      <contour>
        <pt x="132" y="630" on="1"/>
        <pt x="132" y="0" on="1"/>
        <pt x="80" y="0" on="1"/>
        <pt x="80" y="630" on="1"/>
      </contour>
      <contour>
        <pt x="84" y="844" on="1"/>
        <pt x="133" y="844" on="1"/>
        <pt x="258" y="710" on="1"/>
        <pt x="198" y="710" on="1"/>
        <pt x="108" y="809" on="1"/>
        <pt x="18" y="710" on="1"/>
        <pt x="-38" y="710" on="1"/>
      </contour>
    </TTGlyph>
    <TTGlyph name="Idieresis" xMin="-19" yMin="0" xMax="231" yMax="810">
      <contour>
        <pt x="132" y="630" on="1"/>
        <pt x="132" y="0" on="1"/>
        <pt x="80" y="0" on="1"/>
        <pt x="80" y="630" on="1"/>
      </contour>
      <contour>
        <pt x="-19" y="766" on="1"/>
        <pt x="-19" y="786" on="0"/>
        <pt x="4" y="810" on="0"/>
        <pt x="21" y="810" on="1"/>
        <pt x="38" y="810" on="0"/>
        <pt x="61" y="786" on="0"/>
        <pt x="61" y="766" on="1"/>
        <pt x="61" y="745" on="0"/>
        <pt x="38" y="722" on="0"/>
        <pt x="21" y="722" on="1"/>
        <pt x="4" y="722" on="0"/>
        <pt x="-19" y="745" on="0"/>
      </contour>
      <contour>
        <pt x="151" y="766" on="1"/>
        <pt x="151" y="786" on="0"/>
        <pt x="174" y="810" on="0"/>
        <pt x="191" y="810" on="1"/>
        <pt x="208" y="810" on="0"/>
        <pt x="231" y="786" on="0"/>
        <pt x="231" y="766" on="1"/>
        <pt x="231" y="745" on="0"/>
        <pt x="208" y="722" on="0"/>
        <pt x="191" y="722" on="1"/>
        <pt x="174" y="722" on="0"/>
        <pt x="151" y="745" on="0"/>
      </contour>
    </TTGlyph>
    <TTGlyph name="Idotaccent" xMin="66" yMin="0" xMax="146" yMax="822">
      <contour>
        <pt x="132" y="630" on="1"/>
        <pt x="132" y="0" on="1"/>
        <pt x="80" y="0" on="1"/>
        <pt x="80" y="630" on="1"/>
      </contour>
      <contour>
        <pt x="66" y="778" on="1"/>
        <pt x="66" y="798" on="0"/>
        <pt x="89" y="822" on="0"/>
        <pt x="106" y="822" on="1"/>
        <pt x="123" y="822" on="0"/>
        <pt x="146" y="798" on="0"/>
        <pt x="146" y="778" on="1"/>
        <pt x="146" y="757" on="0"/>
        <pt x="123" y="734" on="0"/>
        <pt x="106" y="734" on="1"/>
        <pt x="89" y="734" on="0"/>
        <pt x="66" y="757" on="0"/>
      </contour>
    </TTGlyph>
    <TTGlyph name="Igrave" xMin="-20" yMin="0" xMax="133" yMax="834">
      <contour>
        <pt x="132" y="630" on="1"/>
        <pt x="132" y="0" on="1"/>
        <pt x="80" y="0" on="1"/>
        <pt x="80" y="630" on="1"/>
      </contour>
      <contour>
        <pt x="-20" y="834" on="1"/>
        <pt x="43" y="834" on="1"/>
        <pt x="133" y="710" on="1"/>
        <pt x="91" y="710" on="1"/>
      </contour>
    </TTGlyph>
    <TTGlyph name="Imacron" xMin="-16" yMin="0" xMax="229" yMax="772">
      <contour>
        <pt x="132" y="630" on="1"/>
        <pt x="132" y="0" on="1"/>
        <pt x="80" y="0" on="1"/>
        <pt x="80" y="630" on="1"/>
      </contour>
      <contour>
        <pt x="229" y="772" on="1"/>
        <pt x="229" y="730" on="1"/>
        <pt x="-16" y="730" on="1"/>
        <pt x="-16" y="772" on="1"/>
      </contour>
    </TTGlyph>
    <TTGlyph name="Iogonek" xMin="2" yMin="-205" xMax="189" yMax="630">
      <contour>
        <pt x="132" y="0" on="1"/>
        <pt x="91" y="-24" on="0"/>
        <pt x="51" y="-71" on="0"/>
        <pt x="51" y="-105" on="1"/>
        <pt x="51" y="-134" on="0"/>
        <pt x="93" y="-166" on="0"/>
        <pt x="126" y="-166" on="1"/>
        <pt x="144" y="-166" on="0"/>
        <pt x="171" y="-160" on="0"/>
        <pt x="181" y="-155" on="1"/>
        <pt x="189" y="-185" on="1"/>
        <pt x="175" y="-194" on="0"/>
        <pt x="136" y="-205" on="0"/>
        <pt x="113" y="-205" on="1"/>
        <pt x="67" y="-205" on="0"/>
        <pt x="2" y="-156" on="0"/>
        <pt x="2" y="-109" on="1"/>
        <pt x="2" y="-71" on="0"/>
        <pt x="48" y="-16" on="0"/>
        <pt x="80" y="0" on="1"/>
        <pt x="80" y="630" on="1"/>
        <pt x="132" y="630" on="1"/>
      </contour>
    </TTGlyph>
    <TTGlyph name="Ismall" xMin="68" yMin="0" xMax="116" yMax="470">
      <contour>
        <pt x="116" y="470" on="1"/>
        <pt x="116" y="0" on="1"/>
        <pt x="68" y="0" on="1"/>
        <pt x="68" y="470" on="1"/>
      </contour>
    </TTGlyph>
    <TTGlyph name="Itilde" xMin="-46" yMin="0" xMax="257" yMax="818">
      <contour>
        <pt x="132" y="630" on="1"/>
        <pt x="132" y="0" on="1"/>
        <pt x="80" y="0" on="1"/>
        <pt x="80" y="630" on="1"/>
      </contour>
      <contour>
        <pt x="-46" y="715" on="1"/>
        <pt x="-46" y="757" on="0"/>
        <pt x="-5" y="815" on="0"/>
        <pt x="41" y="815" on="1"/>
        <pt x="63" y="815" on="0"/>
        <pt x="95" y="798" on="0"/>
        <pt x="123" y="778" on="0"/>
        <pt x="151" y="761" on="0"/>
        <pt x="168" y="761" on="1"/>
        <pt x="194" y="761" on="0"/>
        <pt x="215" y="793" on="0"/>
        <pt x="217" y="818" on="1"/>
        <pt x="257" y="818" on="1"/>
        <pt x="257" y="799" on="0"/>
        <pt x="246" y="764" on="0"/>
        <pt x="225" y="737" on="0"/>
        <pt x="194" y="721" on="0"/>
        <pt x="173" y="721" on="1"/>
        <pt x="150" y="721" on="0"/>
        <pt x="114" y="738" on="0"/>
        <pt x="84" y="758" on="0"/>
        <pt x="57" y="775" on="0"/>
        <pt x="44" y="775" on="1"/>
        <pt x="18" y="775" on="0"/>
        <pt x="-4" y="739" on="0"/>
        <pt x="-6" y="715" on="1"/>
      </contour>
    </TTGlyph>
    <TTGlyph name="J" xMin="-15" yMin="-135" xMax="177" yMax="630">
      <contour>
        <pt x="177" y="630" on="1"/>
        <pt x="177" y="104" on="1"/>
        <pt x="177" y="42" on="0"/>
        <pt x="163" y="-32" on="0"/>
        <pt x="144" y="-61" on="1"/>
        <pt x="130" y="-82" on="0"/>
        <pt x="93" y="-110" on="0"/>
        <pt x="51" y="-127" on="0"/>
        <pt x="6" y="-135" on="0"/>
        <pt x="-15" y="-135" on="1"/>
        <pt x="-15" y="-98" on="1"/>
        <pt x="44" y="-97" on="0"/>
        <pt x="81" y="-66" on="1"/>
        <pt x="107" y="-43" on="0"/>
        <pt x="125" y="26" on="0"/>
        <pt x="125" y="69" on="1"/>
        <pt x="125" y="630" on="1"/>
      </contour>
    </TTGlyph>
    <TTGlyph name="Jcircumflex" xMin="-15" yMin="-135" xMax="304" yMax="844">
      <contour>
        <pt x="177" y="630" on="1"/>
        <pt x="177" y="104" on="1"/>
        <pt x="177" y="42" on="0"/>
        <pt x="163" y="-32" on="0"/>
        <pt x="144" y="-61" on="1"/>
        <pt x="130" y="-82" on="0"/>
        <pt x="93" y="-110" on="0"/>
        <pt x="51" y="-127" on="0"/>
        <pt x="6" y="-135" on="0"/>
        <pt x="-15" y="-135" on="1"/>
        <pt x="-15" y="-98" on="1"/>
        <pt x="44" y="-97" on="0"/>
        <pt x="81" y="-66" on="1"/>
        <pt x="107" y="-43" on="0"/>
        <pt x="125" y="26" on="0"/>
        <pt x="125" y="69" on="1"/>
        <pt x="125" y="630" on="1"/>
      </contour>
      <contour>
        <pt x="130" y="844" on="1"/>
        <pt x="179" y="844" on="1"/>
        <pt x="304" y="710" on="1"/>
        <pt x="244" y="710" on="1"/>
        <pt x="154" y="809" on="1"/>
        <pt x="64" y="710" on="1"/>
        <pt x="8" y="710" on="1"/>
      </contour>
    </TTGlyph>
    <TTGlyph name="Jsmall" xMin="0" yMin="-141" xMax="145" yMax="470">
      <contour>
        <pt x="145" y="470" on="1"/>
        <pt x="145" y="57" on="1"/>
        <pt x="145" y="31" on="0"/>
        <pt x="142" y="-11" on="0"/>
        <pt x="135" y="-45" on="0"/>
        <pt x="123" y="-75" on="0"/>
        <pt x="113" y="-89" on="1"/>
        <pt x="102" y="-105" on="0"/>
        <pt x="74" y="-125" on="0"/>
        <pt x="43" y="-137" on="0"/>
        <pt x="13" y="-141" on="0"/>
        <pt x="0" y="-141" on="1"/>
        <pt x="0" y="-103" on="1"/>
        <pt x="21" y="-103" on="0"/>
        <pt x="66" y="-85" on="0"/>
        <pt x="79" y="-61" on="1"/>
        <pt x="90" y="-40" on="0"/>
        <pt x="97" y="16" on="0"/>
        <pt x="97" y="38" on="1"/>
        <pt x="97" y="470" on="1"/>
      </contour>
    </TTGlyph>
    <TTGlyph name="K" xMin="80" yMin="0" xMax="522" yMax="630">
      <contour>
        <pt x="80" y="0" on="1"/>
        <pt x="80" y="630" on="1"/>
        <pt x="132" y="630" on="1"/>
        <pt x="132" y="305" on="1"/>
        <pt x="431" y="630" on="1"/>
        <pt x="497" y="630" on="1"/>
        <pt x="240" y="354" on="1"/>
        <pt x="522" y="0" on="1"/>
        <pt x="455" y="0" on="1"/>
        <pt x="205" y="318" on="1"/>
        <pt x="132" y="239" on="1"/>
        <pt x="132" y="0" on="1"/>
      </contour>
    </TTGlyph>
    <TTGlyph name="Kcommaaccent" xMin="80" yMin="-303" xMax="522" yMax="630">
      <contour>
        <pt x="80" y="0" on="1"/>
        <pt x="80" y="630" on="1"/>
        <pt x="132" y="630" on="1"/>
        <pt x="132" y="305" on="1"/>
        <pt x="431" y="630" on="1"/>
        <pt x="497" y="630" on="1"/>
        <pt x="240" y="354" on="1"/>
        <pt x="522" y="0" on="1"/>
        <pt x="455" y="0" on="1"/>
        <pt x="205" y="318" on="1"/>
        <pt x="132" y="239" on="1"/>
        <pt x="132" y="0" on="1"/>
      </contour>
      <contour>
        <pt x="278" y="-186" on="1"/>
        <pt x="261" y="-183" on="0"/>
        <pt x="238" y="-159" on="0"/>
        <pt x="238" y="-138" on="1"/>
        <pt x="238" y="-120" on="0"/>
        <pt x="261" y="-96" on="0"/>
        <pt x="279" y="-96" on="1"/>
        <pt x="295" y="-96" on="0"/>
        <pt x="327" y="-123" on="0"/>
        <pt x="327" y="-162" on="1"/>
        <pt x="327" y="-185" on="0"/>
        <pt x="311" y="-227" on="0"/>
        <pt x="284" y="-264" on="0"/>
        <pt x="249" y="-293" on="0"/>
        <pt x="230" y="-303" on="1"/>
        <pt x="210" y="-275" on="1"/>
        <pt x="240" y="-260" on="0"/>
        <pt x="278" y="-212" on="0"/>
        <pt x="283" y="-187" on="1"/>
      </contour>
    </TTGlyph>
    <TTGlyph name="Ksmall" xMin="68" yMin="0" xMax="405" yMax="470">
      <contour>
        <pt x="68" y="0" on="1"/>
        <pt x="68" y="470" on="1"/>
        <pt x="116" y="470" on="1"/>
        <pt x="116" y="236" on="1"/>
        <pt x="324" y="470" on="1"/>
        <pt x="388" y="470" on="1"/>
        <pt x="200" y="265" on="1"/>
        <pt x="405" y="0" on="1"/>
        <pt x="339" y="0" on="1"/>
        <pt x="167" y="230" on="1"/>
        <pt x="116" y="174" on="1"/>
        <pt x="116" y="0" on="1"/>
      </contour>
    </TTGlyph>
    <TTGlyph name="L" xMin="80" yMin="0" xMax="421" yMax="630">
      <contour>
        <pt x="80" y="630" on="1"/>
        <pt x="132" y="630" on="1"/>
        <pt x="132" y="42" on="1"/>
        <pt x="421" y="42" on="1"/>
        <pt x="421" y="0" on="1"/>
        <pt x="80" y="0" on="1"/>
      </contour>
    </TTGlyph>
    <TTGlyph name="Lacute" xMin="80" yMin="0" xMax="422" yMax="834">
      <contour>
        <pt x="81" y="630" on="1"/>
        <pt x="133" y="630" on="1"/>
        <pt x="133" y="42" on="1"/>
        <pt x="422" y="42" on="1"/>
        <pt x="422" y="0" on="1"/>
        <pt x="81" y="0" on="1"/>
      </contour>
      <contour>
        <pt x="122" y="710" on="1"/>
        <pt x="80" y="710" on="1"/>
        <pt x="170" y="834" on="1"/>
        <pt x="233" y="834" on="1"/>
      </contour>
    </TTGlyph>
    <TTGlyph name="Lcaron" xMin="80" yMin="0" xMax="421" yMax="714">
      <contour>
        <pt x="80" y="630" on="1"/>
        <pt x="132" y="630" on="1"/>
        <pt x="132" y="42" on="1"/>
        <pt x="421" y="42" on="1"/>
        <pt x="421" y="0" on="1"/>
        <pt x="80" y="0" on="1"/>
      </contour>
      <contour>
        <pt x="318" y="624" on="1"/>
        <pt x="301" y="627" on="0"/>
        <pt x="278" y="651" on="0"/>
        <pt x="278" y="672" on="1"/>
        <pt x="278" y="690" on="0"/>
        <pt x="301" y="714" on="0"/>
        <pt x="319" y="714" on="1"/>
        <pt x="335" y="714" on="0"/>
        <pt x="367" y="687" on="0"/>
        <pt x="367" y="648" on="1"/>
        <pt x="367" y="625" on="0"/>
        <pt x="351" y="583" on="0"/>
        <pt x="324" y="546" on="0"/>
        <pt x="289" y="517" on="0"/>
        <pt x="270" y="507" on="1"/>
        <pt x="250" y="535" on="1"/>
        <pt x="280" y="550" on="0"/>
        <pt x="318" y="598" on="0"/>
        <pt x="323" y="623" on="1"/>
      </contour>
    </TTGlyph>
    <TTGlyph name="Lcommaaccent" xMin="80" yMin="-305" xMax="421" yMax="630">
      <contour>
        <pt x="80" y="630" on="1"/>
        <pt x="132" y="630" on="1"/>
        <pt x="132" y="42" on="1"/>
        <pt x="421" y="42" on="1"/>
        <pt x="421" y="0" on="1"/>
        <pt x="80" y="0" on="1"/>
      </contour>
      <contour>
        <pt x="260" y="-188" on="1"/>
        <pt x="243" y="-185" on="0"/>
        <pt x="220" y="-161" on="0"/>
        <pt x="220" y="-140" on="1"/>
        <pt x="220" y="-122" on="0"/>
        <pt x="243" y="-98" on="0"/>
        <pt x="261" y="-98" on="1"/>
        <pt x="277" y="-98" on="0"/>
        <pt x="309" y="-125" on="0"/>
        <pt x="309" y="-164" on="1"/>
        <pt x="309" y="-187" on="0"/>
        <pt x="293" y="-229" on="0"/>
        <pt x="266" y="-266" on="0"/>
        <pt x="231" y="-295" on="0"/>
        <pt x="212" y="-305" on="1"/>
        <pt x="192" y="-277" on="1"/>
        <pt x="222" y="-262" on="0"/>
        <pt x="260" y="-214" on="0"/>
        <pt x="265" y="-189" on="1"/>
      </contour>
    </TTGlyph>
    <TTGlyph name="Ldot" xMin="80" yMin="0" xMax="421" yMax="630">
      <contour>
        <pt x="80" y="630" on="1"/>
        <pt x="132" y="630" on="1"/>
        <pt x="132" y="42" on="1"/>
        <pt x="421" y="42" on="1"/>
        <pt x="421" y="0" on="1"/>
        <pt x="80" y="0" on="1"/>
      </contour>
      <contour>
        <pt x="264" y="331" on="1"/>
        <pt x="264" y="351" on="0"/>
        <pt x="287" y="375" on="0"/>
        <pt x="304" y="375" on="1"/>
        <pt x="321" y="375" on="0"/>
        <pt x="344" y="351" on="0"/>
        <pt x="344" y="331" on="1"/>
        <pt x="344" y="310" on="0"/>
        <pt x="321" y="287" on="0"/>
        <pt x="304" y="287" on="1"/>
        <pt x="287" y="287" on="0"/>
        <pt x="264" y="310" on="0"/>
      </contour>
    </TTGlyph>
    <TTGlyph name="Lslash" xMin="-29" yMin="0" xMax="421" yMax="630">
      <contour>
        <pt x="307" y="491" on="1"/>
        <pt x="334" y="458" on="1"/>
        <pt x="132" y="288" on="1"/>
        <pt x="132" y="42" on="1"/>
        <pt x="421" y="42" on="1"/>
        <pt x="421" y="0" on="1"/>
        <pt x="80" y="0" on="1"/>
        <pt x="80" y="254" on="1"/>
        <pt x="-2" y="187" on="1"/>
        <pt x="-29" y="220" on="1"/>
        <pt x="80" y="311" on="1"/>
        <pt x="80" y="630" on="1"/>
        <pt x="132" y="630" on="1"/>
        <pt x="132" y="344" on="1"/>
      </contour>
    </TTGlyph>
    <TTGlyph name="Lsmall" xMin="68" yMin="0" xMax="342" yMax="470">
      <contour>
        <pt x="68" y="470" on="1"/>
        <pt x="116" y="470" on="1"/>
        <pt x="116" y="38" on="1"/>
        <pt x="342" y="38" on="1"/>
        <pt x="342" y="0" on="1"/>
        <pt x="68" y="0" on="1"/>
      </contour>
    </TTGlyph>
    <TTGlyph name="M" xMin="64" yMin="0" xMax="717" yMax="630">
      <contour>
        <pt x="129" y="630" on="1"/>
        <pt x="197" y="630" on="1"/>
        <pt x="357" y="167" on="1"/>
        <pt x="363" y="149" on="0"/>
        <pt x="382" y="88" on="0"/>
        <pt x="390" y="62" on="1"/>
        <pt x="392" y="62" on="1"/>
        <pt x="399" y="88" on="0"/>
        <pt x="418" y="149" on="0"/>
        <pt x="424" y="166" on="1"/>
        <pt x="582" y="630" on="1"/>
        <pt x="652" y="630" on="1"/>
        <pt x="717" y="0" on="1"/>
        <pt x="665" y="0" on="1"/>
        <pt x="629" y="361" on="1"/>
        <pt x="624" y="417" on="0"/>
        <pt x="614" y="526" on="0"/>
        <pt x="611" y="582" on="1"/>
        <pt x="609" y="582" on="1"/>
        <pt x="595" y="535" on="0"/>
        <pt x="559" y="416" on="0"/>
        <pt x="539" y="361" on="1"/>
        <pt x="413" y="0" on="1"/>
        <pt x="366" y="0" on="1"/>
        <pt x="239" y="361" on="1"/>
        <pt x="201" y="469" on="0"/>
        <pt x="170" y="582" on="1"/>
        <pt x="168" y="582" on="1"/>
        <pt x="164" y="535" on="0"/>
        <pt x="155" y="417" on="0"/>
        <pt x="150" y="361" on="1"/>
        <pt x="114" y="0" on="1"/>
        <pt x="64" y="0" on="1"/>
      </contour>
    </TTGlyph>
    <TTGlyph name="Macron" xMin="30" yMin="730" xMax="275" yMax="772">
      <contour>
        <pt x="275" y="772" on="1"/>
        <pt x="275" y="730" on="1"/>
        <pt x="30" y="730" on="1"/>
        <pt x="30" y="772" on="1"/>
      </contour>
    </TTGlyph>
    <TTGlyph name="Msmall" xMin="58" yMin="0" xMax="548" yMax="470">
      <contour>
        <pt x="107" y="470" on="1"/>
        <pt x="158" y="470" on="1"/>
        <pt x="278" y="125" on="1"/>
        <pt x="283" y="111" on="0"/>
        <pt x="297" y="66" on="0"/>
        <pt x="302" y="46" on="1"/>
        <pt x="304" y="46" on="1"/>
        <pt x="309" y="66" on="0"/>
        <pt x="323" y="112" on="0"/>
        <pt x="328" y="124" on="1"/>
        <pt x="446" y="470" on="1"/>
        <pt x="499" y="470" on="1"/>
        <pt x="548" y="0" on="1"/>
        <pt x="499" y="0" on="1"/>
        <pt x="472" y="271" on="1"/>
        <pt x="468" y="306" on="0"/>
        <pt x="464" y="377" on="0"/>
        <pt x="463" y="404" on="1"/>
        <pt x="462" y="404" on="1"/>
        <pt x="454" y="376" on="0"/>
        <pt x="432" y="305" on="0"/>
        <pt x="420" y="271" on="1"/>
        <pt x="326" y="0" on="1"/>
        <pt x="278" y="0" on="1"/>
        <pt x="183" y="271" on="1"/>
        <pt x="172" y="305" on="0"/>
        <pt x="150" y="369" on="0"/>
        <pt x="141" y="404" on="1"/>
        <pt x="140" y="404" on="1"/>
        <pt x="140" y="371" on="0"/>
        <pt x="135" y="305" on="0"/>
        <pt x="132" y="271" on="1"/>
        <pt x="105" y="0" on="1"/>
        <pt x="58" y="0" on="1"/>
      </contour>
    </TTGlyph>
    <TTGlyph name="N" xMin="80" yMin="0" xMax="543" yMax="630">
      <contour>
        <pt x="80" y="630" on="1"/>
        <pt x="130" y="630" on="1"/>
        <pt x="405" y="216" on="1"/>
        <pt x="428" y="182" on="0"/>
        <pt x="472" y="116" on="0"/>
        <pt x="493" y="82" on="1"/>
        <pt x="495" y="82" on="1"/>
        <pt x="493" y="120" on="0"/>
        <pt x="493" y="198" on="0"/>
        <pt x="493" y="236" on="1"/>
        <pt x="493" y="630" on="1"/>
        <pt x="543" y="630" on="1"/>
        <pt x="543" y="0" on="1"/>
        <pt x="493" y="0" on="1"/>
        <pt x="227" y="396" on="1"/>
        <pt x="200" y="436" on="0"/>
        <pt x="151" y="520" on="0"/>
        <pt x="129" y="562" on="1"/>
        <pt x="127" y="562" on="1"/>
        <pt x="130" y="469" on="0"/>
        <pt x="130" y="376" on="1"/>
        <pt x="130" y="0" on="1"/>
        <pt x="80" y="0" on="1"/>
      </contour>
    </TTGlyph>
    <TTGlyph name="Nacute" xMin="80" yMin="0" xMax="543" yMax="834">
      <contour>
        <pt x="302" y="710" on="1"/>
        <pt x="260" y="710" on="1"/>
        <pt x="350" y="834" on="1"/>
        <pt x="413" y="834" on="1"/>
      </contour>
      <contour>
        <pt x="80" y="630" on="1"/>
        <pt x="130" y="630" on="1"/>
        <pt x="405" y="216" on="1"/>
        <pt x="428" y="182" on="0"/>
        <pt x="472" y="116" on="0"/>
        <pt x="493" y="82" on="1"/>
        <pt x="495" y="82" on="1"/>
        <pt x="493" y="120" on="0"/>
        <pt x="493" y="198" on="0"/>
        <pt x="493" y="236" on="1"/>
        <pt x="493" y="630" on="1"/>
        <pt x="543" y="630" on="1"/>
        <pt x="543" y="0" on="1"/>
        <pt x="493" y="0" on="1"/>
        <pt x="227" y="396" on="1"/>
        <pt x="200" y="436" on="0"/>
        <pt x="151" y="520" on="0"/>
        <pt x="129" y="562" on="1"/>
        <pt x="127" y="562" on="1"/>
        <pt x="130" y="469" on="0"/>
        <pt x="130" y="376" on="1"/>
        <pt x="130" y="0" on="1"/>
        <pt x="80" y="0" on="1"/>
      </contour>
    </TTGlyph>
    <TTGlyph name="Ncaron" xMin="80" yMin="0" xMax="543" yMax="845">
      <contour>
        <pt x="186" y="845" on="1"/>
        <pt x="242" y="845" on="1"/>
        <pt x="332" y="746" on="1"/>
        <pt x="422" y="845" on="1"/>
        <pt x="482" y="845" on="1"/>
        <pt x="357" y="711" on="1"/>
        <pt x="308" y="711" on="1"/>
      </contour>
      <contour>
        <pt x="80" y="630" on="1"/>
        <pt x="130" y="630" on="1"/>
        <pt x="405" y="216" on="1"/>
        <pt x="428" y="182" on="0"/>
        <pt x="472" y="116" on="0"/>
        <pt x="493" y="82" on="1"/>
        <pt x="495" y="82" on="1"/>
        <pt x="493" y="120" on="0"/>
        <pt x="493" y="198" on="0"/>
        <pt x="493" y="236" on="1"/>
        <pt x="493" y="630" on="1"/>
        <pt x="543" y="630" on="1"/>
        <pt x="543" y="0" on="1"/>
        <pt x="493" y="0" on="1"/>
        <pt x="227" y="396" on="1"/>
        <pt x="200" y="436" on="0"/>
        <pt x="151" y="520" on="0"/>
        <pt x="129" y="562" on="1"/>
        <pt x="127" y="562" on="1"/>
        <pt x="130" y="469" on="0"/>
        <pt x="130" y="376" on="1"/>
        <pt x="130" y="0" on="1"/>
        <pt x="80" y="0" on="1"/>
      </contour>
    </TTGlyph>
    <TTGlyph name="Ncommaaccent" xMin="80" yMin="-305" xMax="543" yMax="630">
      <contour>
        <pt x="320" y="-188" on="1"/>
        <pt x="303" y="-185" on="0"/>
        <pt x="280" y="-161" on="0"/>
        <pt x="280" y="-140" on="1"/>
        <pt x="280" y="-122" on="0"/>
        <pt x="303" y="-98" on="0"/>
        <pt x="321" y="-98" on="1"/>
        <pt x="337" y="-98" on="0"/>
        <pt x="369" y="-125" on="0"/>
        <pt x="369" y="-164" on="1"/>
        <pt x="369" y="-187" on="0"/>
        <pt x="353" y="-229" on="0"/>
        <pt x="326" y="-266" on="0"/>
        <pt x="291" y="-295" on="0"/>
        <pt x="272" y="-305" on="1"/>
        <pt x="252" y="-277" on="1"/>
        <pt x="282" y="-262" on="0"/>
        <pt x="320" y="-214" on="0"/>
        <pt x="325" y="-189" on="1"/>
      </contour>
      <contour>
        <pt x="80" y="630" on="1"/>
        <pt x="130" y="630" on="1"/>
        <pt x="405" y="216" on="1"/>
        <pt x="428" y="182" on="0"/>
        <pt x="472" y="116" on="0"/>
        <pt x="493" y="82" on="1"/>
        <pt x="495" y="82" on="1"/>
        <pt x="493" y="120" on="0"/>
        <pt x="493" y="198" on="0"/>
        <pt x="493" y="236" on="1"/>
        <pt x="493" y="630" on="1"/>
        <pt x="543" y="630" on="1"/>
        <pt x="543" y="0" on="1"/>
        <pt x="493" y="0" on="1"/>
        <pt x="227" y="396" on="1"/>
        <pt x="200" y="436" on="0"/>
        <pt x="151" y="520" on="0"/>
        <pt x="129" y="562" on="1"/>
        <pt x="127" y="562" on="1"/>
        <pt x="130" y="469" on="0"/>
        <pt x="130" y="376" on="1"/>
        <pt x="130" y="0" on="1"/>
        <pt x="80" y="0" on="1"/>
      </contour>
    </TTGlyph>
    <TTGlyph name="Nsmall" xMin="68" yMin="0" xMax="435" yMax="470">
      <contour>
        <pt x="68" y="470" on="1"/>
        <pt x="115" y="470" on="1"/>
        <pt x="327" y="162" on="1"/>
        <pt x="341" y="142" on="0"/>
        <pt x="374" y="93" on="0"/>
        <pt x="388" y="71" on="1"/>
        <pt x="389" y="71" on="1"/>
        <pt x="388" y="98" on="0"/>
        <pt x="387" y="151" on="0"/>
        <pt x="387" y="177" on="1"/>
        <pt x="387" y="470" on="1"/>
        <pt x="435" y="470" on="1"/>
        <pt x="435" y="0" on="1"/>
        <pt x="388" y="0" on="1"/>
        <pt x="184" y="297" on="1"/>
        <pt x="164" y="326" on="0"/>
        <pt x="128" y="383" on="0"/>
        <pt x="115" y="409" on="1"/>
        <pt x="113" y="409" on="1"/>
        <pt x="116" y="344" on="0"/>
        <pt x="116" y="282" on="1"/>
        <pt x="116" y="0" on="1"/>
        <pt x="68" y="0" on="1"/>
      </contour>
    </TTGlyph>
    <TTGlyph name="Ntilde" xMin="80" yMin="0" xMax="543" yMax="818">
      <contour>
        <pt x="80" y="630" on="1"/>
        <pt x="160" y="630" on="1"/>
        <pt x="400" y="216" on="1"/>
        <pt x="492" y="52" on="1"/>
        <pt x="494" y="52" on="1"/>
        <pt x="493" y="236" on="1"/>
        <pt x="493" y="630" on="1"/>
        <pt x="543" y="630" on="1"/>
        <pt x="543" y="0" on="1"/>
        <pt x="463" y="0" on="1"/>
        <pt x="232" y="396" on="1"/>
        <pt x="131" y="592" on="1"/>
        <pt x="129" y="592" on="1"/>
        <pt x="130" y="376" on="1"/>
        <pt x="130" y="0" on="1"/>
        <pt x="80" y="0" on="1"/>
      </contour>
      <contour>
        <pt x="165" y="715" on="1"/>
        <pt x="165" y="757" on="0"/>
        <pt x="206" y="815" on="0"/>
        <pt x="252" y="815" on="1"/>
        <pt x="274" y="815" on="0"/>
        <pt x="306" y="798" on="0"/>
        <pt x="334" y="778" on="0"/>
        <pt x="362" y="761" on="0"/>
        <pt x="379" y="761" on="1"/>
        <pt x="405" y="761" on="0"/>
        <pt x="426" y="793" on="0"/>
        <pt x="428" y="818" on="1"/>
        <pt x="468" y="818" on="1"/>
        <pt x="468" y="799" on="0"/>
        <pt x="457" y="764" on="0"/>
        <pt x="436" y="737" on="0"/>
        <pt x="405" y="721" on="0"/>
        <pt x="384" y="721" on="1"/>
        <pt x="361" y="721" on="0"/>
        <pt x="325" y="738" on="0"/>
        <pt x="295" y="758" on="0"/>
        <pt x="268" y="775" on="0"/>
        <pt x="255" y="775" on="1"/>
        <pt x="229" y="775" on="0"/>
        <pt x="207" y="739" on="0"/>
        <pt x="205" y="715" on="1"/>
      </contour>
    </TTGlyph>
    <TTGlyph name="O" xMin="46" yMin="-8" xMax="600" yMax="638">
      <contour>
        <pt x="325" y="638" on="1"/>
        <pt x="382" y="638" on="0"/>
        <pt x="482" y="598" on="0"/>
        <pt x="557" y="517" on="0"/>
        <pt x="600" y="396" on="0"/>
        <pt x="600" y="315" on="1"/>
        <pt x="600" y="236" on="0"/>
        <pt x="556" y="116" on="0"/>
        <pt x="480" y="34" on="0"/>
        <pt x="378" y="-8" on="0"/>
        <pt x="321" y="-8" on="1"/>
        <pt x="264" y="-8" on="0"/>
        <pt x="164" y="32" on="0"/>
        <pt x="89" y="113" on="0"/>
        <pt x="46" y="234" on="0"/>
        <pt x="46" y="315" on="1"/>
        <pt x="46" y="394" on="0"/>
        <pt x="90" y="514" on="0"/>
        <pt x="166" y="596" on="0"/>
        <pt x="268" y="638" on="0"/>
      </contour>
      <contour>
        <pt x="100" y="315" on="1"/>
        <pt x="100" y="243" on="0"/>
        <pt x="137" y="138" on="0"/>
        <pt x="199" y="68" on="0"/>
        <pt x="280" y="34" on="0"/>
        <pt x="325" y="34" on="1"/>
        <pt x="369" y="34" on="0"/>
        <pt x="449" y="68" on="0"/>
        <pt x="510" y="138" on="0"/>
        <pt x="546" y="243" on="0"/>
        <pt x="546" y="315" on="1"/>
        <pt x="546" y="388" on="0"/>
        <pt x="509" y="495" on="0"/>
        <pt x="447" y="563" on="0"/>
        <pt x="366" y="596" on="0"/>
        <pt x="321" y="596" on="1"/>
        <pt x="277" y="596" on="0"/>
        <pt x="197" y="562" on="0"/>
        <pt x="136" y="492" on="0"/>
        <pt x="100" y="387" on="0"/>
      </contour>
    </TTGlyph>
    <TTGlyph name="OE" xMin="46" yMin="-8" xMax="777" yMax="638">
      <contour>
        <pt x="331" y="-8" on="1"/>
        <pt x="272" y="-8" on="0"/>
        <pt x="168" y="32" on="0"/>
        <pt x="91" y="113" on="0"/>
        <pt x="46" y="234" on="0"/>
        <pt x="46" y="315" on="1"/>
        <pt x="46" y="394" on="0"/>
        <pt x="92" y="514" on="0"/>
        <pt x="171" y="596" on="0"/>
        <pt x="276" y="638" on="0"/>
        <pt x="335" y="638" on="1"/>
        <pt x="355" y="638" on="0"/>
        <pt x="395" y="635" on="0"/>
        <pt x="414" y="630" on="1"/>
        <pt x="774" y="630" on="1"/>
        <pt x="774" y="588" on="1"/>
        <pt x="466" y="588" on="1"/>
        <pt x="466" y="345" on="1"/>
        <pt x="748" y="345" on="1"/>
        <pt x="748" y="303" on="1"/>
        <pt x="466" y="303" on="1"/>
        <pt x="466" y="42" on="1"/>
        <pt x="777" y="42" on="1"/>
        <pt x="777" y="0" on="1"/>
        <pt x="415" y="0" on="1"/>
        <pt x="396" y="-5" on="0"/>
        <pt x="354" y="-8" on="0"/>
      </contour>
      <contour>
        <pt x="331" y="596" on="1"/>
        <pt x="285" y="596" on="0"/>
        <pt x="201" y="562" on="0"/>
        <pt x="138" y="492" on="0"/>
        <pt x="100" y="387" on="0"/>
        <pt x="100" y="315" on="1"/>
        <pt x="100" y="243" on="0"/>
        <pt x="139" y="138" on="0"/>
        <pt x="203" y="68" on="0"/>
        <pt x="288" y="34" on="0"/>
        <pt x="335" y="34" on="1"/>
        <pt x="356" y="34" on="0"/>
        <pt x="395" y="39" on="0"/>
        <pt x="414" y="46" on="1"/>
        <pt x="414" y="583" on="1"/>
        <pt x="394" y="591" on="0"/>
        <pt x="353" y="596" on="0"/>
      </contour>
    </TTGlyph>
    <TTGlyph name="Oacute" xMin="46" yMin="-8" xMax="600" yMax="834">
      <contour>
        <pt x="325" y="638" on="1"/>
        <pt x="382" y="638" on="0"/>
        <pt x="482" y="598" on="0"/>
        <pt x="557" y="517" on="0"/>
        <pt x="600" y="396" on="0"/>
        <pt x="600" y="315" on="1"/>
        <pt x="600" y="236" on="0"/>
        <pt x="556" y="116" on="0"/>
        <pt x="480" y="34" on="0"/>
        <pt x="378" y="-8" on="0"/>
        <pt x="321" y="-8" on="1"/>
        <pt x="264" y="-8" on="0"/>
        <pt x="164" y="32" on="0"/>
        <pt x="89" y="113" on="0"/>
        <pt x="46" y="234" on="0"/>
        <pt x="46" y="315" on="1"/>
        <pt x="46" y="394" on="0"/>
        <pt x="90" y="514" on="0"/>
        <pt x="166" y="596" on="0"/>
        <pt x="268" y="638" on="0"/>
      </contour>
      <contour>
        <pt x="100" y="315" on="1"/>
        <pt x="100" y="243" on="0"/>
        <pt x="137" y="138" on="0"/>
        <pt x="199" y="68" on="0"/>
        <pt x="280" y="34" on="0"/>
        <pt x="325" y="34" on="1"/>
        <pt x="369" y="34" on="0"/>
        <pt x="449" y="68" on="0"/>
        <pt x="510" y="138" on="0"/>
        <pt x="546" y="243" on="0"/>
        <pt x="546" y="315" on="1"/>
        <pt x="546" y="388" on="0"/>
        <pt x="509" y="495" on="0"/>
        <pt x="447" y="563" on="0"/>
        <pt x="366" y="596" on="0"/>
        <pt x="321" y="596" on="1"/>
        <pt x="277" y="596" on="0"/>
        <pt x="197" y="562" on="0"/>
        <pt x="136" y="492" on="0"/>
        <pt x="100" y="387" on="0"/>
      </contour>
      <contour>
        <pt x="301" y="710" on="1"/>
        <pt x="259" y="710" on="1"/>
        <pt x="349" y="834" on="1"/>
        <pt x="412" y="834" on="1"/>
      </contour>
    </TTGlyph>
    <TTGlyph name="Obreve" xMin="46" yMin="-8" xMax="600" yMax="834">
      <contour>
        <pt x="325" y="638" on="1"/>
        <pt x="382" y="638" on="0"/>
        <pt x="482" y="598" on="0"/>
        <pt x="557" y="517" on="0"/>
        <pt x="600" y="396" on="0"/>
        <pt x="600" y="315" on="1"/>
        <pt x="600" y="236" on="0"/>
        <pt x="556" y="116" on="0"/>
        <pt x="480" y="34" on="0"/>
        <pt x="378" y="-8" on="0"/>
        <pt x="321" y="-8" on="1"/>
        <pt x="264" y="-8" on="0"/>
        <pt x="164" y="32" on="0"/>
        <pt x="89" y="113" on="0"/>
        <pt x="46" y="234" on="0"/>
        <pt x="46" y="315" on="1"/>
        <pt x="46" y="394" on="0"/>
        <pt x="90" y="514" on="0"/>
        <pt x="166" y="596" on="0"/>
        <pt x="268" y="638" on="0"/>
      </contour>
      <contour>
        <pt x="100" y="315" on="1"/>
        <pt x="100" y="243" on="0"/>
        <pt x="137" y="138" on="0"/>
        <pt x="199" y="68" on="0"/>
        <pt x="280" y="34" on="0"/>
        <pt x="325" y="34" on="1"/>
        <pt x="369" y="34" on="0"/>
        <pt x="449" y="68" on="0"/>
        <pt x="510" y="138" on="0"/>
        <pt x="546" y="243" on="0"/>
        <pt x="546" y="315" on="1"/>
        <pt x="546" y="388" on="0"/>
        <pt x="509" y="495" on="0"/>
        <pt x="447" y="563" on="0"/>
        <pt x="366" y="596" on="0"/>
        <pt x="321" y="596" on="1"/>
        <pt x="277" y="596" on="0"/>
        <pt x="197" y="562" on="0"/>
        <pt x="136" y="492" on="0"/>
        <pt x="100" y="387" on="0"/>
      </contour>
      <contour>
        <pt x="238" y="834" on="1"/>
        <pt x="239" y="796" on="0"/>
        <pt x="276" y="750" on="0"/>
        <pt x="323" y="750" on="1"/>
        <pt x="362" y="750" on="0"/>
        <pt x="410" y="794" on="0"/>
        <pt x="411" y="834" on="1"/>
        <pt x="459" y="834" on="1"/>
        <pt x="459" y="780" on="0"/>
        <pt x="388" y="710" on="0"/>
        <pt x="323" y="710" on="1"/>
        <pt x="287" y="710" on="0"/>
        <pt x="237" y="730" on="0"/>
        <pt x="205" y="765" on="0"/>
        <pt x="190" y="810" on="0"/>
        <pt x="190" y="834" on="1"/>
      </contour>
    </TTGlyph>
    <TTGlyph name="Ocircumflex" xMin="46" yMin="-8" xMax="600" yMax="844">
      <contour>
        <pt x="325" y="638" on="1"/>
        <pt x="382" y="638" on="0"/>
        <pt x="482" y="598" on="0"/>
        <pt x="557" y="517" on="0"/>
        <pt x="600" y="396" on="0"/>
        <pt x="600" y="315" on="1"/>
        <pt x="600" y="236" on="0"/>
        <pt x="556" y="116" on="0"/>
        <pt x="480" y="34" on="0"/>
        <pt x="378" y="-8" on="0"/>
        <pt x="321" y="-8" on="1"/>
        <pt x="264" y="-8" on="0"/>
        <pt x="164" y="32" on="0"/>
        <pt x="89" y="113" on="0"/>
        <pt x="46" y="234" on="0"/>
        <pt x="46" y="315" on="1"/>
        <pt x="46" y="394" on="0"/>
        <pt x="90" y="514" on="0"/>
        <pt x="166" y="596" on="0"/>
        <pt x="268" y="638" on="0"/>
      </contour>
      <contour>
        <pt x="100" y="315" on="1"/>
        <pt x="100" y="243" on="0"/>
        <pt x="137" y="138" on="0"/>
        <pt x="199" y="68" on="0"/>
        <pt x="280" y="34" on="0"/>
        <pt x="325" y="34" on="1"/>
        <pt x="369" y="34" on="0"/>
        <pt x="449" y="68" on="0"/>
        <pt x="510" y="138" on="0"/>
        <pt x="546" y="243" on="0"/>
        <pt x="546" y="315" on="1"/>
        <pt x="546" y="388" on="0"/>
        <pt x="509" y="495" on="0"/>
        <pt x="447" y="563" on="0"/>
        <pt x="366" y="596" on="0"/>
        <pt x="321" y="596" on="1"/>
        <pt x="277" y="596" on="0"/>
        <pt x="197" y="562" on="0"/>
        <pt x="136" y="492" on="0"/>
        <pt x="100" y="387" on="0"/>
      </contour>
      <contour>
        <pt x="300" y="844" on="1"/>
        <pt x="349" y="844" on="1"/>
        <pt x="474" y="710" on="1"/>
        <pt x="414" y="710" on="1"/>
        <pt x="324" y="809" on="1"/>
        <pt x="234" y="710" on="1"/>
        <pt x="178" y="710" on="1"/>
      </contour>
    </TTGlyph>
    <TTGlyph name="Odieresis" xMin="46" yMin="-8" xMax="600" yMax="810">
      <contour>
        <pt x="325" y="638" on="1"/>
        <pt x="382" y="638" on="0"/>
        <pt x="482" y="598" on="0"/>
        <pt x="557" y="517" on="0"/>
        <pt x="600" y="396" on="0"/>
        <pt x="600" y="315" on="1"/>
        <pt x="600" y="236" on="0"/>
        <pt x="556" y="116" on="0"/>
        <pt x="480" y="34" on="0"/>
        <pt x="378" y="-8" on="0"/>
        <pt x="321" y="-8" on="1"/>
        <pt x="264" y="-8" on="0"/>
        <pt x="164" y="32" on="0"/>
        <pt x="89" y="113" on="0"/>
        <pt x="46" y="234" on="0"/>
        <pt x="46" y="315" on="1"/>
        <pt x="46" y="394" on="0"/>
        <pt x="90" y="514" on="0"/>
        <pt x="166" y="596" on="0"/>
        <pt x="268" y="638" on="0"/>
      </contour>
      <contour>
        <pt x="100" y="315" on="1"/>
        <pt x="100" y="243" on="0"/>
        <pt x="137" y="138" on="0"/>
        <pt x="199" y="68" on="0"/>
        <pt x="280" y="34" on="0"/>
        <pt x="325" y="34" on="1"/>
        <pt x="369" y="34" on="0"/>
        <pt x="449" y="68" on="0"/>
        <pt x="510" y="138" on="0"/>
        <pt x="546" y="243" on="0"/>
        <pt x="546" y="315" on="1"/>
        <pt x="546" y="388" on="0"/>
        <pt x="509" y="495" on="0"/>
        <pt x="447" y="563" on="0"/>
        <pt x="366" y="596" on="0"/>
        <pt x="321" y="596" on="1"/>
        <pt x="277" y="596" on="0"/>
        <pt x="197" y="562" on="0"/>
        <pt x="136" y="492" on="0"/>
        <pt x="100" y="387" on="0"/>
      </contour>
      <contour>
        <pt x="199" y="766" on="1"/>
        <pt x="199" y="786" on="0"/>
        <pt x="222" y="810" on="0"/>
        <pt x="239" y="810" on="1"/>
        <pt x="256" y="810" on="0"/>
        <pt x="279" y="786" on="0"/>
        <pt x="279" y="766" on="1"/>
        <pt x="279" y="745" on="0"/>
        <pt x="256" y="722" on="0"/>
        <pt x="239" y="722" on="1"/>
        <pt x="222" y="722" on="0"/>
        <pt x="199" y="745" on="0"/>
      </contour>
      <contour>
        <pt x="369" y="766" on="1"/>
        <pt x="369" y="786" on="0"/>
        <pt x="392" y="810" on="0"/>
        <pt x="409" y="810" on="1"/>
        <pt x="426" y="810" on="0"/>
        <pt x="449" y="786" on="0"/>
        <pt x="449" y="766" on="1"/>
        <pt x="449" y="745" on="0"/>
        <pt x="426" y="722" on="0"/>
        <pt x="409" y="722" on="1"/>
        <pt x="392" y="722" on="0"/>
        <pt x="369" y="745" on="0"/>
      </contour>
    </TTGlyph>
    <TTGlyph name="Ogonek" xMin="25" yMin="-206" xMax="212" yMax="0">
      <contour>
        <pt x="165" y="0" on="1"/>
        <pt x="123" y="-23" on="0"/>
        <pt x="74" y="-74" on="0"/>
        <pt x="74" y="-106" on="1"/>
        <pt x="74" y="-135" on="0"/>
        <pt x="112" y="-166" on="0"/>
        <pt x="147" y="-166" on="1"/>
        <pt x="164" y="-166" on="0"/>
        <pt x="193" y="-159" on="0"/>
        <pt x="203" y="-154" on="1"/>
        <pt x="212" y="-185" on="1"/>
        <pt x="177" y="-206" on="0"/>
        <pt x="132" y="-206" on="1"/>
        <pt x="86" y="-206" on="0"/>
        <pt x="25" y="-156" on="0"/>
        <pt x="25" y="-109" on="1"/>
        <pt x="25" y="-90" on="0"/>
        <pt x="40" y="-56" on="0"/>
        <pt x="63" y="-28" on="0"/>
        <pt x="92" y="-7" on="0"/>
        <pt x="107" y="0" on="1"/>
      </contour>
    </TTGlyph>
    <TTGlyph name="Ograve" xMin="46" yMin="-8" xMax="600" yMax="834">
      <contour>
        <pt x="325" y="638" on="1"/>
        <pt x="382" y="638" on="0"/>
        <pt x="482" y="598" on="0"/>
        <pt x="557" y="517" on="0"/>
        <pt x="600" y="396" on="0"/>
        <pt x="600" y="315" on="1"/>
        <pt x="600" y="236" on="0"/>
        <pt x="556" y="116" on="0"/>
        <pt x="480" y="34" on="0"/>
        <pt x="378" y="-8" on="0"/>
        <pt x="321" y="-8" on="1"/>
        <pt x="264" y="-8" on="0"/>
        <pt x="164" y="32" on="0"/>
        <pt x="89" y="113" on="0"/>
        <pt x="46" y="234" on="0"/>
        <pt x="46" y="315" on="1"/>
        <pt x="46" y="394" on="0"/>
        <pt x="90" y="514" on="0"/>
        <pt x="166" y="596" on="0"/>
        <pt x="268" y="638" on="0"/>
      </contour>
      <contour>
        <pt x="100" y="315" on="1"/>
        <pt x="100" y="243" on="0"/>
        <pt x="137" y="138" on="0"/>
        <pt x="199" y="68" on="0"/>
        <pt x="280" y="34" on="0"/>
        <pt x="325" y="34" on="1"/>
        <pt x="369" y="34" on="0"/>
        <pt x="449" y="68" on="0"/>
        <pt x="510" y="138" on="0"/>
        <pt x="546" y="243" on="0"/>
        <pt x="546" y="315" on="1"/>
        <pt x="546" y="388" on="0"/>
        <pt x="509" y="495" on="0"/>
        <pt x="447" y="563" on="0"/>
        <pt x="366" y="596" on="0"/>
        <pt x="321" y="596" on="1"/>
        <pt x="277" y="596" on="0"/>
        <pt x="197" y="562" on="0"/>
        <pt x="136" y="492" on="0"/>
        <pt x="100" y="387" on="0"/>
      </contour>
      <contour>
        <pt x="231" y="834" on="1"/>
        <pt x="294" y="834" on="1"/>
        <pt x="384" y="710" on="1"/>
        <pt x="342" y="710" on="1"/>
      </contour>
    </TTGlyph>
    <TTGlyph name="Ohungarumlaut" xMin="46" yMin="-8" xMax="600" yMax="834">
      <contour>
        <pt x="360" y="710" on="1"/>
        <pt x="450" y="834" on="1"/>
        <pt x="513" y="834" on="1"/>
        <pt x="402" y="710" on="1"/>
      </contour>
      <contour>
        <pt x="190" y="710" on="1"/>
        <pt x="280" y="834" on="1"/>
        <pt x="343" y="834" on="1"/>
        <pt x="232" y="710" on="1"/>
      </contour>
      <contour>
        <pt x="46" y="315" on="1"/>
        <pt x="46" y="394" on="0"/>
        <pt x="90" y="514" on="0"/>
        <pt x="166" y="596" on="0"/>
        <pt x="268" y="638" on="0"/>
        <pt x="325" y="638" on="1"/>
        <pt x="382" y="638" on="0"/>
        <pt x="482" y="598" on="0"/>
        <pt x="557" y="517" on="0"/>
        <pt x="600" y="396" on="0"/>
        <pt x="600" y="315" on="1"/>
        <pt x="600" y="236" on="0"/>
        <pt x="556" y="116" on="0"/>
        <pt x="480" y="34" on="0"/>
        <pt x="378" y="-8" on="0"/>
        <pt x="321" y="-8" on="1"/>
        <pt x="264" y="-8" on="0"/>
        <pt x="164" y="32" on="0"/>
        <pt x="89" y="113" on="0"/>
        <pt x="46" y="234" on="0"/>
      </contour>
      <contour>
        <pt x="321" y="596" on="1"/>
        <pt x="277" y="596" on="0"/>
        <pt x="197" y="562" on="0"/>
        <pt x="136" y="492" on="0"/>
        <pt x="100" y="387" on="0"/>
        <pt x="100" y="315" on="1"/>
        <pt x="100" y="243" on="0"/>
        <pt x="137" y="138" on="0"/>
        <pt x="199" y="68" on="0"/>
        <pt x="280" y="34" on="0"/>
        <pt x="325" y="34" on="1"/>
        <pt x="369" y="34" on="0"/>
        <pt x="449" y="68" on="0"/>
        <pt x="510" y="138" on="0"/>
        <pt x="546" y="243" on="0"/>
        <pt x="546" y="315" on="1"/>
        <pt x="546" y="388" on="0"/>
        <pt x="509" y="495" on="0"/>
        <pt x="447" y="563" on="0"/>
        <pt x="366" y="596" on="0"/>
      </contour>
    </TTGlyph>
    <TTGlyph name="Omacron" xMin="46" yMin="-8" xMax="600" yMax="772">
      <contour>
        <pt x="325" y="638" on="1"/>
        <pt x="382" y="638" on="0"/>
        <pt x="482" y="598" on="0"/>
        <pt x="557" y="517" on="0"/>
        <pt x="600" y="396" on="0"/>
        <pt x="600" y="315" on="1"/>
        <pt x="600" y="236" on="0"/>
        <pt x="556" y="116" on="0"/>
        <pt x="480" y="34" on="0"/>
        <pt x="378" y="-8" on="0"/>
        <pt x="321" y="-8" on="1"/>
        <pt x="264" y="-8" on="0"/>
        <pt x="164" y="32" on="0"/>
        <pt x="89" y="113" on="0"/>
        <pt x="46" y="234" on="0"/>
        <pt x="46" y="315" on="1"/>
        <pt x="46" y="394" on="0"/>
        <pt x="90" y="514" on="0"/>
        <pt x="166" y="596" on="0"/>
        <pt x="268" y="638" on="0"/>
      </contour>
      <contour>
        <pt x="100" y="315" on="1"/>
        <pt x="100" y="243" on="0"/>
        <pt x="137" y="138" on="0"/>
        <pt x="199" y="68" on="0"/>
        <pt x="280" y="34" on="0"/>
        <pt x="325" y="34" on="1"/>
        <pt x="369" y="34" on="0"/>
        <pt x="449" y="68" on="0"/>
        <pt x="510" y="138" on="0"/>
        <pt x="546" y="243" on="0"/>
        <pt x="546" y="315" on="1"/>
        <pt x="546" y="388" on="0"/>
        <pt x="509" y="495" on="0"/>
        <pt x="447" y="563" on="0"/>
        <pt x="366" y="596" on="0"/>
        <pt x="321" y="596" on="1"/>
        <pt x="277" y="596" on="0"/>
        <pt x="197" y="562" on="0"/>
        <pt x="136" y="492" on="0"/>
        <pt x="100" y="387" on="0"/>
      </contour>
      <contour>
        <pt x="444" y="772" on="1"/>
        <pt x="444" y="730" on="1"/>
        <pt x="199" y="730" on="1"/>
        <pt x="199" y="772" on="1"/>
      </contour>
    </TTGlyph>
    <TTGlyph name="Oslash" xMin="46" yMin="-146" xMax="600" yMax="753">
      <contour>
        <pt x="488" y="753" on="1"/>
        <pt x="522" y="740" on="1"/>
        <pt x="466" y="600" on="1"/>
        <pt x="526" y="564" on="0"/>
        <pt x="600" y="422" on="0"/>
        <pt x="600" y="315" on="1"/>
        <pt x="600" y="236" on="0"/>
        <pt x="556" y="116" on="0"/>
        <pt x="480" y="34" on="0"/>
        <pt x="378" y="-8" on="0"/>
        <pt x="321" y="-8" on="1"/>
        <pt x="271" y="-8" on="0"/>
        <pt x="228" y="7" on="1"/>
        <pt x="167" y="-146" on="1"/>
        <pt x="132" y="-132" on="1"/>
        <pt x="193" y="21" on="1"/>
        <pt x="127" y="56" on="0"/>
        <pt x="46" y="202" on="0"/>
        <pt x="46" y="315" on="1"/>
        <pt x="46" y="394" on="0"/>
        <pt x="90" y="514" on="0"/>
        <pt x="166" y="596" on="0"/>
        <pt x="268" y="638" on="0"/>
        <pt x="325" y="638" on="1"/>
        <pt x="383" y="638" on="0"/>
        <pt x="433" y="617" on="1"/>
      </contour>
      <contour>
        <pt x="100" y="315" on="1"/>
        <pt x="100" y="220" on="0"/>
        <pt x="162" y="97" on="0"/>
        <pt x="211" y="66" on="1"/>
        <pt x="416" y="575" on="1"/>
        <pt x="372" y="596" on="0"/>
        <pt x="321" y="596" on="1"/>
        <pt x="277" y="596" on="0"/>
        <pt x="197" y="562" on="0"/>
        <pt x="136" y="492" on="0"/>
        <pt x="100" y="387" on="0"/>
      </contour>
      <contour>
        <pt x="325" y="34" on="1"/>
        <pt x="369" y="34" on="0"/>
        <pt x="449" y="68" on="0"/>
        <pt x="510" y="138" on="0"/>
        <pt x="546" y="243" on="0"/>
        <pt x="546" y="315" on="1"/>
        <pt x="546" y="405" on="0"/>
        <pt x="492" y="524" on="0"/>
        <pt x="448" y="556" on="1"/>
        <pt x="245" y="49" on="1"/>
        <pt x="282" y="34" on="0"/>
      </contour>
    </TTGlyph>
    <TTGlyph name="Oslashacute" xMin="46" yMin="-146" xMax="600" yMax="834">
      <contour>
        <pt x="301" y="710" on="1"/>
        <pt x="259" y="710" on="1"/>
        <pt x="349" y="834" on="1"/>
        <pt x="412" y="834" on="1"/>
      </contour>
      <contour>
        <pt x="488" y="753" on="1"/>
        <pt x="522" y="740" on="1"/>
        <pt x="466" y="600" on="1"/>
        <pt x="526" y="564" on="0"/>
        <pt x="600" y="422" on="0"/>
        <pt x="600" y="315" on="1"/>
        <pt x="600" y="236" on="0"/>
        <pt x="556" y="116" on="0"/>
        <pt x="480" y="34" on="0"/>
        <pt x="378" y="-8" on="0"/>
        <pt x="321" y="-8" on="1"/>
        <pt x="271" y="-8" on="0"/>
        <pt x="228" y="7" on="1"/>
        <pt x="167" y="-146" on="1"/>
        <pt x="132" y="-132" on="1"/>
        <pt x="193" y="21" on="1"/>
        <pt x="127" y="56" on="0"/>
        <pt x="46" y="202" on="0"/>
        <pt x="46" y="315" on="1"/>
        <pt x="46" y="394" on="0"/>
        <pt x="90" y="514" on="0"/>
        <pt x="166" y="596" on="0"/>
        <pt x="268" y="638" on="0"/>
        <pt x="325" y="638" on="1"/>
        <pt x="383" y="638" on="0"/>
        <pt x="433" y="617" on="1"/>
      </contour>
      <contour>
        <pt x="100" y="315" on="1"/>
        <pt x="100" y="220" on="0"/>
        <pt x="162" y="97" on="0"/>
        <pt x="211" y="66" on="1"/>
        <pt x="416" y="575" on="1"/>
        <pt x="372" y="596" on="0"/>
        <pt x="321" y="596" on="1"/>
        <pt x="277" y="596" on="0"/>
        <pt x="197" y="562" on="0"/>
        <pt x="136" y="492" on="0"/>
        <pt x="100" y="387" on="0"/>
      </contour>
      <contour>
        <pt x="325" y="34" on="1"/>
        <pt x="369" y="34" on="0"/>
        <pt x="449" y="68" on="0"/>
        <pt x="510" y="138" on="0"/>
        <pt x="546" y="243" on="0"/>
        <pt x="546" y="315" on="1"/>
        <pt x="546" y="405" on="0"/>
        <pt x="492" y="524" on="0"/>
        <pt x="448" y="556" on="1"/>
        <pt x="245" y="49" on="1"/>
        <pt x="282" y="34" on="0"/>
      </contour>
    </TTGlyph>
    <TTGlyph name="Osmall" xMin="38" yMin="-8" xMax="478" yMax="476">
      <contour>
        <pt x="478" y="240" on="1"/>
        <pt x="478" y="181" on="0"/>
        <pt x="443" y="88" on="0"/>
        <pt x="383" y="25" on="0"/>
        <pt x="302" y="-8" on="0"/>
        <pt x="256" y="-8" on="1"/>
        <pt x="209" y="-8" on="0"/>
        <pt x="130" y="23" on="0"/>
        <pt x="71" y="83" on="0"/>
        <pt x="38" y="172" on="0"/>
        <pt x="38" y="230" on="1"/>
        <pt x="38" y="289" on="0"/>
        <pt x="72" y="381" on="0"/>
        <pt x="132" y="444" on="0"/>
        <pt x="213" y="476" on="0"/>
        <pt x="260" y="476" on="1"/>
        <pt x="306" y="476" on="0"/>
        <pt x="386" y="446" on="0"/>
        <pt x="445" y="386" on="0"/>
        <pt x="478" y="298" on="0"/>
      </contour>
      <contour>
        <pt x="426" y="235" on="1"/>
        <pt x="426" y="290" on="0"/>
        <pt x="397" y="366" on="0"/>
        <pt x="350" y="414" on="0"/>
        <pt x="289" y="436" on="0"/>
        <pt x="257" y="436" on="1"/>
        <pt x="225" y="436" on="0"/>
        <pt x="165" y="415" on="0"/>
        <pt x="118" y="368" on="0"/>
        <pt x="90" y="291" on="0"/>
        <pt x="90" y="235" on="1"/>
        <pt x="90" y="180" on="0"/>
        <pt x="119" y="103" on="0"/>
        <pt x="166" y="54" on="0"/>
        <pt x="227" y="32" on="0"/>
        <pt x="259" y="32" on="1"/>
        <pt x="291" y="32" on="0"/>
        <pt x="351" y="54" on="0"/>
        <pt x="398" y="102" on="0"/>
        <pt x="426" y="179" on="0"/>
      </contour>
    </TTGlyph>
    <TTGlyph name="Otilde" xMin="46" yMin="-8" xMax="600" yMax="818">
      <contour>
        <pt x="325" y="638" on="1"/>
        <pt x="382" y="638" on="0"/>
        <pt x="482" y="598" on="0"/>
        <pt x="557" y="517" on="0"/>
        <pt x="600" y="396" on="0"/>
        <pt x="600" y="315" on="1"/>
        <pt x="600" y="236" on="0"/>
        <pt x="556" y="116" on="0"/>
        <pt x="480" y="34" on="0"/>
        <pt x="378" y="-8" on="0"/>
        <pt x="321" y="-8" on="1"/>
        <pt x="264" y="-8" on="0"/>
        <pt x="164" y="32" on="0"/>
        <pt x="89" y="113" on="0"/>
        <pt x="46" y="234" on="0"/>
        <pt x="46" y="315" on="1"/>
        <pt x="46" y="394" on="0"/>
        <pt x="90" y="514" on="0"/>
        <pt x="166" y="596" on="0"/>
        <pt x="268" y="638" on="0"/>
      </contour>
      <contour>
        <pt x="100" y="315" on="1"/>
        <pt x="100" y="243" on="0"/>
        <pt x="137" y="138" on="0"/>
        <pt x="199" y="68" on="0"/>
        <pt x="280" y="34" on="0"/>
        <pt x="325" y="34" on="1"/>
        <pt x="369" y="34" on="0"/>
        <pt x="449" y="68" on="0"/>
        <pt x="510" y="138" on="0"/>
        <pt x="546" y="243" on="0"/>
        <pt x="546" y="315" on="1"/>
        <pt x="546" y="388" on="0"/>
        <pt x="509" y="495" on="0"/>
        <pt x="447" y="563" on="0"/>
        <pt x="366" y="596" on="0"/>
        <pt x="321" y="596" on="1"/>
        <pt x="277" y="596" on="0"/>
        <pt x="197" y="562" on="0"/>
        <pt x="136" y="492" on="0"/>
        <pt x="100" y="387" on="0"/>
      </contour>
      <contour>
        <pt x="173" y="715" on="1"/>
        <pt x="173" y="757" on="0"/>
        <pt x="214" y="815" on="0"/>
        <pt x="260" y="815" on="1"/>
        <pt x="282" y="815" on="0"/>
        <pt x="314" y="798" on="0"/>
        <pt x="342" y="778" on="0"/>
        <pt x="370" y="761" on="0"/>
        <pt x="387" y="761" on="1"/>
        <pt x="413" y="761" on="0"/>
        <pt x="434" y="793" on="0"/>
        <pt x="436" y="818" on="1"/>
        <pt x="476" y="818" on="1"/>
        <pt x="476" y="799" on="0"/>
        <pt x="465" y="764" on="0"/>
        <pt x="444" y="737" on="0"/>
        <pt x="413" y="721" on="0"/>
        <pt x="392" y="721" on="1"/>
        <pt x="369" y="721" on="0"/>
        <pt x="333" y="738" on="0"/>
        <pt x="303" y="758" on="0"/>
        <pt x="276" y="775" on="0"/>
        <pt x="263" y="775" on="1"/>
        <pt x="237" y="775" on="0"/>
        <pt x="215" y="739" on="0"/>
        <pt x="213" y="715" on="1"/>
      </contour>
    </TTGlyph>
    <TTGlyph name="P" xMin="80" yMin="0" xMax="457" yMax="630">
      <contour>
        <pt x="80" y="630" on="1"/>
        <pt x="253" y="630" on="1"/>
        <pt x="297" y="630" on="0"/>
        <pt x="372" y="608" on="0"/>
        <pt x="426" y="563" on="0"/>
        <pt x="457" y="496" on="0"/>
        <pt x="457" y="450" on="1"/>
        <pt x="457" y="405" on="0"/>
        <pt x="424" y="337" on="0"/>
        <pt x="367" y="290" on="0"/>
        <pt x="290" y="267" on="0"/>
        <pt x="245" y="267" on="1"/>
        <pt x="132" y="267" on="1"/>
        <pt x="132" y="0" on="1"/>
        <pt x="80" y="0" on="1"/>
      </contour>
      <contour>
        <pt x="132" y="309" on="1"/>
        <pt x="220" y="309" on="1"/>
        <pt x="261" y="309" on="0"/>
        <pt x="328" y="323" on="0"/>
        <pt x="375" y="356" on="0"/>
        <pt x="401" y="410" on="0"/>
        <pt x="401" y="449" on="1"/>
        <pt x="401" y="490" on="0"/>
        <pt x="372" y="544" on="0"/>
        <pt x="326" y="575" on="0"/>
        <pt x="267" y="588" on="0"/>
        <pt x="236" y="588" on="1"/>
        <pt x="132" y="588" on="1"/>
      </contour>
    </TTGlyph>
    <TTGlyph name="Psmall" xMin="69" yMin="0" xMax="375" yMax="470">
      <contour>
        <pt x="69" y="470" on="1"/>
        <pt x="215" y="470" on="1"/>
        <pt x="248" y="470" on="0"/>
        <pt x="306" y="452" on="0"/>
        <pt x="349" y="417" on="0"/>
        <pt x="375" y="367" on="0"/>
        <pt x="375" y="335" on="1"/>
        <pt x="375" y="290" on="0"/>
        <pt x="339" y="234" on="0"/>
        <pt x="282" y="203" on="0"/>
        <pt x="212" y="192" on="0"/>
        <pt x="178" y="192" on="1"/>
        <pt x="117" y="192" on="1"/>
        <pt x="117" y="0" on="1"/>
        <pt x="69" y="0" on="1"/>
      </contour>
      <contour>
        <pt x="116" y="230" on="1"/>
        <pt x="181" y="230" on="1"/>
        <pt x="207" y="230" on="0"/>
        <pt x="258" y="239" on="0"/>
        <pt x="299" y="261" on="0"/>
        <pt x="325" y="301" on="0"/>
        <pt x="325" y="332" on="1"/>
        <pt x="325" y="363" on="0"/>
        <pt x="300" y="402" on="0"/>
        <pt x="260" y="424" on="0"/>
        <pt x="209" y="432" on="0"/>
        <pt x="184" y="432" on="1"/>
        <pt x="116" y="432" on="1"/>
      </contour>
    </TTGlyph>
    <TTGlyph name="Q" xMin="49" yMin="-166" xMax="621" yMax="638">
      <contour>
        <pt x="320" y="638" on="1"/>
        <pt x="381" y="638" on="0"/>
        <pt x="483" y="598" on="0"/>
        <pt x="557" y="517" on="0"/>
        <pt x="597" y="396" on="0"/>
        <pt x="597" y="315" on="1"/>
        <pt x="597" y="268" on="0"/>
        <pt x="580" y="180" on="0"/>
        <pt x="541" y="102" on="0"/>
        <pt x="477" y="35" on="0"/>
        <pt x="429" y="8" on="1"/>
        <pt x="277" y="-78" on="1"/>
        <pt x="307" y="-78" on="0"/>
        <pt x="363" y="-93" on="0"/>
        <pt x="420" y="-111" on="0"/>
        <pt x="480" y="-126" on="0"/>
        <pt x="515" y="-126" on="1"/>
        <pt x="537" y="-126" on="0"/>
        <pt x="586" y="-111" on="0"/>
        <pt x="602" y="-100" on="1"/>
        <pt x="621" y="-135" on="1"/>
        <pt x="598" y="-151" on="0"/>
        <pt x="541" y="-166" on="0"/>
        <pt x="512" y="-166" on="1"/>
        <pt x="476" y="-166" on="0"/>
        <pt x="414" y="-151" on="0"/>
        <pt x="356" y="-133" on="0"/>
        <pt x="297" y="-118" on="0"/>
        <pt x="266" y="-118" on="1"/>
        <pt x="203" y="-118" on="0"/>
        <pt x="151" y="-150" on="1"/>
        <pt x="130" y="-114" on="1"/>
        <pt x="317" y="-7" on="1"/>
        <pt x="254" y="-6" on="0"/>
        <pt x="154" y="42" on="0"/>
        <pt x="85" y="126" on="0"/>
        <pt x="49" y="244" on="0"/>
        <pt x="49" y="315" on="1"/>
        <pt x="49" y="394" on="0"/>
        <pt x="91" y="514" on="0"/>
        <pt x="164" y="596" on="0"/>
        <pt x="263" y="638" on="0"/>
      </contour>
      <contour>
        <pt x="103" y="315" on="1"/>
        <pt x="103" y="243" on="0"/>
        <pt x="139" y="138" on="0"/>
        <pt x="199" y="68" on="0"/>
        <pt x="279" y="34" on="0"/>
        <pt x="323" y="34" on="1"/>
        <pt x="370" y="34" on="0"/>
        <pt x="451" y="71" on="0"/>
        <pt x="510" y="143" on="0"/>
        <pt x="543" y="248" on="0"/>
        <pt x="543" y="315" on="1"/>
        <pt x="543" y="388" on="0"/>
        <pt x="509" y="495" on="0"/>
        <pt x="449" y="563" on="0"/>
        <pt x="367" y="596" on="0"/>
        <pt x="319" y="596" on="1"/>
        <pt x="275" y="596" on="0"/>
        <pt x="197" y="562" on="0"/>
        <pt x="138" y="492" on="0"/>
        <pt x="103" y="387" on="0"/>
      </contour>
    </TTGlyph>
    <TTGlyph name="Qsmall" xMin="38" yMin="-102" xMax="517" yMax="476">
      <contour>
        <pt x="282" y="-8" on="1"/>
        <pt x="300" y="-12" on="0"/>
        <pt x="336" y="-30" on="0"/>
        <pt x="373" y="-48" on="0"/>
        <pt x="415" y="-62" on="0"/>
        <pt x="440" y="-62" on="1"/>
        <pt x="460" y="-62" on="0"/>
        <pt x="489" y="-52" on="0"/>
        <pt x="500" y="-44" on="1"/>
        <pt x="517" y="-78" on="1"/>
        <pt x="504" y="-88" on="0"/>
        <pt x="462" y="-102" on="0"/>
        <pt x="437" y="-102" on="1"/>
        <pt x="405" y="-102" on="0"/>
        <pt x="353" y="-84" on="0"/>
        <pt x="306" y="-62" on="0"/>
        <pt x="261" y="-44" on="0"/>
        <pt x="235" y="-44" on="1"/>
        <pt x="206" y="-44" on="0"/>
        <pt x="157" y="-64" on="0"/>
        <pt x="134" y="-79" on="1"/>
        <pt x="112" y="-44" on="1"/>
        <pt x="130" y="-29" on="0"/>
        <pt x="181" y="-6" on="0"/>
        <pt x="203" y="-4" on="1"/>
        <pt x="203" y="-2" on="1"/>
        <pt x="130" y="13" on="0"/>
        <pt x="38" y="130" on="0"/>
        <pt x="38" y="230" on="1"/>
        <pt x="38" y="289" on="0"/>
        <pt x="72" y="381" on="0"/>
        <pt x="132" y="444" on="0"/>
        <pt x="213" y="476" on="0"/>
        <pt x="260" y="476" on="1"/>
        <pt x="306" y="476" on="0"/>
        <pt x="386" y="446" on="0"/>
        <pt x="445" y="386" on="0"/>
        <pt x="478" y="298" on="0"/>
        <pt x="478" y="240" on="1"/>
        <pt x="478" y="185" on="0"/>
        <pt x="448" y="97" on="0"/>
        <pt x="395" y="35" on="0"/>
        <pt x="324" y="-2" on="0"/>
        <pt x="282" y="-6" on="1"/>
      </contour>
      <contour>
        <pt x="426" y="235" on="1"/>
        <pt x="426" y="290" on="0"/>
        <pt x="397" y="366" on="0"/>
        <pt x="350" y="414" on="0"/>
        <pt x="289" y="436" on="0"/>
        <pt x="257" y="436" on="1"/>
        <pt x="225" y="436" on="0"/>
        <pt x="165" y="415" on="0"/>
        <pt x="118" y="368" on="0"/>
        <pt x="90" y="291" on="0"/>
        <pt x="90" y="235" on="1"/>
        <pt x="90" y="180" on="0"/>
        <pt x="118" y="102" on="0"/>
        <pt x="164" y="53" on="0"/>
        <pt x="224" y="30" on="0"/>
        <pt x="256" y="30" on="1"/>
        <pt x="288" y="30" on="0"/>
        <pt x="349" y="52" on="0"/>
        <pt x="397" y="101" on="0"/>
        <pt x="426" y="179" on="0"/>
      </contour>
    </TTGlyph>
    <TTGlyph name="R" xMin="80" yMin="0" xMax="502" yMax="630">
      <contour>
        <pt x="80" y="630" on="1"/>
        <pt x="264" y="630" on="1"/>
        <pt x="313" y="630" on="0"/>
        <pt x="388" y="604" on="0"/>
        <pt x="438" y="558" on="0"/>
        <pt x="464" y="494" on="0"/>
        <pt x="464" y="455" on="1"/>
        <pt x="464" y="419" on="0"/>
        <pt x="441" y="360" on="0"/>
        <pt x="403" y="315" on="0"/>
        <pt x="353" y="284" on="0"/>
        <pt x="326" y="277" on="1"/>
        <pt x="502" y="0" on="1"/>
        <pt x="442" y="0" on="1"/>
        <pt x="278" y="267" on="1"/>
        <pt x="127" y="267" on="1"/>
        <pt x="127" y="0" on="1"/>
        <pt x="80" y="0" on="1"/>
      </contour>
      <contour>
        <pt x="127" y="309" on="1"/>
        <pt x="243" y="309" on="1"/>
        <pt x="279" y="309" on="0"/>
        <pt x="341" y="327" on="0"/>
        <pt x="385" y="363" on="0"/>
        <pt x="410" y="417" on="0"/>
        <pt x="410" y="453" on="1"/>
        <pt x="410" y="525" on="0"/>
        <pt x="326" y="588" on="0"/>
        <pt x="244" y="588" on="1"/>
        <pt x="127" y="588" on="1"/>
      </contour>
    </TTGlyph>
    <TTGlyph name="R.alt" xMin="80" yMin="0" xMax="502" yMax="630">
      <contour>
        <pt x="80" y="630" on="1"/>
        <pt x="264" y="630" on="1"/>
        <pt x="313" y="630" on="0"/>
        <pt x="388" y="604" on="0"/>
        <pt x="438" y="558" on="0"/>
        <pt x="464" y="494" on="0"/>
        <pt x="464" y="455" on="1"/>
        <pt x="464" y="419" on="0"/>
        <pt x="441" y="360" on="0"/>
        <pt x="403" y="315" on="0"/>
        <pt x="353" y="284" on="0"/>
        <pt x="326" y="277" on="1"/>
        <pt x="502" y="0" on="1"/>
        <pt x="442" y="0" on="1"/>
        <pt x="278" y="267" on="1"/>
        <pt x="127" y="267" on="1"/>
        <pt x="127" y="0" on="1"/>
        <pt x="80" y="0" on="1"/>
      </contour>
      <contour>
        <pt x="127" y="309" on="1"/>
        <pt x="243" y="309" on="1"/>
        <pt x="279" y="309" on="0"/>
        <pt x="341" y="327" on="0"/>
        <pt x="385" y="363" on="0"/>
        <pt x="410" y="417" on="0"/>
        <pt x="410" y="453" on="1"/>
        <pt x="410" y="525" on="0"/>
        <pt x="326" y="588" on="0"/>
        <pt x="244" y="588" on="1"/>
        <pt x="127" y="588" on="1"/>
      </contour>
    </TTGlyph>
    <TTGlyph name="Racute" xMin="80" yMin="0" xMax="502" yMax="834">
      <contour>
        <pt x="80" y="630" on="1"/>
        <pt x="264" y="630" on="1"/>
        <pt x="313" y="630" on="0"/>
        <pt x="388" y="604" on="0"/>
        <pt x="438" y="558" on="0"/>
        <pt x="464" y="494" on="0"/>
        <pt x="464" y="455" on="1"/>
        <pt x="464" y="419" on="0"/>
        <pt x="441" y="360" on="0"/>
        <pt x="403" y="315" on="0"/>
        <pt x="353" y="284" on="0"/>
        <pt x="326" y="277" on="1"/>
        <pt x="502" y="0" on="1"/>
        <pt x="442" y="0" on="1"/>
        <pt x="278" y="267" on="1"/>
        <pt x="127" y="267" on="1"/>
        <pt x="127" y="0" on="1"/>
        <pt x="80" y="0" on="1"/>
      </contour>
      <contour>
        <pt x="127" y="309" on="1"/>
        <pt x="243" y="309" on="1"/>
        <pt x="279" y="309" on="0"/>
        <pt x="341" y="327" on="0"/>
        <pt x="385" y="363" on="0"/>
        <pt x="410" y="417" on="0"/>
        <pt x="410" y="453" on="1"/>
        <pt x="410" y="525" on="0"/>
        <pt x="326" y="588" on="0"/>
        <pt x="244" y="588" on="1"/>
        <pt x="127" y="588" on="1"/>
      </contour>
      <contour>
        <pt x="231" y="710" on="1"/>
        <pt x="189" y="710" on="1"/>
        <pt x="279" y="834" on="1"/>
        <pt x="342" y="834" on="1"/>
      </contour>
    </TTGlyph>
    <TTGlyph name="Rcaron" xMin="80" yMin="0" xMax="502" yMax="845">
      <contour>
        <pt x="80" y="630" on="1"/>
        <pt x="264" y="630" on="1"/>
        <pt x="313" y="630" on="0"/>
        <pt x="388" y="604" on="0"/>
        <pt x="438" y="558" on="0"/>
        <pt x="464" y="494" on="0"/>
        <pt x="464" y="455" on="1"/>
        <pt x="464" y="419" on="0"/>
        <pt x="441" y="360" on="0"/>
        <pt x="403" y="315" on="0"/>
        <pt x="353" y="284" on="0"/>
        <pt x="326" y="277" on="1"/>
        <pt x="502" y="0" on="1"/>
        <pt x="442" y="0" on="1"/>
        <pt x="278" y="267" on="1"/>
        <pt x="127" y="267" on="1"/>
        <pt x="127" y="0" on="1"/>
        <pt x="80" y="0" on="1"/>
      </contour>
      <contour>
        <pt x="127" y="309" on="1"/>
        <pt x="243" y="309" on="1"/>
        <pt x="279" y="309" on="0"/>
        <pt x="341" y="327" on="0"/>
        <pt x="385" y="363" on="0"/>
        <pt x="410" y="417" on="0"/>
        <pt x="410" y="453" on="1"/>
        <pt x="410" y="525" on="0"/>
        <pt x="326" y="588" on="0"/>
        <pt x="244" y="588" on="1"/>
        <pt x="127" y="588" on="1"/>
      </contour>
      <contour>
        <pt x="98" y="845" on="1"/>
        <pt x="154" y="845" on="1"/>
        <pt x="244" y="746" on="1"/>
        <pt x="334" y="845" on="1"/>
        <pt x="394" y="845" on="1"/>
        <pt x="269" y="711" on="1"/>
        <pt x="220" y="711" on="1"/>
      </contour>
    </TTGlyph>
    <TTGlyph name="Rcommaaccent" xMin="80" yMin="-305" xMax="502" yMax="630">
      <contour>
        <pt x="80" y="630" on="1"/>
        <pt x="264" y="630" on="1"/>
        <pt x="313" y="630" on="0"/>
        <pt x="388" y="604" on="0"/>
        <pt x="438" y="558" on="0"/>
        <pt x="464" y="494" on="0"/>
        <pt x="464" y="455" on="1"/>
        <pt x="464" y="419" on="0"/>
        <pt x="441" y="360" on="0"/>
        <pt x="403" y="315" on="0"/>
        <pt x="353" y="284" on="0"/>
        <pt x="326" y="277" on="1"/>
        <pt x="502" y="0" on="1"/>
        <pt x="442" y="0" on="1"/>
        <pt x="278" y="267" on="1"/>
        <pt x="127" y="267" on="1"/>
        <pt x="127" y="0" on="1"/>
        <pt x="80" y="0" on="1"/>
      </contour>
      <contour>
        <pt x="127" y="309" on="1"/>
        <pt x="243" y="309" on="1"/>
        <pt x="279" y="309" on="0"/>
        <pt x="341" y="327" on="0"/>
        <pt x="385" y="363" on="0"/>
        <pt x="410" y="417" on="0"/>
        <pt x="410" y="453" on="1"/>
        <pt x="410" y="525" on="0"/>
        <pt x="326" y="588" on="0"/>
        <pt x="244" y="588" on="1"/>
        <pt x="127" y="588" on="1"/>
      </contour>
      <contour>
        <pt x="280" y="-188" on="1"/>
        <pt x="263" y="-185" on="0"/>
        <pt x="240" y="-161" on="0"/>
        <pt x="240" y="-140" on="1"/>
        <pt x="240" y="-122" on="0"/>
        <pt x="263" y="-98" on="0"/>
        <pt x="281" y="-98" on="1"/>
        <pt x="297" y="-98" on="0"/>
        <pt x="329" y="-125" on="0"/>
        <pt x="329" y="-164" on="1"/>
        <pt x="329" y="-187" on="0"/>
        <pt x="313" y="-229" on="0"/>
        <pt x="286" y="-266" on="0"/>
        <pt x="251" y="-295" on="0"/>
        <pt x="232" y="-305" on="1"/>
        <pt x="212" y="-277" on="1"/>
        <pt x="242" y="-262" on="0"/>
        <pt x="280" y="-214" on="0"/>
        <pt x="285" y="-189" on="1"/>
      </contour>
    </TTGlyph>
    <TTGlyph name="Ring" xMin="29" yMin="710" xMax="215" yMax="876">
      <contour>
        <pt x="29" y="793" on="1"/>
        <pt x="29" y="835" on="0"/>
        <pt x="84" y="876" on="0"/>
        <pt x="122" y="876" on="1"/>
        <pt x="160" y="876" on="0"/>
        <pt x="215" y="835" on="0"/>
        <pt x="215" y="793" on="1"/>
        <pt x="215" y="751" on="0"/>
        <pt x="159" y="710" on="0"/>
        <pt x="122" y="710" on="1"/>
        <pt x="84" y="710" on="0"/>
        <pt x="29" y="753" on="0"/>
      </contour>
      <contour>
        <pt x="69" y="793" on="1"/>
        <pt x="69" y="767" on="0"/>
        <pt x="97" y="738" on="0"/>
        <pt x="122" y="738" on="1"/>
        <pt x="147" y="738" on="0"/>
        <pt x="175" y="767" on="0"/>
        <pt x="175" y="793" on="1"/>
        <pt x="175" y="819" on="0"/>
        <pt x="146" y="848" on="0"/>
        <pt x="122" y="848" on="1"/>
        <pt x="98" y="848" on="0"/>
        <pt x="69" y="819" on="0"/>
      </contour>
    </TTGlyph>
    <TTGlyph name="Rsmall" xMin="68" yMin="0" xMax="385" yMax="470">
      <contour>
        <pt x="68" y="470" on="1"/>
        <pt x="214" y="470" on="1"/>
        <pt x="246" y="470" on="0"/>
        <pt x="303" y="454" on="0"/>
        <pt x="347" y="419" on="0"/>
        <pt x="372" y="367" on="0"/>
        <pt x="372" y="331" on="1"/>
        <pt x="372" y="307" on="0"/>
        <pt x="355" y="264" on="0"/>
        <pt x="327" y="230" on="0"/>
        <pt x="288" y="205" on="0"/>
        <pt x="267" y="198" on="1"/>
        <pt x="385" y="0" on="1"/>
        <pt x="327" y="0" on="1"/>
        <pt x="221" y="189" on="1"/>
        <pt x="116" y="189" on="1"/>
        <pt x="116" y="0" on="1"/>
        <pt x="68" y="0" on="1"/>
      </contour>
      <contour>
        <pt x="115" y="227" on="1"/>
        <pt x="189" y="227" on="1"/>
        <pt x="252" y="227" on="0"/>
        <pt x="322" y="280" on="0"/>
        <pt x="322" y="330" on="1"/>
        <pt x="322" y="390" on="0"/>
        <pt x="254" y="432" on="0"/>
        <pt x="197" y="432" on="1"/>
        <pt x="115" y="432" on="1"/>
      </contour>
    </TTGlyph>
    <TTGlyph name="S" xMin="46" yMin="-8" xMax="436" yMax="638">
      <contour>
        <pt x="246" y="638" on="1"/>
        <pt x="289" y="638" on="0"/>
        <pt x="369" y="621" on="0"/>
        <pt x="409" y="602" on="1"/>
        <pt x="395" y="561" on="1"/>
        <pt x="353" y="581" on="0"/>
        <pt x="284" y="596" on="0"/>
        <pt x="248" y="596" on="1"/>
        <pt x="182" y="596" on="0"/>
        <pt x="101" y="535" on="0"/>
        <pt x="101" y="481" on="1"/>
        <pt x="101" y="431" on="0"/>
        <pt x="163" y="374" on="0"/>
        <pt x="225" y="353" on="1"/>
        <pt x="296" y="329" on="1"/>
        <pt x="365" y="306" on="0"/>
        <pt x="436" y="219" on="0"/>
        <pt x="436" y="163" on="1"/>
        <pt x="436" y="84" on="0"/>
        <pt x="326" y="-8" on="0"/>
        <pt x="232" y="-8" on="1"/>
        <pt x="184" y="-8" on="0"/>
        <pt x="91" y="10" on="0"/>
        <pt x="46" y="32" on="1"/>
        <pt x="61" y="75" on="1"/>
        <pt x="102" y="54" on="0"/>
        <pt x="183" y="35" on="0"/>
        <pt x="228" y="35" on="1"/>
        <pt x="295" y="35" on="0"/>
        <pt x="382" y="95" on="0"/>
        <pt x="382" y="157" on="1"/>
        <pt x="382" y="178" on="0"/>
        <pt x="370" y="216" on="0"/>
        <pt x="341" y="250" on="0"/>
        <pt x="291" y="280" on="0"/>
        <pt x="253" y="293" on="1"/>
        <pt x="185" y="315" on="1"/>
        <pt x="156" y="324" on="0"/>
        <pt x="106" y="353" on="0"/>
        <pt x="68" y="392" on="0"/>
        <pt x="47" y="442" on="0"/>
        <pt x="47" y="473" on="1"/>
        <pt x="47" y="549" on="0"/>
        <pt x="151" y="638" on="0"/>
      </contour>
    </TTGlyph>
    <TTGlyph name="Sacute" xMin="46" yMin="-8" xMax="436" yMax="834">
      <contour>
        <pt x="246" y="638" on="1"/>
        <pt x="289" y="638" on="0"/>
        <pt x="369" y="621" on="0"/>
        <pt x="409" y="602" on="1"/>
        <pt x="395" y="561" on="1"/>
        <pt x="353" y="581" on="0"/>
        <pt x="284" y="596" on="0"/>
        <pt x="248" y="596" on="1"/>
        <pt x="182" y="596" on="0"/>
        <pt x="101" y="535" on="0"/>
        <pt x="101" y="481" on="1"/>
        <pt x="101" y="431" on="0"/>
        <pt x="163" y="374" on="0"/>
        <pt x="225" y="353" on="1"/>
        <pt x="296" y="329" on="1"/>
        <pt x="365" y="306" on="0"/>
        <pt x="436" y="219" on="0"/>
        <pt x="436" y="163" on="1"/>
        <pt x="436" y="84" on="0"/>
        <pt x="326" y="-8" on="0"/>
        <pt x="232" y="-8" on="1"/>
        <pt x="184" y="-8" on="0"/>
        <pt x="91" y="10" on="0"/>
        <pt x="46" y="32" on="1"/>
        <pt x="61" y="75" on="1"/>
        <pt x="102" y="54" on="0"/>
        <pt x="183" y="35" on="0"/>
        <pt x="228" y="35" on="1"/>
        <pt x="295" y="35" on="0"/>
        <pt x="382" y="95" on="0"/>
        <pt x="382" y="157" on="1"/>
        <pt x="382" y="178" on="0"/>
        <pt x="370" y="216" on="0"/>
        <pt x="341" y="250" on="0"/>
        <pt x="291" y="280" on="0"/>
        <pt x="253" y="293" on="1"/>
        <pt x="185" y="315" on="1"/>
        <pt x="156" y="324" on="0"/>
        <pt x="106" y="353" on="0"/>
        <pt x="68" y="392" on="0"/>
        <pt x="47" y="442" on="0"/>
        <pt x="47" y="473" on="1"/>
        <pt x="47" y="549" on="0"/>
        <pt x="151" y="638" on="0"/>
      </contour>
      <contour>
        <pt x="221" y="710" on="1"/>
        <pt x="179" y="710" on="1"/>
        <pt x="269" y="834" on="1"/>
        <pt x="332" y="834" on="1"/>
      </contour>
    </TTGlyph>
    <TTGlyph name="Scaron" xMin="46" yMin="-8" xMax="436" yMax="845">
      <contour>
        <pt x="246" y="638" on="1"/>
        <pt x="289" y="638" on="0"/>
        <pt x="369" y="621" on="0"/>
        <pt x="409" y="602" on="1"/>
        <pt x="395" y="561" on="1"/>
        <pt x="353" y="581" on="0"/>
        <pt x="284" y="596" on="0"/>
        <pt x="248" y="596" on="1"/>
        <pt x="182" y="596" on="0"/>
        <pt x="101" y="535" on="0"/>
        <pt x="101" y="481" on="1"/>
        <pt x="101" y="431" on="0"/>
        <pt x="163" y="374" on="0"/>
        <pt x="225" y="353" on="1"/>
        <pt x="296" y="329" on="1"/>
        <pt x="365" y="306" on="0"/>
        <pt x="436" y="219" on="0"/>
        <pt x="436" y="163" on="1"/>
        <pt x="436" y="84" on="0"/>
        <pt x="326" y="-8" on="0"/>
        <pt x="232" y="-8" on="1"/>
        <pt x="184" y="-8" on="0"/>
        <pt x="91" y="10" on="0"/>
        <pt x="46" y="32" on="1"/>
        <pt x="61" y="75" on="1"/>
        <pt x="102" y="54" on="0"/>
        <pt x="183" y="35" on="0"/>
        <pt x="228" y="35" on="1"/>
        <pt x="295" y="35" on="0"/>
        <pt x="382" y="95" on="0"/>
        <pt x="382" y="157" on="1"/>
        <pt x="382" y="178" on="0"/>
        <pt x="370" y="216" on="0"/>
        <pt x="341" y="250" on="0"/>
        <pt x="291" y="280" on="0"/>
        <pt x="253" y="293" on="1"/>
        <pt x="185" y="315" on="1"/>
        <pt x="156" y="324" on="0"/>
        <pt x="106" y="353" on="0"/>
        <pt x="68" y="392" on="0"/>
        <pt x="47" y="442" on="0"/>
        <pt x="47" y="473" on="1"/>
        <pt x="47" y="549" on="0"/>
        <pt x="151" y="638" on="0"/>
      </contour>
      <contour>
        <pt x="101" y="845" on="1"/>
        <pt x="157" y="845" on="1"/>
        <pt x="247" y="746" on="1"/>
        <pt x="337" y="845" on="1"/>
        <pt x="397" y="845" on="1"/>
        <pt x="272" y="711" on="1"/>
        <pt x="223" y="711" on="1"/>
      </contour>
    </TTGlyph>
    <TTGlyph name="Scedilla" xMin="46" yMin="-214" xMax="436" yMax="638">
      <contour>
        <pt x="246" y="638" on="1"/>
        <pt x="289" y="638" on="0"/>
        <pt x="369" y="621" on="0"/>
        <pt x="409" y="602" on="1"/>
        <pt x="395" y="561" on="1"/>
        <pt x="353" y="581" on="0"/>
        <pt x="284" y="596" on="0"/>
        <pt x="248" y="596" on="1"/>
        <pt x="182" y="596" on="0"/>
        <pt x="101" y="535" on="0"/>
        <pt x="101" y="481" on="1"/>
        <pt x="101" y="431" on="0"/>
        <pt x="163" y="374" on="0"/>
        <pt x="225" y="353" on="1"/>
        <pt x="296" y="329" on="1"/>
        <pt x="365" y="306" on="0"/>
        <pt x="436" y="219" on="0"/>
        <pt x="436" y="163" on="1"/>
        <pt x="436" y="87" on="0"/>
        <pt x="333" y="-4" on="0"/>
        <pt x="245" y="-8" on="1"/>
        <pt x="228" y="-47" on="1"/>
        <pt x="256" y="-47" on="0"/>
        <pt x="297" y="-60" on="0"/>
        <pt x="323" y="-82" on="0"/>
        <pt x="336" y="-110" on="0"/>
        <pt x="336" y="-125" on="1"/>
        <pt x="336" y="-167" on="0"/>
        <pt x="267" y="-214" on="0"/>
        <pt x="215" y="-214" on="1"/>
        <pt x="192" y="-214" on="0"/>
        <pt x="153" y="-207" on="0"/>
        <pt x="141" y="-202" on="1"/>
        <pt x="150" y="-170" on="1"/>
        <pt x="163" y="-174" on="0"/>
        <pt x="194" y="-179" on="0"/>
        <pt x="208" y="-179" on="1"/>
        <pt x="248" y="-179" on="0"/>
        <pt x="286" y="-150" on="0"/>
        <pt x="286" y="-127" on="1"/>
        <pt x="286" y="-117" on="0"/>
        <pt x="278" y="-99" on="0"/>
        <pt x="254" y="-86" on="0"/>
        <pt x="210" y="-78" on="0"/>
        <pt x="175" y="-78" on="1"/>
        <pt x="208" y="-7" on="1"/>
        <pt x="166" y="-5" on="0"/>
        <pt x="85" y="12" on="0"/>
        <pt x="46" y="32" on="1"/>
        <pt x="61" y="75" on="1"/>
        <pt x="102" y="54" on="0"/>
        <pt x="183" y="35" on="0"/>
        <pt x="228" y="35" on="1"/>
        <pt x="295" y="35" on="0"/>
        <pt x="382" y="95" on="0"/>
        <pt x="382" y="157" on="1"/>
        <pt x="382" y="178" on="0"/>
        <pt x="370" y="216" on="0"/>
        <pt x="341" y="250" on="0"/>
        <pt x="291" y="280" on="0"/>
        <pt x="253" y="293" on="1"/>
        <pt x="185" y="315" on="1"/>
        <pt x="156" y="324" on="0"/>
        <pt x="106" y="353" on="0"/>
        <pt x="68" y="392" on="0"/>
        <pt x="47" y="442" on="0"/>
        <pt x="47" y="473" on="1"/>
        <pt x="47" y="549" on="0"/>
        <pt x="151" y="638" on="0"/>
      </contour>
    </TTGlyph>
    <TTGlyph name="Scircumflex" xMin="46" yMin="-8" xMax="436" yMax="844">
      <contour>
        <pt x="246" y="638" on="1"/>
        <pt x="289" y="638" on="0"/>
        <pt x="369" y="621" on="0"/>
        <pt x="409" y="602" on="1"/>
        <pt x="395" y="561" on="1"/>
        <pt x="353" y="581" on="0"/>
        <pt x="284" y="596" on="0"/>
        <pt x="248" y="596" on="1"/>
        <pt x="182" y="596" on="0"/>
        <pt x="101" y="535" on="0"/>
        <pt x="101" y="481" on="1"/>
        <pt x="101" y="431" on="0"/>
        <pt x="163" y="374" on="0"/>
        <pt x="225" y="353" on="1"/>
        <pt x="296" y="329" on="1"/>
        <pt x="365" y="306" on="0"/>
        <pt x="436" y="219" on="0"/>
        <pt x="436" y="163" on="1"/>
        <pt x="436" y="84" on="0"/>
        <pt x="326" y="-8" on="0"/>
        <pt x="232" y="-8" on="1"/>
        <pt x="184" y="-8" on="0"/>
        <pt x="91" y="10" on="0"/>
        <pt x="46" y="32" on="1"/>
        <pt x="61" y="75" on="1"/>
        <pt x="102" y="54" on="0"/>
        <pt x="183" y="35" on="0"/>
        <pt x="228" y="35" on="1"/>
        <pt x="295" y="35" on="0"/>
        <pt x="382" y="95" on="0"/>
        <pt x="382" y="157" on="1"/>
        <pt x="382" y="178" on="0"/>
        <pt x="370" y="216" on="0"/>
        <pt x="341" y="250" on="0"/>
        <pt x="291" y="280" on="0"/>
        <pt x="253" y="293" on="1"/>
        <pt x="185" y="315" on="1"/>
        <pt x="156" y="324" on="0"/>
        <pt x="106" y="353" on="0"/>
        <pt x="68" y="392" on="0"/>
        <pt x="47" y="442" on="0"/>
        <pt x="47" y="473" on="1"/>
        <pt x="47" y="549" on="0"/>
        <pt x="151" y="638" on="0"/>
      </contour>
      <contour>
        <pt x="218" y="844" on="1"/>
        <pt x="267" y="844" on="1"/>
        <pt x="392" y="710" on="1"/>
        <pt x="332" y="710" on="1"/>
        <pt x="242" y="809" on="1"/>
        <pt x="152" y="710" on="1"/>
        <pt x="96" y="710" on="1"/>
      </contour>
    </TTGlyph>
</ttFont>
